<svg width="511" height="136" viewBox="0 0 511 136" fill="none" xmlns="http://www.w3.org/2000/svg">
<path fill-rule="evenodd" clip-rule="evenodd" d="M204.332 130.331C211.172 134.051 218.972 135.911 227.732 135.911C239.732 135.911 249.392 132.791 256.712 126.551C264.152 120.191 269.492 111.371 272.732 100.091C276.092 88.8106 277.772 75.3106 277.772 59.5906C277.772 46.6306 275.972 35.8306 272.372 27.1906C268.892 18.4306 263.732 11.8906 256.892 7.57064C250.172 3.13064 242.012 0.910645 232.412 0.910645C223.532 0.910645 215.672 2.77064 208.832 6.49064C202.112 10.2106 196.832 15.3706 192.992 21.9706C189.272 28.5706 187.412 36.1306 187.412 44.6506C187.412 52.8106 189.032 60.0706 192.272 66.4306C195.632 72.6706 200.252 77.5906 206.132 81.1906C212.012 84.6706 218.612 86.4106 225.932 86.4106C234.092 86.4106 240.572 85.2106 245.372 82.8106C250.292 80.2906 254.252 76.7506 257.252 72.1906C257.252 82.2706 256.052 90.7307 253.652 97.5706C251.252 104.411 247.832 109.571 243.392 113.051C239.072 116.531 234.032 118.271 228.272 118.271C222.992 118.271 218.312 117.071 214.232 114.671C210.272 112.151 207.092 108.671 204.692 104.231C202.292 99.7906 200.912 94.7506 200.552 89.1106L180.392 91.9906C181.352 100.631 183.872 108.251 187.952 114.851C192.152 121.451 197.612 126.611 204.332 130.331ZM244.832 66.7906C241.232 68.9506 237.032 70.0306 232.232 70.0306C227.552 70.0306 223.472 68.9506 219.992 66.7906C216.512 64.6306 213.812 61.6906 211.892 57.9706C209.972 54.1306 209.012 49.7506 209.012 44.8306C209.012 39.7906 209.972 35.3506 211.892 31.5106C213.812 27.6706 216.512 24.6706 219.992 22.5106C223.472 20.2306 227.552 19.0906 232.232 19.0906C237.032 19.0906 241.232 20.1706 244.832 22.3306C248.552 24.4906 251.372 27.5506 253.292 31.5106C255.332 35.3506 256.352 39.7906 256.352 44.8306C256.352 49.7506 255.332 54.1306 253.292 57.9706C251.372 61.6906 248.552 64.6306 244.832 66.7906Z" fill="#020A18"/>
<path d="M375.153 100.63C373.233 106.39 372.213 113.29 372.093 121.33V132.31H456.333V114.67H394.593C394.593 110.59 395.133 107.05 396.213 104.05C397.413 101.05 399.333 98.2303 401.973 95.5903C404.733 92.8303 408.453 90.0103 413.133 87.1303L430.233 77.0503C436.353 73.5703 441.213 70.0303 444.813 66.4303C448.533 62.8303 451.173 58.8703 452.733 54.5503C454.413 50.2303 455.253 45.2503 455.253 39.6103C455.253 32.0503 453.633 25.3303 450.393 19.4503C447.153 13.5703 442.593 9.07033 436.713 5.95033C430.833 2.71033 424.053 1.09033 416.373 1.09033C408.213 1.09033 400.953 2.95033 394.593 6.67034C388.353 10.2703 383.433 15.3703 379.833 21.9703C376.233 28.5703 374.373 36.1903 374.253 44.8303L395.673 48.7903C395.673 39.4303 397.533 32.1703 401.253 27.0103C404.973 21.8503 409.893 19.2703 416.013 19.2703C419.493 19.2703 422.553 20.1103 425.193 21.7903C427.833 23.4703 429.873 25.8103 431.313 28.8103C432.873 31.8103 433.653 35.2903 433.653 39.2503C433.653 42.8503 433.113 45.9703 432.033 48.6103C431.073 51.2503 429.453 53.7103 427.173 55.9903C424.893 58.2703 421.773 60.4903 417.813 62.6503L401.613 72.3703C394.413 76.4503 388.653 80.7703 384.333 85.3303C380.133 89.7703 377.073 94.8703 375.153 100.63Z" fill="#020A18"/>
<path fill-rule="evenodd" clip-rule="evenodd" d="M13.4406 3.31055H15.4406V7.59274C17.3729 7.70767 19.1396 8.13027 20.7406 8.86055C22.6406 9.72721 24.1572 10.9439 25.2906 12.5105C26.4239 14.0772 27.0739 15.9105 27.2406 18.0105L19.6906 19.5605C19.6239 18.4605 19.3406 17.4939 18.8406 16.6605C18.3739 15.7939 17.7239 15.1272 16.8906 14.6605C16.4391 14.3784 15.9558 14.1758 15.4406 14.0529V22.573L18.7906 23.4105C22.3906 24.2105 25.0239 25.4605 26.6906 27.1605C28.3572 28.8272 29.1906 31.0605 29.1906 33.8605C29.1906 36.1605 28.6072 38.1772 27.4406 39.9105C26.3072 41.6439 24.6739 43.0106 22.5406 44.0106C20.5184 44.9269 18.1517 45.4089 15.4406 45.4566V50.8106H13.4406V45.4103C11.2309 45.2638 9.23087 44.7972 7.44058 44.0106C5.27391 43.0106 3.54058 41.5939 2.24058 39.7606C0.940576 37.9272 0.22391 35.7772 0.0905762 33.3105L7.84058 32.0105C7.90724 33.4105 8.27391 34.6439 8.94058 35.7105C9.60724 36.7772 10.4906 37.6105 11.5906 38.2105C12.1761 38.5033 12.7928 38.7204 13.4406 38.862V29.6396L11.3906 29.1105C7.89058 28.2772 5.32391 27.0439 3.69058 25.4105C2.09058 23.7439 1.29058 21.5272 1.29058 18.7605C1.29058 16.5272 1.82391 14.5772 2.89058 12.9105C3.95724 11.2105 5.47391 9.89388 7.44058 8.96055C9.17987 8.13512 11.1799 7.6747 13.4406 7.57926V3.31055ZM11.6406 14.4605C12.1779 14.1919 12.7779 14.0216 13.4406 13.9498V22.0527C12.1229 21.6556 11.1395 21.1749 10.4906 20.6105C9.75724 19.9439 9.39058 19.0772 9.39058 18.0105C9.39058 17.2439 9.59058 16.5439 9.99058 15.9105C10.3906 15.2772 10.9406 14.7939 11.6406 14.4605ZM15.4406 39.0601V30.1557L16.0406 30.3105C17.8406 30.7772 19.1406 31.3605 19.9406 32.0605C20.7406 32.7272 21.1406 33.5939 21.1406 34.6605C21.1406 35.4939 20.8906 36.2439 20.3906 36.9105C19.9239 37.5439 19.2572 38.0606 18.3906 38.4606C17.5488 38.8491 16.5654 39.0489 15.4406 39.0601Z" fill="#020A18"/>
<path d="M478.331 81.1905H461.141V68.2305H510.731V81.1905H493.541V132.31H478.331V81.1905Z" fill="#020A18"/>
<path d="M302.126 132.311C304.166 111.671 308.486 92.3506 315.086 74.3506C321.806 56.3506 331.166 39.3106 343.166 23.2306H286.286V4.87061H365.126V21.2506C353.366 37.8106 344.306 55.2106 337.946 73.4506C331.586 91.6906 327.446 111.311 325.526 132.311H302.126Z" fill="#020A18"/>
<path d="M162.202 134.651C158.362 134.651 155.242 133.451 152.842 131.051C150.442 128.651 149.242 125.591 149.242 121.871C149.242 118.151 150.442 115.151 152.842 112.871C155.242 110.471 158.362 109.271 162.202 109.271C166.042 109.271 169.162 110.471 171.562 112.871C173.962 115.151 175.162 118.151 175.162 121.871C175.162 125.591 173.962 128.651 171.562 131.051C169.162 133.451 166.042 134.651 162.202 134.651Z" fill="#020A18"/>
<path d="M99.1496 114.311H70.3496V132.311H144.33V114.311H120.57V4.87061H101.13C98.9696 10.5106 95.4296 15.3706 90.5096 19.4506C85.7096 23.5306 79.6496 26.5306 72.3296 28.4506L79.5296 47.3506C84.2096 45.5506 88.1696 43.5106 91.4096 41.2306C94.6496 38.9506 97.1696 36.3706 98.9696 33.4906H99.1496V114.311Z" fill="#020A18"/>
</svg>
