<svg width="580" height="466" viewBox="0 0 580 466" fill="none" xmlns="http://www.w3.org/2000/svg">
<g clip-path="url(#clip0_2001_734)">
<path d="M234.834 460.966C227.206 467.9 184.214 466.744 170.576 464.895C169.883 458.731 171.408 445.109 179.359 440.856C187.311 436.603 194.384 437.235 196.464 438.314C202.012 432.997 195.096 424.905 194.153 416.817C191.316 392.501 217.729 382.377 219.579 366.428C221.428 350.479 209.177 340.771 206.635 325.978C200.509 328.405 182.064 329.607 179.475 328.867L181.093 332.565C135.211 329.56 121.156 272.306 116.604 265.88C112.052 259.454 94.2987 251.78 104.122 231.786C103.082 226.586 105.74 218.496 111.056 216.184C110.864 213.256 111.056 208.143 114.755 205.783C124.879 199.32 143.185 210.29 150.466 214.219C167.918 215.26 170.576 234.213 159.25 247.966C164.451 255.479 169.305 261.373 180.631 266.805C190.454 257.79 212.159 249.931 228.246 251.78C222.237 247.966 218.307 239.587 217.729 236.814C216.054 237.565 214.436 238.605 212.991 239.587C209.004 231.035 209.755 218.727 215.88 209.943H212.413C213.106 202.547 219.001 191.798 230.558 188.562C226.859 182.668 225.935 170.926 233.794 167.413C241.653 163.899 247.431 167.991 248.471 172.498C252.979 169.146 261.485 169.84 267.31 173.076C284.229 164.847 296.627 171.419 300.71 175.734C306.258 169.262 319.836 166.452 325.674 173.076C331.684 179.895 328.448 193.532 325.674 197.924C335.613 204.165 340.467 223.195 340.929 230.746L335.613 229.128C337.231 235.369 334.92 246.117 331.452 249.931C348.326 251.78 358.496 261.951 370.747 271.89C376.063 267.498 380.686 261.488 383.922 255.247C375.601 256.865 363.119 251.838 361.963 239.587C361.039 229.787 368.435 222.656 373.983 220.345C376.063 214.682 384.616 205.089 399.64 206.476C411.659 207.586 418.292 217.343 420.905 222.656C429.689 240.512 430.923 268.205 423.91 288.994C410.966 327.364 387.852 343.776 368.898 345.394V338.922C358.173 340.771 335.69 332.527 326.83 327.827C328.448 333.605 314.348 359.493 314.117 364.116C313.885 368.739 319.22 374.518 324.056 382.377C327.754 388.386 341.553 393.297 354.567 397.863C367.742 402.486 377.977 395.315 377.219 387.231C376.461 379.147 364.345 378.703 358.034 374.518C353.182 371.3 352.19 363.612 354.567 358.338C361.963 341.926 404.032 351.635 404.032 389.542C404.032 427.45 351.331 431.61 335.613 413.812L338.618 426.525C339.727 431.518 343.395 436.464 345.09 438.314C371.348 437.019 371.132 455.495 367.742 464.895C358.866 468.039 327.061 464.664 312.267 462.584C304.64 439.7 297.012 432.535 283.143 418.666C280.924 416.447 275.439 411.809 272.511 410.576C257.902 411.501 235.99 430.917 234.834 460.966Z" fill="#020A18"/>
<path d="M242.669 170.171C244.377 171.391 245.301 173.542 245.838 175.509C244.851 175.86 243.871 176.211 242.891 176.569C242.349 174.794 241.659 173.179 240.167 171.995C238.534 171.293 237.258 172.353 236.345 173.61C235.519 174.868 234.256 176.532 234.724 178.104C235.113 180.304 236.123 182.505 237.042 184.526C235.852 185.204 234.656 185.852 233.455 186.487C231.809 183.269 230.884 179.275 231.692 175.7C232.474 172.963 234.287 170.239 237.128 169.351C238.983 168.63 241.042 169.135 242.669 170.171Z" fill="#5C51DA"/>
<path d="M247.328 195.363C249.276 195.202 251.217 195.147 253.171 195.172C256.648 195.246 259.847 194.968 263.182 196.176C259.853 198.278 256.327 199.992 253.122 202.316C251.063 200.318 248.296 198.124 247.328 195.363Z" fill="#5C51DA"/>
<path d="M123.109 207.802C127.923 207.937 131.966 209.62 136.256 211.568C134.955 214.274 133.236 216.776 131.769 219.402C128.385 217.097 124.317 215.155 120.119 215.975C119.065 216.141 118.862 216.943 118.307 217.726C121.808 219.217 125.962 220.376 128.619 223.304C128.792 224.056 128.348 224.919 128.157 225.652C127.288 228.019 126.758 230.454 126.332 232.932C123.435 230.454 120.162 228.648 116.341 228.149C114.189 227.773 112.174 228.438 110.337 229.517C109.887 230.294 110.121 231.434 110.035 232.315C111.465 231.828 112.821 231.52 114.319 231.946C119.663 233.369 123.953 237.462 127.245 241.728C125.882 243.657 124.767 245.746 122.202 246.147C117.58 246.831 113.376 244.205 110.054 241.278C110.091 249.42 115.114 256.058 121.826 260.17C123.176 260.848 124.539 261.489 125.895 262.148C127.078 265.73 128.249 269.323 129.537 272.873C132.268 280.591 135.695 288.4 140.552 295.032C145.107 302.158 150.285 308.784 156.738 314.288C155.857 314.042 155.037 313.992 154.365 313.296C151.986 311.219 150.192 308.858 147.752 306.984C147.573 307.607 147.234 308.242 147.45 308.895C148.972 311.841 152.75 313.524 153.885 316.643C146.001 310.097 139.591 301.338 134.438 292.542C131.017 286.841 128.89 280.628 126.671 274.39C125.235 270.137 123.768 265.637 121.438 261.76C120.563 260.312 119.503 259.227 118.023 258.395C113.715 255.985 109.844 252.255 107.687 247.78C105.979 244.403 106.238 240.39 106.608 236.723C106.867 234.867 108.075 233.912 109.419 232.79C108.87 230.651 109.437 228.525 109.776 226.349C110.602 222.49 112.778 219.686 116.328 217.947C116.353 215.47 116.137 212.406 117.678 210.298C118.979 208.517 120.988 207.907 123.109 207.802Z" fill="#5C51DA"/>
<path d="M399.988 212.455C403.908 214.274 407.563 216.764 410.978 219.396C413.296 221.282 415.743 223.643 416.797 226.497C417.561 228.5 418.122 230.583 418.628 232.667C420.384 240.495 421.654 248.465 422.221 256.471C422.572 261.378 422.708 266.278 422.215 271.178C421.364 283.968 416.877 295.686 410.59 306.738C410.713 303.286 413.542 300.592 414.146 297.134C413.302 297.658 412.316 298.176 411.669 298.94C410.627 300.383 410.516 301.961 408.667 302.657C411.73 296.789 414.707 290.533 416.421 284.129C418.979 274.772 419.287 265.428 419.016 255.787C418.954 246.363 416.667 237.555 415.188 228.352C414.362 229.332 413.53 230.3 412.686 231.261C414.997 233.943 416.902 236.661 416.507 240.402C416.335 242.547 414.837 244.452 414.664 246.517C415.786 250.64 417.265 254.493 417.333 258.851C417.709 264.028 415.706 268.577 413 272.855C412.753 269.613 416.051 266.666 415.767 263.246C415.657 262.087 414.954 261.39 414.177 260.614C413.265 261.618 412.377 262.641 411.453 263.634C410.312 263.467 409.166 263.319 408.02 263.184C408.143 263.967 408.272 264.749 408.414 265.526C409.32 265.187 410.226 264.842 411.132 264.497C411.391 265.058 411.65 265.619 411.915 266.179C410.843 266.469 409.721 267.295 408.636 266.629C408.278 267.024 407.921 267.412 407.557 267.801C404.038 265.039 400.728 262.703 399.199 258.265C397.584 253.544 399.754 248.187 402.552 244.353C398.139 245.241 393.707 245.944 389.232 246.461C389.67 248.169 389.861 250.221 391.396 251.355C392.474 252.052 393.35 251.522 394.478 251.349C393.695 251.762 392.875 252.52 391.963 252.403C389.929 252.2 387.377 252.268 385.941 250.603C383.58 248.218 382.883 244.175 382.797 240.957C383.34 238.917 385.454 237.333 387.223 236.353C391.316 234.263 396.086 233.135 400.543 232.124C403.052 231.557 405.566 231.206 408.112 230.898C404.303 228.58 398.798 228.642 394.527 229.32C388.967 230.195 384.172 232.944 380.233 236.907C379.956 234.245 379.395 231.422 379.604 228.74C380.418 227.076 382.088 225.757 383.58 224.709C388.721 221.276 394.484 220.431 400.549 220.376C397.88 217.639 393.596 216.222 389.892 217.479C384.689 218.693 380.227 221.609 376.861 225.726C377.509 223.483 378.347 220.992 379.98 219.267C382.273 216.764 385.374 214.946 388.419 213.516C391.926 211.981 396.321 210.871 399.988 212.455Z" fill="#5C51DA"/>
<path d="M149.625 218.766C153.366 219.025 157.354 220.498 159.567 223.685C161.09 225.953 160.874 228.53 160.745 231.131C160.184 237.412 157.33 242.922 153.619 247.909C154.926 250.498 156.695 252.655 158.464 254.923C160.498 257.451 162.292 260.07 164.603 262.369C167.186 265.069 170.57 267.202 173.682 269.298C175.365 270.456 177.368 271.319 178.879 272.694C181.985 278.075 183.982 284.22 184.007 290.476C183.569 290.612 183.132 290.748 182.694 290.883C182.891 289.262 183.243 287.758 182.626 286.174C181.597 284.966 180.37 284.991 178.916 284.966C178.607 285.582 178.299 286.199 177.991 286.809C177.122 281.662 174.465 277.465 171.186 273.52C170.459 272.626 169.676 271.788 168.844 270.986C169.922 275.671 170.052 280.54 169.528 285.311C169.448 285.854 169.368 286.396 169.281 286.938C168.548 285.293 168.566 283.635 168.591 281.872C168.197 282.143 167.802 282.42 167.401 282.698C166.865 282.667 166.323 282.636 165.78 282.611C165.639 283.308 165.491 284.004 165.349 284.701C165.176 283.906 164.998 283.117 164.825 282.322C164.449 283.086 164.079 283.844 163.703 284.602C163.235 284.183 162.766 283.764 162.292 283.345C162.6 282.901 162.902 282.451 163.21 282.007C161.78 282.143 160.991 281.995 159.74 281.317C159.105 284.621 157.983 287.894 156.331 290.828C155.844 291.783 155.024 292.209 154.155 292.763C154.661 291.9 155.16 291.031 155.616 290.144C159.53 283.074 160.091 274.888 158.106 267.122C157.428 264.915 156.978 262.037 155.382 260.317C153.44 268.971 148.183 277.341 140.521 282.026C138.604 278.136 136.256 275.048 135.602 270.592C135.072 265.692 136.878 261.642 138.875 257.334C133.032 258.11 128.027 255.09 124.31 250.855C126.541 249.641 128.421 247.94 131.146 248.741C134.992 249.807 138.413 252.156 142.247 253.309C143.073 253.82 144.355 253.037 144.225 252.15C143.566 250.738 142.574 249.512 141.889 248.106C140.829 246.041 140.502 243.44 141.224 241.221C142.21 238.552 145.366 236.814 146.672 234.33C147.702 232.259 147.714 229.88 147.8 227.618C145.366 229.565 142.592 231.957 139.479 232.66C136.866 233.134 133.679 232.173 131.67 230.453C131.392 228.986 132.662 227.186 133.272 225.873C134.314 224.123 135.072 221.928 136.459 220.443C140.355 218.538 145.378 218.403 149.625 218.766Z" fill="#5C51DA"/>
<path d="M374.008 226.946C374.328 234.189 375.882 241.037 377.417 248.07C374.655 247.688 371.82 247.299 369.86 245.093C367.104 241.635 366.396 236.63 368.01 232.537C369.145 229.8 371.45 228.216 374.008 226.946Z" fill="#5C51DA"/>
<path d="M314.817 172.538C316.69 172.538 318.564 173.635 319.865 174.917C322.367 177.586 323.76 181.247 323.427 184.915C323.132 188.422 321.985 192.065 319.766 194.838C318.348 193.55 316.888 192.317 315.396 191.116C316.499 189.852 317.572 188.693 318.336 187.183C319.698 184.736 319.476 181.475 318.163 179.059C317.658 178.406 316.567 177.013 315.655 177.703C311.124 180.088 307.173 182.967 302.107 184.255C305.3 188.41 309.306 191.079 313.109 194.617C317.997 199.036 323.36 203.529 327.243 208.861C330.516 213.096 332.63 217.867 334.535 222.835C333.752 222.255 332.981 221.664 332.186 221.103C330.966 220.511 329.684 220.203 328.346 220.024C328.975 223.624 329.641 227.174 329.684 230.854C329.782 236.34 328.858 241.61 325.566 246.122C325.122 244.63 324.568 243.422 323.686 242.14C321.492 248.489 315.747 252.193 309.288 253.148C315.359 248.883 320.259 243.36 322.25 236.075C324.26 228.216 323.378 219.278 320.08 211.882C320.456 212.029 320.832 212.177 321.208 212.325C323.101 213.533 324.703 215.087 326.67 216.178C325.788 213.749 324.629 211.715 323.039 209.687C321.319 206.957 318.959 204.978 316.561 202.888C313.417 200.263 310.434 197.477 307.346 194.795C308.647 197.532 310.489 199.973 311.802 202.716C314.2 207.511 316.074 212.812 316.512 218.181C317.017 225.652 313.898 233.258 308.11 238.041C307.821 234.984 307.223 232.05 305.688 229.356C305.096 231.729 304.449 234.041 303.21 236.167C300.301 241.431 295.826 245.012 290.808 248.15C291.419 245.012 291.671 241.85 291.32 238.663C290.66 239.415 290.106 240.186 289.674 241.098C288.213 244.106 286.531 246.985 284.891 249.9C283.991 251.478 283.319 253.013 282.025 254.332L281.026 254.412C281.445 250.054 281.569 245.85 281.427 241.48C282.863 235.045 283.153 228.505 284.182 222.015C284.564 219.149 286.5 217.577 287.48 214.908C288.491 212.073 289.169 208.849 288.725 205.841C288.133 202.377 285.791 198.9 282.463 197.544C280.12 196.644 277.784 195.917 275.238 196.176C272.902 195.627 270.616 194.9 268.249 194.475C267.577 194.339 266.905 194.191 266.239 194.037C260.581 191.159 253.474 191.615 247.335 191.911C247.853 190.961 248.136 190.043 249.122 189.464C251.976 187.744 255.57 188.12 258.8 187.633C256.71 187.152 254.664 187.516 252.691 186.752C253.782 186.567 254.812 186.314 255.859 185.956C254.46 184.268 252.519 182.85 250.404 182.221C248.099 181.74 245.43 182.486 243.285 183.331C245.714 185.007 248.457 186.258 251.31 187.035C250.096 188.101 248.087 187.966 246.712 188.903C245.295 189.636 244.857 191.011 243.76 192.015C242.496 192.632 241.214 193.15 240.049 193.963C236.548 195.917 234.631 200.065 233.904 203.856L232.813 204.744C232.591 206.759 232.967 208.609 231.968 210.488C231.173 208.251 230.434 205.755 230.902 203.369C231.907 198.654 234.828 195.208 238.508 192.274C235.574 193.365 232.449 194.389 229.805 196.09C227.746 197.403 226.057 199.233 225.305 201.594C227.308 201.212 229.195 200.509 231.105 199.813C228.979 202.445 226.969 205.169 225.04 207.949C222.556 211.493 221.496 215.771 221.33 220.049C221.268 221.466 221.706 222.674 222.353 223.913C223.567 221.374 224.806 218.902 226.624 216.726C226.717 221.318 226.815 226.576 228.695 230.835C229.299 232.376 230.027 233.708 230.994 235.039C230.711 231.304 231.623 227.809 232.03 224.135C232.215 224.03 232.4 223.932 232.585 223.827C233.651 231.39 237.651 238.676 239.975 245.961C239.544 247.367 239.069 248.76 238.582 250.153C235.895 247.447 234.385 244.174 233.102 240.642C232.597 240.174 232.258 240.247 232.092 240.87C231.179 242.762 230.655 244.735 230.144 246.763C227.925 245.413 226.205 243.157 224.713 241.067C222.217 237.4 221.983 233.03 221.675 228.74C219.178 230.12 217.292 232.124 215.11 233.911C214.802 230.694 214.29 227.556 214.71 224.351C215.27 219.66 217.224 215.019 219.283 210.797C220.023 209.151 221.477 207.684 221.81 205.915C220.386 205.847 219.08 206.014 217.699 206.353C220.972 198.598 227.925 193.291 235.445 189.975C238.379 188.73 241.485 186.918 244.66 186.591C243.371 185.913 242.114 185.667 241.652 184.095C241.023 182.727 242.194 181.303 243.113 180.39C245.547 178.085 249.209 176.606 252.574 176.939C255.946 177.703 257.53 180.23 259.841 182.474C260.211 180.323 260.507 178.381 259.132 176.489C257.819 174.412 255.656 174.522 253.505 173.992C258.029 172.969 263.207 175.059 266.886 177.623C268.951 176.735 270.955 175.774 273.124 175.17C274.684 175.928 276.015 175.361 277.581 175.003C277.334 175.533 277.094 176.063 276.903 176.612C273.605 178.806 271.867 182.055 270.363 185.611C273.79 182.622 277.981 178.8 282.752 178.547C286.968 178.147 290.654 180.255 294.248 182.141C292.83 179.712 290.821 177.882 288.441 176.421C289.995 175.361 291.369 176.55 292.978 175.811C295.986 176.97 297.958 178.603 299.678 181.321C303.296 178.856 306.717 176.088 310.551 173.881C311.907 173.136 313.226 172.507 314.817 172.538Z" fill="#5C51DA"/>
<path d="M274.857 174.659C280.743 173.426 287.357 173.506 292.978 175.811C291.369 176.551 289.995 175.361 288.442 176.421C284.454 174.511 280.848 174.732 276.903 176.612C277.094 176.064 277.334 175.534 277.581 175.004C276.015 175.361 274.684 175.928 273.125 175.17C273.704 174.991 274.277 174.819 274.857 174.659Z" fill="#5C51DA"/>
<path d="M233.904 203.857C233.54 208.27 234.021 213.195 236.887 216.77L235.241 216.653C233.885 214.779 232.837 212.634 231.968 210.489C232.967 208.609 232.591 206.76 232.813 204.745L233.904 203.857Z" fill="#5C51DA"/>
<path d="M245.985 228.414C247.033 229.585 246.91 231.477 247.082 232.981C247.335 235.755 246.817 239.484 244.53 241.364C245.51 237.006 245.819 232.858 245.985 228.414Z" fill="#5C51DA"/>
<path d="M275.393 233.035C277.31 238.749 273.926 244.124 271.726 249.16C270.561 247.175 270.653 244.667 269.174 242.688C267.923 243.631 266.696 244.599 265.377 245.456C261.974 248.038 258.079 248.063 254.208 246.528C254.769 243.083 255.891 239.366 257.925 236.5C259.916 233.898 262.677 233.448 265.771 233.325C264.082 235.674 263.602 238.244 263.306 241.061C265.808 238.977 267.67 235.951 269.895 233.701C271.639 232.339 273.378 232.604 275.393 233.035Z" fill="#5C51DA"/>
<path d="M225.816 256.471C222.876 256.169 219.942 256.219 217.002 256.478C212.046 257.032 206.184 259.196 202.073 262.044C206.203 262.629 209.864 265.686 212.329 268.904C214.061 271.043 215.152 273.502 216.095 276.066C215.628 275.74 215.17 275.411 214.715 275.083C212.75 273.67 210.842 272.298 208.495 271.437C207.16 271.987 205.761 271.599 204.343 271.206C203.569 270.991 202.789 270.775 202.011 270.71C200.747 270.503 199.399 270.57 198.052 270.637C196.062 270.735 194.074 270.833 192.365 270.05C189.092 270.352 185.85 271.622 182.848 272.923C185.831 276.837 186.238 282.551 185.245 287.217C185.197 287.421 185.153 287.632 185.108 287.847C184.91 288.799 184.701 289.808 184.007 290.477L182.694 290.884C182.723 290.644 182.755 290.406 182.788 290.171C182.974 288.816 183.151 287.524 182.626 286.175C181.633 285.01 180.457 284.991 179.07 284.969C179.019 284.969 178.967 284.968 178.915 284.967C178.607 285.583 178.299 286.2 177.991 286.81C179.248 293.331 178.817 300.457 176.252 306.62C180.881 307.939 186.078 307.206 189.616 303.791C196.1 297.393 197.592 286.6 193.148 278.655C197.166 280.159 199.644 283.42 201.469 287.155C202.43 289.197 203.009 291.272 203.602 293.398C203.743 293.903 203.885 294.41 204.033 294.921C205.047 292.932 205.804 290.827 206.559 288.726C207.242 286.829 207.923 284.934 208.791 283.13C208.87 285.042 208.691 286.931 208.511 288.821C208.367 290.338 208.223 291.855 208.212 293.387C208.209 293.605 208.206 293.824 208.203 294.043C208.124 299.72 208.046 305.364 208.871 311.003C209.763 309.147 209.657 306.959 209.551 304.774C209.471 303.106 209.39 301.439 209.753 299.92L210.277 299.39C210.104 300.888 209.981 302.38 210.036 303.89C210.32 303.674 210.604 303.458 210.881 303.243C210.973 302.306 211.09 301.369 211.22 300.432C211.388 300.493 211.549 300.559 211.707 300.624C212.329 300.881 212.897 301.114 213.63 300.913C213.285 300.413 212.94 299.92 212.588 299.427C212.853 299.292 213.117 299.156 213.38 299.02C213.644 298.885 213.907 298.749 214.172 298.614C213.898 301.433 214.467 304.09 215.051 306.822L215.072 306.922L215.972 306.263C215.448 303.532 215.171 300.833 215.276 298.047C216.206 298.977 216.971 300.025 217.686 301.128C221.045 306.14 225.502 310.479 230.581 313.74C230.15 312.981 229.71 312.234 229.272 311.489C227.67 308.766 226.088 306.078 225.076 303.015C223.239 297.362 222.37 291.272 221.779 285.374C221.477 280.048 221.316 274.846 222.598 269.631C223.221 270.735 223.739 271.881 224.189 273.071C227.425 281.355 231.308 289.411 235.857 297.048C236.268 297.692 236.708 298.312 237.15 298.933C237.245 299.067 237.34 299.201 237.435 299.335C237.641 299.553 237.862 299.77 238.085 299.988C238.678 300.57 239.287 301.167 239.691 301.862C239.885 302.533 239.988 303.235 240.089 303.928C240.116 304.113 240.143 304.298 240.171 304.482C240.57 304 240.946 303.5 241.323 303C241.81 302.354 242.297 301.708 242.828 301.104L243.808 301.221C245.246 299.286 246.773 297.427 248.3 295.567C249.123 294.565 249.946 293.563 250.755 292.548C250.927 290.947 251.852 290.054 252.868 289.074C253.123 288.828 253.384 288.577 253.639 288.308C253.891 288.089 254.125 287.859 254.356 287.632C255.18 286.825 255.955 286.065 257.245 286.046L257.837 285.978L258.848 285.941C258.743 287.882 258.164 289.639 257.449 291.433C256.651 293.405 256.109 295.432 255.563 297.47C255.376 298.171 255.188 298.873 254.989 299.575L253.972 298.909C253.565 300.518 253.294 302.139 253.122 303.791C255.06 303.662 257.001 303.475 258.942 303.288C261.809 303.013 264.678 302.737 267.545 302.645C268.47 302.254 269.376 302.306 270.337 302.361C270.451 302.367 270.566 302.374 270.682 302.38C270.738 302.282 270.794 302.184 270.85 302.085C271.102 301.639 271.357 301.191 271.619 300.746C271.932 301.096 272.239 301.45 272.545 301.805C272.699 301.983 272.852 302.16 273.006 302.337C273.072 302.289 273.138 302.242 273.204 302.194C273.362 302.081 273.522 301.967 273.678 301.85C276.168 302.996 279.867 303.89 282.449 302.694C282.005 302.626 281.561 302.56 281.118 302.494C279.034 302.184 276.964 301.876 274.911 301.363C276.129 300.578 277.423 299.965 278.722 299.349C279.31 299.071 279.899 298.792 280.483 298.496C285.087 296.197 289.575 293.701 293.982 291.044C297.433 288.919 300.747 286.509 304.049 284.108C306.043 282.658 308.032 281.211 310.045 279.832C308.177 284.899 305.687 289.762 302.815 294.336C303.752 294.408 304.51 293.653 305.215 292.952C305.478 292.69 305.734 292.435 305.989 292.234C306.338 292.515 306.686 292.794 307.035 293.073C307.383 293.352 307.731 293.63 308.079 293.911C308.664 293.27 309.034 292.555 309.361 291.759C309.921 292.024 310.482 292.283 311.049 292.542C311.456 292.423 311.862 292.306 312.267 292.19C313.543 291.823 314.817 291.456 316.079 291.026C317.811 290.81 320.055 291.155 321.54 292.142C321.765 292.46 321.819 293 321.869 293.502C321.895 293.758 321.92 294.005 321.966 294.206C323.295 292.456 324.371 290.558 325.447 288.661C326.323 287.118 327.198 285.575 328.21 284.11C328.24 289.836 330.225 295.186 333.153 300.031C333.245 299.236 333.35 298.435 333.455 297.64C333.923 294.003 335.267 290.539 337.332 287.513C340.654 282.489 346.264 279.124 352.156 278.082C347.595 283.451 345.425 290.064 345.598 297.085C345.592 300.598 347.108 303.73 349.013 306.59C349.025 305.93 349.031 305.271 349.037 304.611L350.517 304.74C350.683 304.445 350.849 304.147 351.016 303.85C351.182 303.552 351.349 303.255 351.515 302.959L351.518 302.957C351.912 302.767 352.305 302.576 352.699 302.392C352.547 302.194 352.396 301.998 352.245 301.803C352.094 301.607 351.943 301.412 351.792 301.215C352.723 300.759 353.697 300.407 354.677 300.081C354.825 301.085 354.967 302.084 355.109 303.082C355.223 303.177 355.34 303.269 355.458 303.362C355.524 303.415 355.591 303.467 355.657 303.52C355.706 303.502 355.755 303.485 355.803 303.467C357.025 303.028 358.097 302.642 359.01 301.646C359.117 301.897 359.216 302.146 359.313 302.391C359.769 303.544 360.192 304.615 361.316 305.388C358.881 299.902 359.016 293.344 360.866 287.722C362.246 283.469 365.125 280.295 368.583 277.589C368.183 277.342 367.785 277.096 367.388 276.849C363.775 274.607 360.259 272.425 356.076 271.258C348.643 268.873 340.963 268.885 333.313 270.081C328.505 270.944 323.87 272.368 319.74 275.031C321.466 272.041 323.482 269.348 326.102 267.067C328.795 264.392 332.259 262.882 336.032 262.567C339.175 262.216 342.251 262.056 345.382 262.629C343.317 260.774 340.864 260.053 338.257 259.307C331.52 257.612 324.813 256.884 318.089 259.11C312.441 260.705 307.687 264.474 303.042 268.158C301.315 269.528 299.603 270.886 297.865 272.115C294.253 274.55 290.099 276.374 286.024 277.878C289.119 273.336 290.579 268.053 289.008 262.635C288.447 263.446 287.939 264.281 287.432 265.114C286.552 266.562 285.675 268.003 284.533 269.298C279.515 275.234 272.729 278.446 265.301 280.276C260.703 281.922 256.401 283.303 251.562 281.521C245.066 279.999 239.204 275.283 234.895 270.334C231.881 266.703 229.366 262.586 227.597 258.21C227.693 258.156 227.789 258.103 227.885 258.049C228.419 257.751 228.956 257.452 229.483 257.143C229.309 257.105 229.136 257.066 228.963 257.027C227.919 256.792 226.895 256.561 225.816 256.471Z" fill="#5C51DA"/>
<path d="M414.178 260.613C414.954 261.39 415.657 262.086 415.768 263.245C416.051 266.666 412.754 269.613 413 272.855C408.414 280.079 401.283 285.682 393.276 288.677C396.148 283.623 398.62 278.556 400.334 272.984C397.406 275.302 394.182 276.756 390.724 278.082C383.605 280.979 377.854 285.626 373.496 291.956C373.632 290.471 374.513 288.813 374.273 287.34C373.268 286.187 371.253 285.762 369.81 285.447C369.447 286.15 369.12 286.865 368.775 287.574C368.337 287.371 367.9 287.161 367.456 286.958C366.266 289.096 365.502 291.42 364.405 293.602C364.059 294.046 363.597 294.41 363.024 294.693C364.799 288.918 367.906 283.549 372.097 279.179C374.803 276.202 377.922 274.032 380.375 270.845C382.878 267.64 385.004 264.17 387.494 260.952C388.382 261.636 389.263 262.321 390.243 262.882C392.321 264.164 394.497 265.187 396.814 265.957C400.118 267.024 403.65 268.195 407.145 268.238L407.558 267.8C407.921 267.412 408.279 267.024 408.636 266.629C409.721 267.295 410.843 266.469 411.916 266.179C411.65 265.618 411.392 265.057 411.133 264.497C410.227 264.842 409.321 265.187 408.414 265.526C408.273 264.749 408.143 263.966 408.02 263.184C409.166 263.319 410.313 263.467 411.453 263.634C412.378 262.641 413.265 261.618 414.178 260.613Z" fill="#5C51DA"/>
<path d="M192.366 270.05C197.574 269.588 203.578 269.421 208.497 271.437C206.432 272.288 204.213 270.895 202.012 270.71C198.881 270.198 195.232 271.363 192.366 270.05Z" fill="#5C51DA"/>
<path d="M159.74 281.317C160.992 281.995 161.78 282.143 163.211 282.008C162.902 282.452 162.6 282.901 162.292 283.345C162.767 283.764 163.235 284.184 163.704 284.603C164.08 283.845 164.449 283.086 164.825 282.322C164.998 283.117 165.177 283.906 165.349 284.701C165.491 284.005 165.639 283.308 165.781 282.612C166.323 282.636 166.866 282.667 167.402 282.698C167.803 282.421 168.197 282.143 168.592 281.872C168.567 283.635 168.548 285.293 169.282 286.939C168.807 290.773 167.581 294.533 165.99 298.04C164.825 300.641 163.112 302.817 161.75 305.307C157.719 302.891 154.396 299.088 151.604 295.352C152.473 294.502 153.311 293.633 154.156 292.764C155.025 292.209 155.845 291.784 156.332 290.828C157.984 287.894 159.105 284.621 159.74 281.317Z" fill="#5C51DA"/>
<path d="M369.81 285.447C371.252 285.762 373.268 286.187 374.273 287.34C374.513 288.813 373.632 290.471 373.496 291.956C372.75 293.201 371.949 294.409 371.203 295.655C370.698 296.524 370.229 297.411 369.755 298.299C376.072 298.287 382.286 298.613 388.56 297.689C395.538 297.091 402.244 294.94 408.007 290.921C402.133 299.895 393.874 307.773 383.845 311.878C380.153 313.462 376.338 314.115 372.448 314.984C374.032 316.297 375.777 317.333 377.786 317.832C379.216 318.109 380.72 318.042 382.169 318.153C377.7 320.137 372.467 319.792 367.838 318.553C360.49 316.587 353.494 312.926 349.013 306.589C349.026 305.93 349.032 305.27 349.038 304.611C349.531 304.654 350.024 304.697 350.517 304.74C350.85 304.148 351.183 303.55 351.516 302.959C351.91 302.768 352.305 302.577 352.699 302.392C352.397 301.997 352.095 301.609 351.793 301.214C352.724 300.758 353.698 300.407 354.678 300.08C354.826 301.085 354.967 302.083 355.109 303.082C355.288 303.23 355.473 303.372 355.658 303.52C356.94 303.057 358.062 302.681 359.011 301.646C359.621 303.076 359.954 304.45 361.316 305.387C361.828 301.763 361.778 298.225 363.024 294.693C363.597 294.409 364.059 294.046 364.404 293.602C365.501 291.42 366.266 289.096 367.455 286.957C367.899 287.161 368.337 287.37 368.774 287.574C369.12 286.865 369.446 286.15 369.81 285.447Z" fill="#5C51DA"/>
<path d="M257.246 286.045C255.015 288.135 252.858 290.323 250.756 292.548C250.972 290.545 252.365 289.651 253.641 288.308C254.787 287.309 255.594 286.07 257.246 286.045Z" fill="#5C51DA"/>
<path d="M257.838 285.977L258.849 285.94C258.744 287.882 258.165 289.638 257.45 291.432C256.377 294.082 255.767 296.831 254.99 299.574L253.973 298.909C254.947 294.415 257.098 290.52 257.838 285.977Z" fill="#5C51DA"/>
<path d="M316.079 291.026C317.811 290.81 320.055 291.155 321.54 292.141C321.879 292.622 321.83 293.608 321.965 294.206C319.722 297.337 317.047 300.074 314.205 302.657C308.917 307.354 302.771 310.509 296.17 312.938C291.911 314.411 287.392 315.391 283.016 316.482C287.269 311.477 292.114 307.076 296.564 302.268C298.857 299.778 300.78 297.029 302.814 294.336C304.103 294.434 305.052 292.973 305.989 292.234C306.685 292.795 307.382 293.349 308.078 293.91C308.664 293.269 309.034 292.554 309.36 291.759C309.921 292.024 310.482 292.283 311.049 292.542C312.732 292.049 314.415 291.593 316.079 291.026Z" fill="#5C51DA"/>
<path d="M414.146 297.134C413.542 300.592 410.713 303.286 410.59 306.738C406.115 314.757 400.229 322.061 393.664 328.471C387.765 333.785 381.373 338.303 373.767 340.824C374.26 338.481 374.464 336.269 373.323 334.074C369.2 334.093 365.132 334.16 361.051 333.427C353.112 332.422 345.974 329.538 338.837 326.067C332.66 323.109 327.378 318.178 323.797 312.365C329.369 316.587 335.077 320.489 341.425 323.479C351.812 328.428 362.999 330.222 374.427 330.45C375.875 332.207 376.905 333.92 377.595 336.102C388.061 329.84 396.462 321.099 403.508 311.231C405.425 308.482 406.91 305.499 408.667 302.657C410.516 301.961 410.627 300.383 411.669 298.94C412.316 298.176 413.302 297.658 414.146 297.134Z" fill="#5C51DA"/>
<path d="M230.236 297.763L230.569 297.609C232.745 298.114 235.192 299.563 237.436 299.335C238.194 300.136 239.137 300.907 239.692 301.862C239.938 302.713 240.037 303.612 240.173 304.482C241.085 303.378 241.886 302.176 242.829 301.104L243.809 301.221C240.61 305.449 238.231 310.103 235.698 314.738C239.895 314.886 244.198 314.165 248.358 313.616C248.272 321.783 246.805 330.253 247.415 338.414C250.096 334.709 251.68 330.197 253.899 326.197C254.177 326.733 254.3 327.226 254.257 327.688C253.462 329.716 252.303 331.584 251.471 333.606C252.13 333.852 252.796 334.105 253.456 334.352C254.738 332.287 256.772 330.887 258.263 328.958C258.362 329.488 258.461 330.012 258.559 330.536C259.089 329.951 259.539 329.334 259.952 328.662C259.521 328.095 259.096 327.528 258.67 326.955C259.176 327.017 259.687 327.072 260.199 327.134C260.242 326.782 260.285 326.437 260.334 326.092C261.185 326.345 262.036 326.597 262.886 326.85C261.956 328.41 260.982 329.907 260.421 331.652L261.111 331.565C263.047 331.424 264.594 330.635 266.437 330.055C270.536 328.662 274.739 327.639 278.881 326.363C273.87 332.373 268.859 337.957 265.42 345.095C263.626 348.596 262.541 352.319 261.148 355.974C260.698 356.289 260.254 356.609 259.804 356.924C258.929 356.634 258.75 356.776 257.974 357.25C257.653 356.991 257.333 356.726 257.018 356.461C256.895 357.182 256.772 357.91 256.655 358.631C253.252 360.252 250.768 356.8 247.199 358.347C246.645 359.161 246.817 360.449 246.762 361.38C241.448 355.136 235.174 350.606 229.133 345.157C227.031 343.419 225.219 341.378 223.093 339.677C224.788 344.109 227.074 348.325 229.059 352.633C231.864 358.76 235.032 364.789 237.541 371.039C237.035 370.601 236.585 370.12 236.191 369.609C234.089 365.984 232.745 362.009 230.73 358.36C230.372 358.674 230.015 358.982 229.651 359.29C229.176 359.05 228.702 358.81 228.227 358.569C228.042 357.435 228.344 355.327 226.988 354.92C226.711 359.445 227.691 363.864 227.161 368.37C226.84 368.271 226.52 368.173 226.205 368.068C226.92 363.352 225.706 359.044 223.992 354.705C220.991 346.648 216.756 339.067 213.625 331.066C211.48 324.57 209.581 317.826 208.873 311.003C210.444 307.73 208.916 303.428 209.754 299.92L210.278 299.39C210.105 300.888 209.982 302.38 210.038 303.89C210.321 303.674 210.605 303.458 210.882 303.243C210.974 302.306 211.092 301.369 211.221 300.432C212.053 300.734 212.713 301.165 213.631 300.913C213.286 300.413 212.941 299.92 212.589 299.427C213.119 299.156 213.643 298.885 214.173 298.614C213.896 301.467 214.482 304.155 215.073 306.922L215.973 306.263C217.317 312.464 219.536 318.51 222.396 324.175C225.577 330.425 230.039 336.102 234.872 341.169C236.832 343.277 238.712 345.613 240.98 347.394C239.988 345.132 238.767 342.993 237.676 340.768C234.576 334.832 231.913 328.841 230.391 322.283C234.206 323.965 238.243 325.278 242.367 325.889C239.359 320.471 234.798 316.914 232.338 311.139C230.193 306.762 230.415 302.484 230.236 297.763Z" fill="#5C51DA"/>
<path d="M271.62 300.746C272.088 301.27 272.544 301.806 273.007 302.336C273.229 302.176 273.457 302.016 273.679 301.849C276.169 302.996 279.867 303.89 282.45 302.694C283.491 302.651 284.527 302.62 285.569 302.608L285.827 302.706C283.701 305.085 281.766 307.613 279.565 309.924C272.994 316.963 265.974 323.145 261.11 331.565L260.42 331.652C260.981 329.907 261.955 328.409 262.886 326.85C262.035 326.597 261.184 326.345 260.334 326.092C260.285 326.437 260.241 326.782 260.198 327.133C259.687 327.072 259.175 327.016 258.67 326.955C259.095 327.528 259.52 328.095 259.952 328.662C259.539 329.334 259.089 329.95 258.559 330.536C258.46 330.012 258.361 329.488 258.263 328.958C256.771 330.887 254.737 332.286 253.455 334.351C252.795 334.105 252.13 333.852 251.47 333.606C252.302 331.584 253.461 329.716 254.256 327.688C254.299 327.226 254.176 326.733 253.899 326.197C255.871 322.276 257.899 318.344 260.137 314.572L261.055 314.664C262.405 312.753 263.447 310.639 264.809 308.734C265.604 307.348 266.769 306.411 266.387 304.685C266.757 304.001 267.145 303.316 267.546 302.645C268.581 302.207 269.592 302.324 270.683 302.38C270.991 301.837 271.299 301.289 271.62 300.746Z" fill="#5C51DA"/>
<path d="M266.387 304.685C266.769 306.411 265.604 307.348 264.809 308.735C263.447 310.639 262.405 312.754 261.055 314.664L260.137 314.572C262.091 311.188 264.273 307.964 266.387 304.685Z" fill="#5C51DA"/>
<path d="M147.752 306.983C150.193 308.857 151.986 311.218 154.366 313.295C155.038 313.992 155.857 314.041 156.739 314.288C161.201 317.715 165.208 321.148 170.774 322.689C170.552 321.69 170.349 320.692 170.157 319.693C170.731 320.667 171.267 321.703 171.957 322.596C172.974 322.948 174.01 323.09 175.064 323.231C175.384 324.815 175.748 326.375 176.161 327.934C172.13 326.677 167.945 325.617 164.074 323.922C160.48 321.894 156.985 319.36 153.885 316.642C152.751 313.523 148.972 311.841 147.45 308.894C147.234 308.241 147.573 307.606 147.752 306.983Z" fill="#5C51DA"/>
<path d="M170.324 318.029L171.544 318.023C176.506 320.032 181.69 320.267 186.966 319.829C191.287 319.65 195.546 318.621 199.824 318.245C200.132 319.582 200.452 320.908 200.816 322.233C198.93 322.492 197.062 322.837 195.189 323.164C189.912 324.094 184.618 324.557 179.286 323.768C177.88 323.57 176.475 323.404 175.064 323.231C174.01 323.09 172.974 322.948 171.957 322.597C171.267 321.703 170.73 320.667 170.157 319.693C169.997 319.058 170.052 318.504 170.324 318.029Z" fill="#5C51DA"/>
<path d="M316.099 318.098C315.446 320.384 314.583 322.573 313.393 324.631C308.703 332.891 301.466 339.055 293.811 344.46C287.696 348.67 281.576 352.418 276.324 357.743C275.56 357.244 274.801 356.751 274.043 356.252C274.345 355.537 274.654 354.828 274.956 354.113C274.715 353.558 274.475 353.003 274.228 352.449C272.724 353.262 273.692 354.551 272.552 355.685C272.108 355.389 271.67 355.099 271.226 354.809C270.055 355.081 269.236 355.697 268.132 354.846C268.157 353.842 268.693 352.825 269.026 351.888C268.379 352.319 267.725 352.745 267.078 353.17C267.047 352.763 267.023 352.362 266.998 351.956C266.523 352.03 266.049 352.104 265.574 352.178C265.882 352.886 266.197 353.589 266.505 354.292C264.656 353.959 263.528 354.797 261.938 355.561C263.522 353.336 265.395 351.382 267.294 349.428C276.872 339.289 288.861 331.14 301.232 324.798C306.138 322.499 310.983 319.904 316.099 318.098Z" fill="#5C51DA"/>
<path d="M319.784 333.538C317.873 340.509 314.594 346.876 311.038 353.114C309.46 356.066 307.389 359.617 307.493 363.056C307.839 367.124 310.316 370.749 312.166 374.311C314.933 379.668 318.342 384.673 321.128 390.005C324.234 397.383 327.877 404.681 330.287 412.318C332.167 417.828 331.668 423.789 333.036 429.262C334.553 433.04 336.895 436.48 338.645 440.166C334.485 442.262 330.146 444.419 327.44 448.395C333.197 445.578 339.157 443.519 345.611 443.161C349.716 442.977 353.433 442.557 357.205 444.548C362.845 447.544 365.273 454.121 364.638 460.242C363.93 461.474 362 460.907 360.798 461.08C360.601 457.049 360.392 453.344 357.889 449.966C356.952 448.395 355.467 448.351 353.846 447.975C354.863 449.707 356.021 451.181 356.533 453.165C357.316 455.625 357.39 458.14 357.353 460.704C354.844 460.71 352.335 460.574 349.833 460.42C349.352 456.426 348.508 452.321 345.703 449.258C344.698 448.148 343.472 448.234 342.103 447.988C345.272 451.101 346.665 455.736 345.783 460.075C342.362 460.272 338.941 460.371 335.514 460.47C333.129 460.396 330.811 460.402 328.487 459.761C326.386 455.465 324.407 451.094 322.28 446.804C320.715 443.667 318.662 440.832 317.035 437.737C324.025 432.005 328.155 422.235 326.78 413.255C325.64 409.451 323.464 405.864 321.689 402.314C321.473 409.032 320 415.591 316.394 421.329C313.965 425.465 310.076 428.448 305.607 430.088C308.473 433.885 311.007 437.935 313.528 441.966C316.98 447.507 319.599 453.541 321.048 459.921C319.815 459.705 317.96 459.761 316.998 458.861C316.067 457.197 315.784 455.138 315.118 453.35C313.479 448.142 311.013 443.316 308.258 438.619C303.604 430.785 296.127 424.128 289.52 417.914C287.738 416.195 286.308 414.093 284.416 412.527C276.446 406.554 268.082 400.434 261.086 393.339C256.814 389.302 252.869 385.104 249.572 380.216C246.86 376.087 244.943 371.18 242.958 366.65C246.139 367.87 249.344 369.01 252.543 370.188C251.014 367.007 249.048 364.061 246.761 361.38C246.817 360.449 246.644 359.161 247.199 358.347C250.768 356.8 253.252 360.252 256.654 358.631C256.771 357.909 256.894 357.182 257.018 356.461C257.332 356.726 257.653 356.991 257.973 357.25C258.75 356.775 258.929 356.633 259.804 356.923C260.254 356.609 260.698 356.288 261.148 355.974C261.406 355.832 261.671 355.69 261.936 355.561C263.527 354.797 264.655 353.958 266.504 354.291C266.196 353.589 265.881 352.886 265.573 352.177C266.048 352.103 266.522 352.029 266.997 351.955C267.022 352.362 267.046 352.763 267.077 353.169C267.724 352.744 268.378 352.319 269.025 351.887C268.692 352.824 268.156 353.841 268.131 354.846C269.234 355.697 270.054 355.08 271.225 354.809C271.669 355.099 272.107 355.388 272.551 355.684C273.691 354.55 272.723 353.262 274.227 352.448C274.474 353.003 274.714 353.558 274.955 354.112C274.653 354.827 274.344 355.536 274.042 356.251C274.8 356.751 275.559 357.244 276.323 357.743C271.232 362.693 267.299 368.591 265.863 375.63C271.158 371.445 276.804 368.037 282.887 365.115C280.003 370.699 277.981 376.802 277.303 383.064C276.791 387.582 276.878 392.119 277.291 396.637C277.778 395.675 278.221 394.689 278.647 393.697C282.142 386.238 286.16 378.984 290.444 371.944C295.585 364.079 300.744 356.239 306.452 348.768C304.109 348.06 301.681 347.998 299.209 347.585C303.499 344.99 307.783 342.783 311.82 339.732C314.496 337.692 317.152 335.633 319.784 333.538Z" fill="#5C51DA"/>
<path d="M226.988 354.92C228.344 355.327 228.042 357.435 228.227 358.569C228.701 358.809 229.176 359.05 229.651 359.29C230.014 358.982 230.372 358.674 230.729 358.359C232.745 362.008 234.089 365.984 236.19 369.608C236.585 370.12 237.035 370.601 237.54 371.038C238.681 373.72 239.846 376.395 240.949 379.095C237.54 376.345 234.434 373.307 231.278 370.28C233.028 378.91 236.986 386.553 241.756 393.863C240.117 397.907 237.59 401.106 235.167 404.705C229.928 401.777 224.88 398.609 220.497 394.467C219.369 393.382 218.531 392.057 217.606 390.781C217.761 394.64 218.124 398.486 219.671 402.073C221.712 407.115 225.848 411.473 229.977 414.913C228.473 418.173 226.883 421.237 226.526 424.88C220.257 421.822 214.648 417.606 210.376 412.053C209.15 410.468 208.139 408.736 206.869 407.177C207.227 410.518 207.837 413.865 208.891 417.058C211.165 424.288 216.176 429.965 222.445 434.07C220.312 441.923 218.876 449.88 218.038 457.973C217.964 459.249 217.218 459.674 216.152 460.118C208.983 461.542 201.278 460.932 194.005 460.79C193.111 458.103 193.13 455.119 193.863 452.395C194.332 450.533 195.558 449.43 196.723 448C195.164 448.302 193.759 448.604 192.717 449.905C190.307 453.178 190.091 456.962 190.313 460.883C187.718 460.815 185.123 460.753 182.528 460.728C181.912 456.636 183.058 452.247 185.203 448.74C184.254 448.949 183.305 449.153 182.349 449.344C179.65 452.555 179.341 456.327 179.28 460.359C177.954 460.389 176.635 460.42 175.31 460.451C175.051 456.79 175.526 453.172 177.332 449.936C178.916 446.854 181.955 444.752 185.376 444.259C189.21 443.605 193.198 443.704 197.081 443.722C203.121 443.722 208.774 444.918 214.629 446.256C211.178 443.174 206.764 441.263 202.326 440.092C204.293 435.488 204.065 430.674 202.517 425.995C201.617 422.691 199.368 419.955 199.318 416.669C199.14 413.322 199.62 410.086 201.001 407.023C202.955 402.523 204.971 398.085 207.701 394.011C212.145 387.305 218.149 381.24 223.123 374.885C224.313 373.313 225.398 371.476 225.848 369.547L226.205 368.067C226.519 368.172 226.84 368.271 227.16 368.369C227.691 363.864 226.71 359.444 226.988 354.92Z" fill="#5C51DA"/>
<path d="M378.421 355.986C374.889 356.258 371.542 358.119 369.034 360.554C365.755 363.962 365.841 369.103 366.562 373.467C364.38 373.085 361.945 372.814 360.256 371.223C358.333 369.362 357.594 366.317 358.124 363.734C359.061 359.857 361.964 356.541 365.853 355.45C369.817 354.328 374.6 354.384 378.421 355.986Z" fill="#5C51DA"/>
<path d="M390.342 365.775C394.169 369.738 396.647 375.273 398.934 380.229C397.171 378.91 395.692 377.535 393.639 376.654C391.827 375.785 389.497 375.877 387.537 376.056C384.529 376.691 382.31 378.682 380.72 381.246C379.795 379.495 378.889 378.182 377.323 376.943C375.517 375.661 376.682 373.578 377.416 372.031C379.056 368.542 382.205 366.853 385.589 365.405C387.093 364.899 389.183 364.326 390.342 365.775Z" fill="#5C51DA"/>
<path d="M391.174 387.773C394.355 389.025 396.543 392.741 397.979 395.669C396.543 400.791 393.868 405.988 389.954 409.655C390.077 406.881 390.249 404.36 388.727 401.895C386.366 398.196 382.218 396.865 378.002 396.871C379.229 394.837 380.578 393.062 381.423 390.824C381.916 389.764 382.015 388.753 383.272 388.334C385.768 387.373 388.604 386.621 391.174 387.773Z" fill="#5C51DA"/>
<path d="M329.973 393.148C333.48 395.515 337.191 397.537 341.136 399.071C342.443 402.086 341.98 405.821 342.153 409.106C336.088 405.716 332.574 399.349 329.973 393.148Z" fill="#5C51DA"/>
<path d="M374.014 402.492C375.777 402.597 377.583 404.539 378.705 405.808C381.047 408.681 381.059 411.892 380.794 415.412C378.335 416.909 375.592 417.661 372.757 418.007C372.843 415.695 372.972 413.334 372.27 411.097C371.555 408.73 370.186 406.819 368.651 404.921C370.519 404.267 372.22 403.287 374.014 402.492Z" fill="#5C51DA"/>
<path d="M351.109 402.486C351.849 402.795 352.594 403.097 353.34 403.392C355.738 404.434 358.228 404.829 360.768 405.328C363.85 408.342 364.121 414.968 360.996 418.001C358.296 418.481 355.017 417.144 352.403 416.429C352.631 415.196 352.89 413.963 353.02 412.712C353.272 410.808 353.328 408.921 352.983 407.017C352.866 406.141 352.539 405.377 352.194 404.576C351.836 403.879 351.473 403.183 351.109 402.486Z" fill="#5C51DA"/>
<path d="M262.856 408.484C260.914 409.736 258.634 410.284 256.68 411.548C248.876 415.807 242.577 422.322 238.114 429.971C234.934 435.433 233.047 441.331 231.747 447.489C231.093 450.534 230.909 453.647 230.348 456.704C230.249 457.746 229.214 457.961 228.468 458.461C228.295 457.888 228.147 457.308 228.018 456.723C227.685 448.518 229.805 440.894 232.893 433.374C236.296 425.441 241.535 418.371 248.426 413.132C252.716 410.007 257.395 407.8 262.856 408.484Z" fill="#5C51DA"/>
<path d="M216.152 460.119L216.608 460.852C212.287 462.233 208.281 461.475 203.861 461.536C200.656 461.481 197.432 461.851 194.27 461.555L194.005 460.791C201.279 460.932 208.983 461.542 216.152 460.119Z" fill="#5C51DA"/>
<path d="M182.528 460.729C185.123 460.753 187.718 460.815 190.313 460.883L190.307 461.518C187.743 461.702 185.197 461.659 182.633 461.598L182.528 460.729Z" fill="#5C51DA"/>
<path d="M242.644 0.310547C239.094 7.70038 235.072 14.8006 231.243 22.0403C218.565 44.9606 205.888 67.838 193.049 90.6725C215.637 86.5217 238.171 82.1887 260.813 78.3597C257.906 81.5666 254.86 84.6126 252.039 87.8839C235.769 106.718 220.227 126.12 204.247 145.201C189.585 163.037 175.266 181.206 160.154 198.667C155.553 203.772 151.231 209.35 146.104 213.929C139.69 213.575 133.78 214.766 127.635 216.439C134.381 198.699 139.218 180.144 144.946 162.061C148.785 149.909 152.067 137.564 156.079 125.466C139.218 128.469 122.368 131.408 105.326 133.274C120.062 94.4371 133.909 55.2785 148.474 16.3773C179.868 11.1111 211.186 5.16918 242.644 0.310547Z" fill="#68D8FC"/>
<path d="M257.247 286.045L257.838 285.978C257.099 290.52 254.947 294.416 253.974 298.909C253.567 300.518 253.295 302.139 253.123 303.791C257.925 303.471 262.739 302.799 267.546 302.645C267.146 303.316 266.757 304.001 266.388 304.685C264.273 307.964 262.091 311.188 260.137 314.572C257.9 318.344 255.872 322.276 253.9 326.197C251.681 330.197 250.096 334.709 247.415 338.413C246.805 330.252 248.272 321.783 248.358 313.616C244.198 314.165 239.895 314.886 235.698 314.738C238.231 310.103 240.61 305.449 243.809 301.221C246.022 298.244 248.445 295.445 250.756 292.548C252.858 290.323 255.015 288.135 257.247 286.045Z" fill="white"/>
<path d="M243.772 192.873C243.618 194.938 244.493 196.645 245.683 198.254C247.285 200.683 249.578 202.353 251.44 204.517C252.253 205.429 251.809 206.612 251.575 207.66C248.758 209.854 246.207 212.03 242.872 213.46C241.775 213.96 240.443 213.935 239.291 213.67C237.836 212.893 236.831 210.81 237.491 209.238C238.73 207.907 240.622 207.185 242.101 206.125C240.123 205.287 239.019 205.244 236.955 205.842C237.176 203.025 239.007 201.669 241.485 200.763C240.986 198.778 240.462 195.678 241.898 193.989C242.521 193.613 243.149 193.237 243.772 192.873Z" fill="#FEFFFE"/>
<path d="M266.239 194.038C266.904 194.192 267.576 194.34 268.248 194.476C270.615 194.901 272.902 195.628 275.238 196.177C276.674 196.627 278.018 197.286 279.343 197.995C277.087 198.686 273.604 199.16 272.304 201.392C276.039 200.553 279.965 200.972 283.312 202.865C284.705 203.654 285.02 204.973 285.679 206.323C284.366 205.614 283.103 204.88 281.648 204.492C278.757 203.506 275.287 204.634 272.328 205.115C272.538 205.312 272.76 205.503 272.982 205.688C276.027 206.6 280.403 207.278 282.573 209.787C283.935 211.334 283.343 212.85 283.041 214.656C282.203 213.898 281.5 213.004 280.637 212.283C278.998 211.18 276.674 210.939 274.745 210.896C271.724 210.724 269.173 212.376 266.115 212.166C262.09 212.308 259.119 210.181 256.031 207.913C255.433 207.401 254.515 206.754 254.441 205.91C255.852 203.617 258.934 202.218 261.258 201.016C263.409 199.912 266.294 199.018 267.175 196.516C267.447 195.4 266.793 194.901 266.239 194.038Z" fill="white"/>
<path d="M248.277 214.508C248.258 216.992 248.024 219.457 247.728 221.923C247.697 222.515 247.451 222.934 246.982 223.168C245.195 221.51 243.82 219.211 242.495 217.171C244.763 216.924 246.495 215.833 248.277 214.508Z" fill="#FEFEFE"/>
<path d="M273.562 214.212C271.898 217.257 270.271 220.265 269.18 223.575C267.164 221.159 266.227 218.903 266.135 215.735C267.417 215.611 268.076 215.562 269.161 216.326C270.412 214.816 271.442 214.009 273.562 214.212Z" fill="#FEFEFD"/>
<path d="M281.427 241.48C281.569 245.851 281.445 250.054 281.026 254.412L282.025 254.332C281.143 255.472 280.509 256.594 279.954 257.926C278.783 260.761 276.625 263.208 274.412 265.291C272.73 266.912 270.677 267.597 268.581 268.497C269.007 269.23 269.438 269.957 269.87 270.691C265.025 272.257 259.866 272.478 255.101 270.524C252.272 269.131 251.354 266.728 249.763 264.25C249.887 266.327 250.065 268.398 250.09 270.481C246.398 268.836 244.185 265.113 242.49 261.624C241.011 258.542 241.898 255.861 242.089 252.643C243.082 254.104 243.79 255.472 245.646 255.935C248.74 257.05 251.286 255.226 254.306 255.922C258.306 256.773 261.906 258.166 266.116 258.326C269.407 258.413 272.637 257.118 274.918 254.727C278.542 251.034 280.287 246.436 281.427 241.48Z" fill="white"/>
<path d="M248.044 242.77C248.753 245.204 248.913 247.565 251.052 249.26C253.918 251.072 257.308 251.276 260.587 250.801C263.25 250.548 265.383 249.124 267.219 247.275C267.891 246.406 268.465 245.482 269.038 244.551C269.703 246.622 270.474 248.52 270.234 250.746C269.401 252.219 268.526 253.451 266.714 253.686C262.122 253.686 257.561 252.36 253.178 251.812C251.298 251.578 249.782 252.934 248.235 251.448C245.874 249.242 246.583 245.284 248.044 242.77Z" fill="#FEFEFE"/>
<path d="M288.442 176.42C290.821 177.881 292.83 179.712 294.248 182.14C290.655 180.254 286.969 178.146 282.753 178.547C277.982 178.799 273.79 182.621 270.363 185.61C271.867 182.054 273.605 178.805 276.903 176.611C280.848 174.731 284.454 174.509 288.442 176.42Z" fill="#020A18"/>
<path d="M285.212 182.855C287.314 182.744 289.077 183.798 290.421 185.339L290.001 186.689C287.585 186.831 285.169 186.72 282.753 186.819L283.431 187.768C278.814 188.581 274.314 189.913 269.747 190.868C271.473 188.877 273.778 187.7 276.034 186.214C278.931 184.39 281.656 182.769 285.212 182.855Z" fill="#020A18"/>
<path d="M290.42 185.339C291.036 186.134 291.603 186.985 292.17 187.811C289.242 187.534 286.358 187.386 283.43 187.768L282.752 186.819C285.168 186.72 287.584 186.831 290.001 186.689L290.42 185.339Z" fill="#020A18"/>
<path d="M284.478 191.392L284.441 192.119C282.457 192.322 281.107 193.309 279.621 194.523C277.149 192.859 274.419 192.366 271.534 191.946C275.843 191.453 280.139 191.059 284.478 191.392Z" fill="#020A18"/>
<path d="M297.965 192.428C300.221 194.21 301.922 196.848 303.618 199.159C305.861 202.5 308.401 206.402 308.727 210.501C308.888 214.193 308.881 217.681 306.749 220.874C304.819 218.298 304.209 215.456 302.841 212.602C302.582 215.66 302.212 218.538 300.56 221.201C298.594 224.899 295.346 227.47 291.327 228.616C292.214 226.107 293.663 223.851 294.569 221.343C295.364 221.01 295.851 220.468 296.036 219.716C296.899 217.071 297.238 214.18 296.961 211.413C296.954 210.766 296.585 210.31 295.845 210.044C295.358 208.232 294.816 206.365 293.675 204.842C292.763 203.659 291.654 202.617 290.661 201.495C294.735 201.927 297.83 203.141 300.733 206.081C300.19 202.075 300.16 198.179 298.563 194.376C298.354 193.729 298.156 193.082 297.965 192.428Z" fill="#020A18"/>
<path d="M295.845 210.044C296.584 210.309 296.954 210.765 296.96 211.412C297.238 214.18 296.899 217.071 296.036 219.715C295.851 220.467 295.364 221.009 294.569 221.342C295.931 217.57 296.313 214.038 295.845 210.044Z" fill="#020A18"/>
<path d="M323.039 209.687C324.629 211.714 325.788 213.748 326.669 216.177C324.703 215.086 323.1 213.533 321.208 212.325C322.354 212.195 323.069 212.516 324.05 213.046C323.507 211.949 323.224 210.895 323.039 209.687Z" fill="#020A18"/>
<path d="M328.347 220.023C329.684 220.202 330.966 220.51 332.187 221.102C331.336 221.219 330.486 221.33 329.635 221.441C329.875 224.338 331.194 228.233 329.684 230.853C329.641 227.173 328.975 223.623 328.347 220.023Z" fill="#020A18"/>
<path d="M394.528 229.318C398.799 228.64 404.304 228.578 408.113 230.896C405.567 231.204 403.052 231.556 400.544 232.123L399.927 231.395C401.228 231.062 402.504 230.68 403.724 230.119C400.71 229.682 397.302 230.526 394.528 229.318Z" fill="#020A18"/>
<path d="M222.6 269.631C223.222 270.734 223.74 271.881 224.19 273.07C227.426 281.354 231.309 289.411 235.858 297.048C235.525 297.35 235.199 297.652 234.866 297.948C233.806 297.621 232.752 297.294 231.667 297.054L230.57 297.609L230.237 297.763C230.416 302.484 230.194 306.762 232.339 311.138C234.798 316.914 239.359 320.47 242.367 325.888C238.244 325.278 234.206 323.965 230.391 322.282C231.913 328.841 234.576 334.832 237.677 340.768C237.436 341.064 237.196 341.366 236.956 341.662C236.265 341.477 235.575 341.304 234.872 341.168C230.04 336.102 225.577 330.425 222.397 324.175C219.536 318.51 217.318 312.463 215.974 306.263C215.45 303.532 215.172 300.832 215.277 298.046C216.208 298.977 216.972 300.025 217.687 301.128C221.047 306.139 225.503 310.479 230.582 313.739C228.579 310.207 226.366 306.916 225.078 303.014C223.241 297.362 222.372 291.272 221.78 285.373C221.478 280.048 221.318 274.845 222.6 269.631Z" fill="#020A18"/>
<path d="M245.683 198.252C247.976 199.226 249.634 201.569 251.446 203.282C252.691 204.299 253.394 206.882 251.576 207.658C251.81 206.611 252.254 205.427 251.44 204.515C249.579 202.351 247.286 200.681 245.683 198.252Z" fill="#020A18"/>
<path d="M231.272 224.579L232.03 224.135C231.623 227.808 230.711 231.303 230.994 235.039C230.027 233.707 229.299 232.376 228.695 230.835C229.25 231.038 229.799 231.248 230.347 231.47C230.372 229.121 230.544 226.822 231.272 224.579Z" fill="#020A18"/>
<path d="M269.173 242.688C270.653 244.667 270.56 247.176 271.725 249.161C271.429 249.882 271.109 250.591 270.788 251.306L270.234 250.745C270.474 248.519 269.703 246.621 269.038 244.55C268.465 245.481 267.891 246.405 267.219 247.274C266.689 246.596 266.073 245.992 265.376 245.456C266.696 244.599 267.922 243.632 269.173 242.688Z" fill="#020A18"/>
<path d="M126.758 262.252C127.726 264.761 128.583 267.313 129.452 269.858C129.859 270.882 129.674 271.819 129.538 272.873C128.25 269.322 127.079 265.729 125.896 262.147L126.758 262.252Z" fill="#020A18"/>
<path d="M336.032 262.567C339.176 262.216 342.252 262.055 345.383 262.629C342.812 263.51 338.609 263.467 336.032 262.567Z" fill="#020A18"/>
<path d="M397.399 265.186L396.814 265.956C394.496 265.186 392.32 264.163 390.243 262.881C392.635 262.554 395.051 264.65 397.399 265.186Z" fill="#020A18"/>
<path d="M158.107 267.122C160.092 274.888 159.531 283.074 155.617 290.144C155.075 288.732 155.82 287.826 156.289 286.544C158.452 281.224 158.656 275.529 157.737 269.92C157.515 268.724 157.583 268.219 158.107 267.122Z" fill="#020A18"/>
<path d="M168.845 270.986C169.677 271.788 170.46 272.626 171.187 273.52C169.899 277.699 171.131 282.383 170.41 286.729C170.114 286.26 169.819 285.786 169.529 285.311C170.053 280.54 169.923 275.671 168.845 270.986Z" fill="#020A18"/>
<path d="M263.737 279.968C264.261 279.992 264.779 280.097 265.303 280.276C260.704 281.922 256.402 283.302 251.563 281.521C253.172 280.72 254.547 281.49 256.254 281.546C258.732 281.626 261.426 280.455 263.737 279.968Z" fill="#020A18"/>
<path d="M337.333 287.512C337.758 289.028 336.815 290.008 336.254 291.352C335.089 293.534 334.701 295.882 334.362 298.305L333.456 297.639C333.925 294.002 335.268 290.538 337.333 287.512Z" fill="#020A18"/>
<path d="M371.204 295.654C371.42 296.252 371.635 296.856 371.851 297.454C375.611 297.571 379.537 297.762 383.267 297.263C385.146 297.065 386.823 296.696 388.561 297.688C382.286 298.612 376.073 298.286 369.755 298.298C370.23 297.411 370.698 296.523 371.204 295.654Z" fill="#020A18"/>
<path d="M231.666 297.054C232.751 297.294 233.805 297.621 234.866 297.947C235.198 297.651 235.525 297.349 235.858 297.047C236.357 297.83 236.9 298.576 237.436 299.334C235.192 299.562 232.745 298.114 230.569 297.608L231.666 297.054Z" fill="#020A18"/>
<path d="M280.484 298.495C280.749 299.79 278.517 300.4 277.716 301.17C280.515 301.503 283.005 301.269 285.569 302.606C284.527 302.619 283.492 302.65 282.45 302.693C279.917 302.304 277.402 301.984 274.912 301.361C276.681 300.221 278.61 299.444 280.484 298.495Z" fill="#020A18"/>
<path d="M171.544 318.022C175.07 317.69 178.182 319.101 181.665 319.138C183.539 319.231 185.246 318.898 186.966 319.828C181.69 320.266 176.506 320.032 171.544 318.022Z" fill="#020A18"/>
<path d="M195.189 323.163C195.602 323.44 196.015 323.718 196.434 323.989C193.346 324.229 190.301 324.901 187.225 324.907C184.353 324.901 181.524 324.895 178.67 324.704L179.286 323.767C184.618 324.556 189.913 324.094 195.189 323.163Z" fill="#020A18"/>
<path d="M236.955 341.661C237.195 341.365 237.436 341.063 237.676 340.768C238.767 342.993 239.988 345.132 240.98 347.394C238.712 345.612 236.832 343.276 234.872 341.168C235.574 341.304 236.265 341.476 236.955 341.661Z" fill="#020A18"/>
<path d="M223.993 354.704C225.706 359.043 226.921 363.351 226.206 368.067L225.848 369.546C225.022 366.544 225.854 363.53 224.948 360.51C224.597 358.624 223.278 356.54 223.993 354.704Z" fill="#020A18"/>
<path d="M308.702 376.247C309.134 376.925 309.559 377.615 309.978 378.306C308.036 380.574 307.882 384.106 306.606 386.806L305.756 386.448C306.742 383.742 307.667 380.993 308.308 378.189C308.443 377.541 308.579 376.894 308.702 376.247Z" fill="#020A18"/>
<path d="M309.979 378.305C311.556 381.066 313.128 383.834 314.7 386.601C315.557 387.865 314.879 389.289 314.694 390.663C313.584 395.687 311.92 400.821 309.849 405.524C307.501 410.733 304.024 415.393 299.599 419.017C300.973 414.912 302.046 410.726 303.248 406.566C299.253 408.23 295.272 409.74 290.938 410.203C297.232 403.2 302.446 395.305 305.756 386.447L306.607 386.805C307.883 384.105 308.037 380.573 309.979 378.305Z" fill="#020A18"/>
<path d="M277.303 383.063C278.739 386.509 276.711 390.645 278.647 393.696C278.222 394.688 277.778 395.675 277.291 396.636C276.878 392.118 276.792 387.582 277.303 383.063Z" fill="#020A18"/>
<path d="M206.869 407.176C208.139 408.736 209.15 410.468 210.376 412.052C209.822 412.033 209.273 412.015 208.718 411.996C208.897 413.593 209.809 415.615 208.891 417.057C207.837 413.864 207.227 410.517 206.869 407.176Z" fill="#020A18"/>
<path d="M352.983 407.016C353.328 408.921 353.272 410.807 353.02 412.712C352.181 410.443 352.157 409.303 352.983 407.016Z" fill="#020A18"/>
<path d="M335.515 460.468C338.942 460.37 342.363 460.271 345.784 460.074L345.519 460.863C342.277 461.072 338.653 461.448 335.515 460.468Z" fill="#020A18"/>
</g>
<defs>
<clipPath id="clip0_2001_734">
<rect width="580" height="466" fill="white"/>
</clipPath>
</defs>
</svg>
