<svg width="742" height="548" viewBox="0 0 742 548" fill="none" xmlns="http://www.w3.org/2000/svg">
<path d="M155.222 296.937C155.222 296.937 211.722 292.937 249.222 306.937C286.722 320.937 288.722 331.427 288.722 341.937C288.722 352.937 274.222 360.937 253.722 355.437C233.222 349.937 229.012 340.197 200.117 331.777C173.222 323.937 161.222 323.437 135.222 331.437C109.222 339.437 104.222 299.937 155.222 296.937Z" fill="#DECFFF" style="fill:#DECFFF;fill:color(display-p3 0.8715 0.8127 1.0000);fill-opacity:1;"/>
<path d="M206.443 300.312C210.153 300.187 213.823 299.777 217.483 299.287C207.603 297.852 197.763 297.092 188.913 296.717C192.998 300.692 201.428 300.477 206.448 300.312H206.443Z" fill="#020A18" style="fill:#020A18;fill:color(display-p3 0.0078 0.0392 0.0941);fill-opacity:1;"/>
<path d="M167.343 318.852C165.473 318.647 161.633 318.842 159.803 318.637C154.213 318.682 148.618 318.947 143.108 319.172C142.378 319.202 141.818 318.967 141.418 318.587C136.788 319.462 132.193 320.752 127.843 322.492C124.563 323.807 121.063 325.492 118.288 327.882C121.318 331.897 127.288 333.882 135.218 331.442C161.218 323.442 173.218 323.942 200.113 331.782C206.118 333.532 211.053 335.342 215.298 337.157C212.233 335.487 209.198 333.872 206.208 332.342C193.393 325.782 181.878 320.447 167.338 318.857L167.343 318.852Z" fill="#020A18" style="fill:#020A18;fill:color(display-p3 0.0078 0.0392 0.0941);fill-opacity:1;"/>
<path d="M180.863 306.187C180.863 306.187 214.218 288.662 223.303 263.592L231.293 243.307C231.293 243.307 271.698 278.792 308.633 280.977C310.833 281.107 313.028 281.302 315.228 281.497C325.438 282.397 350.633 285.687 357.363 266.367C365.663 242.537 332.363 241.007 321.913 240.012C305.938 238.492 287.913 231.887 271.208 222.517C254.508 213.147 235.133 204.187 223.548 213.137C212.183 221.917 180.858 306.187 180.858 306.187H180.863Z" fill="#DECFFF" style="fill:#DECFFF;fill:color(display-p3 0.8715 0.8127 1.0000);fill-opacity:1;"/>
<path d="M257.053 251.642C252.878 244.857 249.793 237.912 246.443 230.502C244.588 226.397 241.883 221.937 238.963 217.997C236.558 214.747 234.463 212.082 230.923 209.862C228.233 210.387 225.753 211.442 223.553 213.137C212.188 221.917 180.863 306.187 180.863 306.187C180.863 306.187 214.218 288.662 223.303 263.592L231.293 243.307C231.293 243.307 251.483 261.037 276.368 272.202C268.778 266.532 262.053 259.762 257.058 251.642H257.053Z" fill="#020A18" style="fill:#020A18;fill:color(display-p3 0.0078 0.0392 0.0941);fill-opacity:1;"/>
<path d="M317.948 240.037C314.803 240.182 309.183 240.457 311.528 244.207C314.718 249.312 337.948 252.872 348.828 251.507C348.828 251.507 354.868 250.972 351.918 247.757" stroke="#020A18" style="stroke:#020A18;stroke:color(display-p3 0.0078 0.0392 0.0941);stroke-opacity:1;" stroke-width="0.5" stroke-linecap="round" stroke-linejoin="round"/>
<path d="M69.0227 262.082C83.8977 244.967 103.063 227.417 116.848 215.442C136.323 198.522 164.068 194.462 187.268 205.747C200.988 212.422 216.858 222.612 225.473 250.192C228.973 260.692 225.363 281.052 195.973 302.192C167.473 322.692 154.233 329.192 136.723 334.442C121.553 338.992 101.408 339.652 92.2727 330.207C72.1377 336.397 51.7627 330.537 43.9827 315.137C35.0027 297.357 46.2127 273.602 69.0227 262.087V262.082Z" fill="#DECFFF" style="fill:#DECFFF;fill:color(display-p3 0.8715 0.8127 1.0000);fill-opacity:1;"/>
<path d="M104.862 330.137C106.707 328.717 108.542 327.282 110.427 325.937C114.382 323.117 118.237 320.172 121.947 317.047C119.077 318.832 116.067 320.302 113.087 321.952C110.387 323.442 106.887 325.442 101.382 327.182C98.3425 328.142 95.3775 329.232 92.4175 330.347C94.0625 332.007 96.0525 333.342 98.2925 334.402C100.447 332.922 102.647 331.522 104.862 330.142V330.137Z" fill="#020A18" style="fill:#020A18;fill:color(display-p3 0.0078 0.0392 0.0941);fill-opacity:1;"/>
<path d="M171.068 210.542C162.818 204.507 150.318 202.362 139.593 205.222C129.678 209.397 120.908 216.152 114.613 224.862C110.348 230.762 105.323 237.942 100.298 245.617C95.6478 258.337 91.1328 271.552 90.1528 284.677C94.2328 283.462 98.2128 281.977 101.968 280.482C122.633 272.242 143.133 261.322 158.153 245.447C165.528 237.652 172.228 229.312 178.213 220.602C177.278 216.612 174.628 213.142 171.068 210.537V210.542Z" fill="#020A18" style="fill:#020A18;fill:color(display-p3 0.0078 0.0392 0.0941);fill-opacity:1;"/>
<path d="M205.383 206.937C205.383 206.937 204.383 198.937 215.883 198.437C227.383 197.937 235.883 215.937 243.383 232.937C249.513 246.827 255.883 272.937 251.883 286.937C247.883 300.937 227.788 297.997 220.883 284.937C202.383 249.937 205.383 206.937 205.383 206.937Z" fill="#DECFFF" style="fill:#DECFFF;fill:color(display-p3 0.8715 0.8127 1.0000);fill-opacity:1;"/>
<path d="M221.273 216.167C220.388 214.492 219.538 212.787 218.583 211.122C216.238 207.027 212.778 203.162 209.043 200.187C204.868 202.682 205.388 206.937 205.388 206.937C205.388 206.937 202.943 241.502 216.093 274.077C218.388 272.437 221.668 269.647 225.388 260.437C231.238 245.967 227.888 230.437 221.663 216.992C221.538 216.717 221.408 216.442 221.278 216.162L221.273 216.167Z" fill="#020A18" style="fill:#020A18;fill:color(display-p3 0.0078 0.0392 0.0941);fill-opacity:1;"/>
<path d="M249.823 273.647C250.388 282.727 246.553 289.332 241.553 289.497C236.553 289.662 232.543 283.652 231.978 274.572C231.413 265.492 234.908 259.457 240.013 258.927C244.988 258.407 249.258 264.572 249.823 273.652V273.647Z" stroke="#020A18" style="stroke:#020A18;stroke:color(display-p3 0.0078 0.0392 0.0941);stroke-opacity:1;" stroke-width="0.5" stroke-miterlimit="10"/>
<path d="M173.383 202.437C173.383 202.437 178.958 192.997 190.383 191.937C201.808 190.877 210.883 200.937 218.883 220.937C226.883 240.937 226.383 276.937 205.883 277.937C183.858 279.012 182.383 253.437 183.883 236.937C185.383 220.437 173.383 202.437 173.383 202.437Z" fill="#DECFFF" style="fill:#DECFFF;fill:color(display-p3 0.8715 0.8127 1.0000);fill-opacity:1;"/>
<path d="M216.823 273.077C214.168 275.942 210.223 277.722 205.883 277.937C183.858 279.012 182.383 253.437 183.883 236.937C185.383 220.437 173.383 202.437 173.383 202.437" stroke="#020A18" style="stroke:#020A18;stroke:color(display-p3 0.0078 0.0392 0.0941);stroke-opacity:1;" stroke-width="0.5" stroke-linecap="round" stroke-linejoin="round"/>
<path d="M184.933 202.362C182.283 200.832 179.473 199.572 176.563 198.557C174.438 200.657 173.383 202.437 173.383 202.437C173.383 202.437 185.383 220.437 183.883 236.937C183.403 242.207 183.228 248.402 183.928 254.362C187.228 251.047 190.138 247.542 192.413 243.377C195.383 237.937 197.383 231.437 196.883 221.937C196.883 221.892 196.883 221.847 196.878 221.802C196.428 213.742 191.923 206.397 184.938 202.357L184.933 202.362Z" fill="#020A18" style="fill:#020A18;fill:color(display-p3 0.0078 0.0392 0.0941);fill-opacity:1;"/>
<path d="M217.592 260.582C215.677 269.262 209.932 274.352 204.767 273.067C199.547 271.767 197.147 264.982 199.062 256.302C200.977 247.622 206.217 242.967 211.592 243.942C216.832 244.892 219.507 251.902 217.592 260.582Z" stroke="#020A18" style="stroke:#020A18;stroke:color(display-p3 0.0078 0.0392 0.0941);stroke-opacity:1;" stroke-width="0.5" stroke-miterlimit="10"/>
<path d="M141.133 302.687C141.133 302.687 119.633 322.687 92.6328 330.187" stroke="#020A18" style="stroke:#020A18;stroke:color(display-p3 0.0078 0.0392 0.0941);stroke-opacity:1;" stroke-width="0.5" stroke-linecap="round" stroke-linejoin="round"/>
<path d="M74.7577 292.092C65.5927 293.232 56.3077 290.697 45.8877 283.712C45.8877 283.712 67.7227 250.937 118.223 203.437C118.223 203.437 140.898 180.032 173.223 197.437C202.473 213.187 191.473 243.187 185.223 251.437C179.633 258.812 167.973 272.187 150.473 269.187C136.593 266.807 140.973 243.687 156.973 234.687C156.973 234.687 144.973 237.187 136.473 231.687C136.473 231.687 133.353 252.927 107.473 274.687C95.6977 284.587 85.3077 290.782 74.7577 292.092Z" fill="#DECFFF" style="fill:#DECFFF;fill:color(display-p3 0.8715 0.8127 1.0000);fill-opacity:1;"/>
<path d="M185.223 251.937C179.633 259.312 167.973 272.187 150.473 269.187C136.593 266.807 140.973 243.687 156.973 234.687C156.973 234.687 144.973 237.187 136.473 231.687C136.473 231.687 133.353 252.927 107.473 274.687C95.6978 284.587 85.3078 290.782 74.7578 292.092" stroke="#020A18" style="stroke:#020A18;stroke:color(display-p3 0.0078 0.0392 0.0941);stroke-opacity:1;" stroke-width="0.5" stroke-miterlimit="10"/>
<path d="M153.448 267.202C153.448 267.202 150.788 262.017 158.983 254.572C166.678 247.582 175.963 245.262 177.818 250.367C179.128 253.962 175.033 258.722 175.033 258.722" stroke="#020A18" style="stroke:#020A18;stroke:color(display-p3 0.0078 0.0392 0.0941);stroke-opacity:1;" stroke-width="0.465" stroke-miterlimit="10"/>
<path d="M208.633 351.187C208.633 351.187 220.133 353.687 233.133 363.687C246.308 373.822 262.133 374.687 273.633 372.187" stroke="#020A18" style="stroke:#020A18;stroke:color(display-p3 0.0078 0.0392 0.0941);stroke-opacity:1;" stroke-width="0.5" stroke-linecap="round" stroke-linejoin="round"/>
<path d="M586.805 298.251C586.805 298.251 530.305 294.251 492.805 308.251C455.305 322.251 453.305 332.741 453.305 343.251C453.305 353.761 467.805 362.251 488.305 356.751C508.805 351.251 513.015 341.511 541.91 333.091C568.805 325.251 580.805 324.751 606.805 332.751C632.805 340.751 637.805 301.251 586.805 298.251Z" fill="#DECFFF" style="fill:#DECFFF;fill:color(display-p3 0.8715 0.8127 1.0000);fill-opacity:1;"/>
<path d="M586.805 298.251C586.805 298.251 556.87 296.136 526.12 300.381C539.135 300.846 551.91 302.781 563.785 308.656C576.105 314.751 586.715 323.681 598.66 330.416C601.23 331.091 603.93 331.866 606.805 332.751C632.805 340.751 637.805 301.251 586.805 298.251Z" fill="#020A18" style="fill:#020A18;fill:color(display-p3 0.0078 0.0392 0.0941);fill-opacity:1;"/>
<path d="M625.295 318.151C611.635 317.436 598.19 316.931 584.4 317.936C575.97 318.551 568.295 319.846 561.125 321.666C554.325 323.391 547.745 325.896 541.435 328.966C533.14 333.006 525.195 337.671 517.52 342.896C523.6 339.636 530.99 336.266 541.91 333.086C568.805 325.246 580.805 324.746 606.805 332.746C620.49 336.956 628.35 328.006 625.295 318.146V318.151Z" fill="#020A18" style="fill:#020A18;fill:color(display-p3 0.0078 0.0392 0.0941);fill-opacity:1;"/>
<path d="M561.055 307.001C561.055 307.001 527.65 289.721 518.555 265.001L510.555 245.001C510.555 245.001 470.095 279.496 433.105 281.651C430.9 281.781 428.7 281.971 426.5 282.166C416.275 283.051 388.465 283.846 384.805 266.756C380.035 244.491 409.34 242.736 419.805 241.756C435.805 240.256 453.855 234.731 470.58 225.491C487.305 216.251 505.805 208.256 518.305 215.256C530.805 222.256 561.055 307.006 561.055 307.006V307.001Z" fill="#DECFFF" style="fill:#DECFFF;fill:color(display-p3 0.8715 0.8127 1.0000);fill-opacity:1;"/>
<path d="M537.26 247.211C530.615 242.296 522.715 239.321 514.185 239.691C509.425 239.896 504.85 241.256 500.475 243.216C489.275 250.421 479.685 260.166 469.185 268.231C463.435 272.646 457.04 275.916 450.36 278.571C481.645 269.646 510.56 245.001 510.56 245.001L518.56 265.001C527.655 289.721 561.06 307.001 561.06 307.001C561.06 307.001 549.2 273.771 537.265 247.211H537.26Z" fill="#020A18" style="fill:#020A18;fill:color(display-p3 0.0078 0.0392 0.0941);fill-opacity:1;"/>
<path d="M423.97 241.486C427.12 241.551 432.755 242.176 430.51 245.986C427.455 251.171 404.33 255.351 393.415 254.271C393.415 254.271 387.35 253.396 390.215 250.101" stroke="#020A18" style="stroke:#020A18;stroke:color(display-p3 0.0078 0.0392 0.0941);stroke-opacity:1;" stroke-width="0.5" stroke-linecap="round" stroke-linejoin="round"/>
<path d="M673.005 263.396C658.13 246.281 638.965 228.731 625.18 216.756C605.705 199.836 577.96 195.776 554.76 207.061C541.04 213.736 525.17 223.926 516.555 251.506C513.055 262.006 516.665 282.366 546.055 303.506C574.555 324.006 587.795 330.506 605.305 335.756C620.475 340.306 640.62 340.966 649.755 331.521C669.89 337.711 690.265 331.851 698.045 316.451C707.025 298.671 695.815 274.916 673.005 263.401V263.396Z" fill="#DECFFF" style="fill:#DECFFF;fill:color(display-p3 0.8715 0.8127 1.0000);fill-opacity:1;"/>
<path d="M663.695 270.071C651.745 256.906 639.495 244.096 625.12 233.531C618.155 228.411 610.94 223.466 603.53 219.016C596.2 214.611 588.615 210.641 581.535 205.831C579.3 214.741 579.03 224.061 579.145 233.311C579.345 234.066 579.57 234.811 579.82 235.546C581.305 239.906 583.68 244.051 585.72 248.186C589.73 253.821 594.39 260.186 599.31 263.751C637.31 291.251 664.985 290.561 675.185 286.346C671.35 280.926 668.19 275.016 663.7 270.071H663.695Z" fill="#020A18" style="fill:#020A18;fill:color(display-p3 0.0078 0.0392 0.0941);fill-opacity:1;"/>
<path d="M611.305 312.251C620.305 322.251 630.415 331.066 642.17 336.391C645.035 335.256 647.55 333.716 649.56 331.706C646.76 330.546 643.965 329.886 641.165 328.731C631.06 324.561 621.305 319.246 611.305 312.246V312.251Z" fill="#020A18" style="fill:#020A18;fill:color(display-p3 0.0078 0.0392 0.0941);fill-opacity:1;"/>
<path d="M491.395 258.636C490.305 264.786 489.78 271.126 490.055 277.501C490.055 277.501 490.055 295.501 504.055 297.501C518.055 299.501 526.555 282.501 529.055 264.501C530.93 251.006 534.21 224.581 535.735 212.201C536.46 206.311 532.605 200.706 526.78 199.576C524.115 199.056 521.225 199.501 518.56 202.001C516.475 203.956 513.435 207.686 510.105 212.736C510.105 212.736 495.81 233.251 491.4 258.636" fill="#DECFFF" style="fill:#DECFFF;fill:color(display-p3 0.8715 0.8127 1.0000);fill-opacity:1;"/>
<path d="M491.055 258.501C494.53 240.136 502.91 223.711 509.945 212.971" stroke="#020A18" style="stroke:#020A18;stroke:color(display-p3 0.0078 0.0392 0.0941);stroke-opacity:1;" stroke-width="0.5" stroke-linecap="round" stroke-linejoin="round"/>
<path d="M531.99 202.181C525.305 203.251 519.085 216.481 516.805 223.751C503.305 266.751 525.305 276.751 525.875 276.581C530.18 275.311 528.4 269.201 529.055 264.501C530.93 251.006 534.21 224.581 535.735 212.201C536.21 208.346 534.71 204.621 531.99 202.181Z" fill="#020A18" style="fill:#020A18;fill:color(display-p3 0.0078 0.0392 0.0941);fill-opacity:1;"/>
<path d="M494.265 275.461C493.7 284.541 497.535 291.146 502.535 291.311C507.585 291.476 511.545 285.466 512.11 276.386C512.675 267.306 509.18 261.271 504.075 260.741C499.1 260.221 494.83 266.386 494.265 275.466V275.461Z" stroke="#020A18" style="stroke:#020A18;stroke:color(display-p3 0.0078 0.0392 0.0941);stroke-opacity:1;" stroke-width="0.5" stroke-miterlimit="10"/>
<path d="M566.555 208.641C567.905 203.856 565.96 198.691 561.695 196.141C558.78 194.396 554.745 192.941 549.305 192.751C534.805 192.251 521.805 215.251 518.305 235.751C515.435 252.576 515.305 274.751 531.805 279.251C548.305 283.751 558.805 268.251 559.305 248.751C559.66 234.916 564.04 217.556 566.555 208.641Z" fill="#DECFFF" style="fill:#DECFFF;fill:color(display-p3 0.8715 0.8127 1.0000);fill-opacity:1;"/>
<path d="M517.59 262.961C519.425 270.551 524.01 277.126 531.805 279.251C546.24 283.186 556.085 271.816 558.655 255.846" stroke="#020A18" style="stroke:#020A18;stroke:color(display-p3 0.0078 0.0392 0.0941);stroke-opacity:1;" stroke-width="0.5" stroke-linecap="round" stroke-linejoin="round"/>
<path d="M551.51 209.621C545.405 218.226 544.69 225.691 545.89 234.661C547.305 245.251 555.305 252.751 558.66 255.841C559.03 253.561 559.245 251.186 559.31 248.746C559.665 234.911 564.045 217.551 566.56 208.636C567.495 205.321 566.845 201.826 564.94 199.141C560.805 200.746 554.75 205.056 551.51 209.621Z" fill="#020A18" style="fill:#020A18;fill:color(display-p3 0.0078 0.0392 0.0941);fill-opacity:1;"/>
<path d="M525.495 262.896C527.41 271.576 533.155 276.666 538.32 275.381C543.54 274.081 545.94 267.296 544.025 258.616C542.11 249.936 536.87 245.281 531.495 246.256C526.255 247.206 523.58 254.216 525.495 262.896Z" stroke="#020A18" style="stroke:#020A18;stroke:color(display-p3 0.0078 0.0392 0.0941);stroke-opacity:1;" stroke-width="0.5" stroke-miterlimit="10"/>
<path d="M448.055 282.001H295.555C281.748 282.001 270.555 293.194 270.555 307.001C270.555 320.808 281.748 332.001 295.555 332.001H448.055C461.862 332.001 473.055 320.808 473.055 307.001C473.055 293.194 461.862 282.001 448.055 282.001Z" fill="#133EE3" style="fill:#133EE3;fill:color(display-p3 0.0745 0.2431 0.8902);fill-opacity:1;"/>
<path d="M601.555 304.001C601.555 304.001 622.555 324.001 649.555 331.501" stroke="#020A18" style="stroke:#020A18;stroke:color(display-p3 0.0078 0.0392 0.0941);stroke-opacity:1;" stroke-width="0.49" stroke-linecap="round" stroke-linejoin="round"/>
<path d="M696.14 285.026C696.14 285.026 674.305 252.251 623.805 204.751C623.805 204.751 601.13 181.346 568.805 198.751C539.555 214.501 550.555 244.501 556.805 252.751C562.395 260.126 574.055 273.501 591.555 270.501C605.435 268.121 601.055 245.001 585.055 236.001C585.055 236.001 597.055 238.501 605.555 233.001C605.555 233.001 608.675 254.241 634.555 276.001C656.555 294.501 673.725 300.051 696.14 285.026Z" fill="#DECFFF" style="fill:#DECFFF;fill:color(display-p3 0.8715 0.8127 1.0000);fill-opacity:1;"/>
<path d="M565.77 200.526C540.35 216.656 550.785 244.801 556.805 252.751C562.395 260.126 574.055 273.501 591.555 270.501C605.435 268.121 601.055 245.001 585.055 236.001C585.055 236.001 597.055 238.501 605.555 233.001C605.555 233.001 608.675 254.241 634.555 276.001C651.055 289.876 664.84 296.466 680.155 292.556" fill="#DECFFF" style="fill:#DECFFF;fill:color(display-p3 0.8715 0.8127 1.0000);fill-opacity:1;"/>
<path d="M565.77 200.526C540.35 216.656 550.785 244.801 556.805 252.751C562.395 260.126 574.055 273.501 591.555 270.501C605.435 268.121 601.055 245.001 585.055 236.001C585.055 236.001 597.055 238.501 605.555 233.001C605.555 233.001 608.675 254.241 634.555 276.001C651.055 289.876 664.84 296.466 680.155 292.556" stroke="#020A18" style="stroke:#020A18;stroke:color(display-p3 0.0078 0.0392 0.0941);stroke-opacity:1;" stroke-width="0.5" stroke-miterlimit="10"/>
<path d="M590.245 268.131C590.245 268.131 592.925 262.546 584.555 254.471C576.695 246.891 566.245 244.841 564.38 250.346C563.065 254.221 568.555 261.001 568.555 261.001" stroke="#020A18" style="stroke:#020A18;stroke:color(display-p3 0.0078 0.0392 0.0941);stroke-opacity:1;" stroke-width="0.5" stroke-miterlimit="10"/>
<path d="M574.555 180.501C574.555 180.501 607.555 161.501 641.555 193.001" stroke="#020A18" style="stroke:#020A18;stroke:color(display-p3 0.0078 0.0392 0.0941);stroke-opacity:1;" stroke-width="0.5" stroke-linecap="round" stroke-linejoin="round"/>
<path d="M401.46 230.476C401.46 230.476 391.045 230.401 379.32 241.006" stroke="#020A18" style="stroke:#020A18;stroke:color(display-p3 0.0078 0.0392 0.0941);stroke-opacity:1;" stroke-width="0.5" stroke-linecap="round" stroke-linejoin="round"/>
<path d="M337.11 305.121V299.676H336.02C335.085 302.966 333.28 306.601 331.145 309.476H337.37V314.921H338.455C339.39 311.631 341.195 307.996 343.33 305.121H337.11Z" fill="#F8F6FE" style="fill:#F8F6FE;fill:color(display-p3 0.9725 0.9647 0.9961);fill-opacity:1;"/>
<path d="M361.675 305.671H359.65C359.59 305.341 359.485 305.046 359.33 304.786C359.175 304.526 358.98 304.306 358.75 304.126C358.52 303.946 358.255 303.811 357.96 303.721C357.665 303.626 357.35 303.581 357.015 303.581C356.41 303.581 355.88 303.731 355.41 304.036C354.945 304.336 354.58 304.776 354.315 305.356C354.05 305.936 353.92 306.641 353.92 307.471C353.92 308.301 354.05 309.036 354.315 309.616C354.58 310.196 354.945 310.631 355.41 310.926C355.875 311.216 356.41 311.366 357.005 311.366C357.34 311.366 357.645 311.321 357.935 311.236C358.23 311.146 358.49 311.016 358.72 310.841C358.955 310.666 359.15 310.456 359.31 310.201C359.475 309.946 359.585 309.661 359.645 309.336L361.67 309.346C361.595 309.871 361.43 310.366 361.175 310.831C360.925 311.291 360.6 311.701 360.195 312.056C359.79 312.406 359.32 312.681 358.775 312.881C358.235 313.076 357.635 313.171 356.97 313.171C355.995 313.171 355.125 312.946 354.36 312.496C353.595 312.046 352.99 311.391 352.55 310.541C352.11 309.691 351.89 308.666 351.89 307.476C351.89 306.286 352.11 305.261 352.555 304.411C353 303.561 353.605 302.906 354.37 302.456C355.135 302.006 356 301.781 356.97 301.781C357.585 301.781 358.16 301.866 358.69 302.041C359.22 302.216 359.695 302.471 360.11 302.806C360.525 303.136 360.865 303.546 361.135 304.031C361.405 304.511 361.585 305.061 361.665 305.676L361.675 305.671ZM365.385 308.141V313.016H363.425V301.926H365.34V306.111H365.435C365.63 305.641 365.93 305.271 366.34 305.001C366.75 304.726 367.275 304.591 367.91 304.591C368.49 304.591 368.99 304.711 369.42 304.956C369.85 305.196 370.18 305.551 370.415 306.016C370.655 306.481 370.77 307.051 370.77 307.721V313.016H368.81V308.026C368.81 307.466 368.665 307.031 368.375 306.721C368.09 306.406 367.69 306.251 367.17 306.251C366.825 306.251 366.515 306.326 366.24 306.476C365.97 306.626 365.755 306.841 365.6 307.121C365.45 307.401 365.37 307.746 365.37 308.146L365.385 308.141ZM376.46 313.176C375.625 313.176 374.905 313.001 374.3 312.656C373.7 312.306 373.235 311.811 372.91 311.171C372.585 310.526 372.425 309.771 372.425 308.901C372.425 308.031 372.585 307.296 372.91 306.651C373.24 306.001 373.695 305.496 374.285 305.136C374.875 304.771 375.565 304.591 376.36 304.591C376.875 304.591 377.355 304.676 377.81 304.841C378.27 305.001 378.67 305.256 379.025 305.601C379.38 305.946 379.655 306.381 379.86 306.911C380.06 307.436 380.165 308.066 380.165 308.796V309.396H373.35V308.076H378.285C378.285 307.701 378.2 307.366 378.04 307.076C377.88 306.781 377.66 306.546 377.375 306.376C377.095 306.206 376.765 306.121 376.39 306.121C375.99 306.121 375.635 306.216 375.335 306.411C375.03 306.601 374.795 306.856 374.625 307.171C374.46 307.481 374.375 307.821 374.37 308.196V309.351C374.37 309.836 374.46 310.251 374.635 310.596C374.81 310.941 375.06 311.201 375.375 311.386C375.695 311.566 376.065 311.656 376.49 311.656C376.775 311.656 377.035 311.616 377.265 311.536C377.495 311.451 377.695 311.331 377.865 311.171C378.035 311.011 378.16 310.816 378.25 310.581L380.08 310.786C379.965 311.271 379.745 311.691 379.42 312.051C379.1 312.406 378.685 312.686 378.185 312.886C377.685 313.081 377.11 313.176 376.465 313.176H376.46ZM385.44 313.176C384.61 313.176 383.895 312.996 383.3 312.631C382.705 312.266 382.25 311.761 381.93 311.121C381.615 310.476 381.455 309.731 381.455 308.891C381.455 308.051 381.62 307.301 381.94 306.656C382.265 306.006 382.725 305.501 383.315 305.141C383.91 304.776 384.615 304.596 385.425 304.596C386.1 304.596 386.695 304.721 387.215 304.971C387.74 305.216 388.155 305.566 388.465 306.016C388.775 306.466 388.95 306.986 388.995 307.586H387.12C387.045 307.186 386.865 306.851 386.58 306.586C386.3 306.316 385.92 306.181 385.45 306.181C385.05 306.181 384.695 306.291 384.395 306.506C384.09 306.721 383.855 307.026 383.685 307.426C383.52 307.826 383.435 308.306 383.435 308.866C383.435 309.426 383.52 309.921 383.685 310.326C383.85 310.731 384.085 311.041 384.385 311.261C384.69 311.476 385.045 311.586 385.45 311.586C385.74 311.586 385.995 311.531 386.225 311.426C386.455 311.316 386.65 311.151 386.805 310.946C386.96 310.736 387.065 310.481 387.125 310.181H389C388.95 310.771 388.78 311.291 388.48 311.746C388.18 312.196 387.775 312.551 387.255 312.806C386.74 313.061 386.135 313.186 385.435 313.186L385.44 313.176ZM392.4 310.406V308.041H392.71L395.7 304.701H397.99L394.315 308.796H393.91L392.405 310.411L392.4 310.406ZM390.61 313.016V301.926H392.57V313.016H390.61ZM395.83 313.016L393.125 309.231L394.445 307.851L398.175 313.016H395.83ZM402.575 313.176C401.765 313.176 401.06 312.996 400.465 312.641C399.87 312.286 399.41 311.786 399.08 311.141C398.755 310.496 398.59 309.746 398.59 308.891C398.59 308.036 398.755 307.281 399.08 306.631C399.41 305.986 399.87 305.481 400.465 305.126C401.06 304.771 401.765 304.591 402.575 304.591C403.385 304.591 404.09 304.771 404.685 305.126C405.28 305.481 405.74 305.986 406.065 306.631C406.395 307.276 406.56 308.031 406.56 308.891C406.56 309.751 406.395 310.501 406.065 311.141C405.74 311.781 405.28 312.281 404.685 312.641C404.09 313.001 403.385 313.176 402.575 313.176ZM402.59 311.606C403.03 311.606 403.4 311.486 403.695 311.241C403.99 310.996 404.21 310.666 404.355 310.256C404.505 309.846 404.575 309.386 404.575 308.881C404.575 308.376 404.5 307.911 404.355 307.501C404.21 307.086 403.99 306.756 403.695 306.511C403.4 306.266 403.03 306.141 402.59 306.141C402.15 306.141 401.765 306.266 401.465 306.511C401.17 306.756 400.945 307.086 400.8 307.501C400.655 307.911 400.585 308.371 400.585 308.881C400.585 309.391 400.655 309.846 400.8 310.256C400.95 310.666 401.17 310.996 401.465 311.241C401.765 311.481 402.14 311.606 402.59 311.606ZM413.525 309.516V304.696H415.485V313.011H413.585V311.531H413.5C413.31 311.996 413.005 312.376 412.575 312.671C412.15 312.966 411.625 313.116 411 313.116C410.455 313.116 409.975 312.996 409.555 312.751C409.14 312.506 408.815 312.151 408.58 311.686C408.345 311.216 408.23 310.651 408.23 309.986V304.691H410.19V309.681C410.19 310.206 410.335 310.626 410.625 310.936C410.915 311.246 411.295 311.401 411.76 311.401C412.05 311.401 412.33 311.331 412.6 311.191C412.87 311.051 413.095 310.841 413.265 310.561C413.44 310.281 413.53 309.926 413.53 309.506L413.525 309.516ZM421.655 304.701V306.216H416.875V304.701H421.655ZM418.055 302.706H420.015V310.511C420.015 310.776 420.055 310.976 420.135 311.116C420.22 311.251 420.325 311.346 420.46 311.396C420.595 311.446 420.74 311.471 420.905 311.471C421.03 311.471 421.14 311.461 421.24 311.446C421.345 311.426 421.425 311.411 421.48 311.396L421.81 312.926C421.705 312.961 421.555 313.001 421.36 313.046C421.17 313.091 420.935 313.116 420.655 313.121C420.165 313.136 419.72 313.061 419.33 312.901C418.935 312.736 418.625 312.481 418.395 312.131C418.165 311.786 418.055 311.351 418.06 310.831V302.701L418.055 302.706Z" fill="#F8F6FE" style="fill:#F8F6FE;fill:color(display-p3 0.9725 0.9647 0.9961);fill-opacity:1;"/>
</svg>
