<svg viewBox="0 0 104 30" xmlns="http://www.w3.org/2000/svg" role="img" class="navLogoDesktop "><path d="M76.795 10.775h11.55c-3.957 5.346-7.31 12.111-9.046 18.227h16.638V10.774h7.43V.649h-26.57v10.126h-.002ZM58.138 29.002H77.28V18.874H65.731C69.688 13.53 73.04 6.764 74.776.65H58.138V29ZM37.301 14.825c0-4.172 1.372-6.318 4.08-6.318 2.706 0 4.078 2.147 4.078 6.318 0 4.171-1.372 6.318-4.079 6.318s-4.079-2.147-4.079-6.318Zm-27.056-2.593V7.291h2.383c1.575 0 2.383.85 2.383 2.47 0 1.621-.808 2.471-2.383 2.471h-2.383Zm0 10.126v-5.265h2.544c1.697 0 2.544.891 2.544 2.633 0 1.741-.848 2.632-2.544 2.632h-2.544ZM.07 29.001h16.314c5.532 0 9.288-3.32 9.288-8.181 0-3.039-1.616-5.145-4.766-6.48 2.747-1.296 4.039-3.402 4.039-6.076 0-4.537-3.514-7.615-8.682-7.615H.07V29Zm41.311.649c8.763 0 14.578-5.914 14.578-14.825S50.144 0 41.381 0C32.62 0 26.803 5.914 26.803 14.825S32.62 29.65 41.382 29.65"></path></svg>