<svg viewBox="0 0 16 17" fill="none" xmlns="http://www.w3.org/2000/svg" role="img"><g clip-path="url(#a)"><mask id="b" style="mask-type:luminance" maskUnits="userSpaceOnUse" x="0" y="0" width="16" height="17"><path d="M16 .442H0v16h16v-16Z" fill="#fff"></path></mask><g mask="url(#b)"><path d="M8 15.548a7.105 7.105 0 1 0 0-14.21 7.105 7.105 0 0 0 0 14.21Z" fill="#6402FF"></path></g><path fill-rule="evenodd" clip-rule="evenodd" d="M10.995.5h.573c.161.002.323.003.484.008.35.01.704.03 1.05.093.352.063.68.166 1 .329a3.362 3.362 0 0 1 1.468 1.468c.163.32.267.648.33 1 .063.347.083.7.092 1.051.005.161.007.322.008.483v6.563l-.001.573c0 .161-.002.322-.007.483-.01.35-.03.704-.093 1.05-.063.352-.166.68-.329 1a3.36 3.36 0 0 1-1.47 1.47c-.319.162-.646.265-.998.328a7.026 7.026 0 0 1-1.051.093c-.161.005-.322.006-.483.007l-.573.001h-5.99l-.573-.001c-.161 0-.322-.002-.483-.007-.35-.01-.705-.03-1.052-.093a3.562 3.562 0 0 1-.998-.329 3.362 3.362 0 0 1-1.47-1.469 3.552 3.552 0 0 1-.328-1 7.004 7.004 0 0 1-.093-1.05c-.005-.161-.006-.322-.007-.483L0 11.495v-5.99l.001-.573c0-.161.002-.322.007-.483.01-.35.03-.704.093-1.05a3.55 3.55 0 0 1 .329-1A3.36 3.36 0 0 1 1.9.931 3.54 3.54 0 0 1 2.896.6 7.016 7.016 0 0 1 3.95.508C4.11.503 4.271.502 4.432.5L5.005.5h5.99Zm-.107 2.518-4.756.959H6.13a.663.663 0 0 0-.296.133.486.486 0 0 0-.16.31c-.004.027-.01.08-.01.16v5.952c0 .14-.012.275-.106.39-.095.115-.21.15-.347.178l-.31.062c-.393.08-.649.133-.88.223a1.383 1.383 0 0 0-.52.334 1.253 1.253 0 0 0-.332.994c.031.297.166.582.395.792.156.142.35.25.578.296.236.047.49.031.858-.043.196-.04.38-.102.556-.205.173-.103.321-.24.437-.406a1.48 1.48 0 0 0 .233-.548c.042-.203.052-.387.052-.59V6.849c0-.277.079-.35.302-.405.004 0 3.953-.797 4.138-.833.257-.049.379.025.379.294v3.524c0 .14-.002.28-.097.396-.094.115-.211.15-.348.178l-.31.062c-.393.08-.649.133-.88.223a1.383 1.383 0 0 0-.52.334 1.262 1.262 0 0 0-.34.995c.03.297.174.582.404.792.155.142.349.247.577.293.237.048.49.03.858-.044.197-.04.381-.098.556-.202.173-.102.322-.238.438-.404.116-.167.192-.352.233-.55.043-.202.044-.386.044-.589V3.365c0-.274-.143-.443-.4-.42-.04.003-.383.064-.424.073Z" fill="#000"></path></g><defs><clipPath id="a"><path fill="#fff" d="M0 0h16v17H0z"></path></clipPath></defs></svg>