<svg width="628" height="178" viewBox="0 0 628 178" fill="none" xmlns="http://www.w3.org/2000/svg">
<path d="M37.2774 52H32.4267V31.6839H41.158C45.6949 31.6839 48.6054 34.309 48.6054 38.3608C48.6054 42.4412 45.7235 45.0377 41.3007 45.0377H37.2774V52ZM37.2774 35.2792V41.4139H40.3876C42.385 41.4139 43.7261 40.2155 43.7261 38.3608C43.7261 36.5061 42.4135 35.2792 40.3876 35.2792H37.2774ZM57.0587 52.4851C52.2936 52.4851 49.1263 49.3749 49.1263 44.6097C49.1263 39.9587 51.9797 36.8771 56.3739 36.8771C60.5684 36.8771 63.2791 39.8161 63.3077 44.3244C63.3077 44.9236 63.2506 45.5228 63.1365 45.8938H53.492C53.6632 48.0338 55.0614 49.3464 57.0873 49.3464C58.6281 49.3464 59.9121 48.5474 60.5113 47.2063L63.5645 48.5474C62.7084 50.9728 60.0833 52.4851 57.0587 52.4851ZM53.492 43.4113H58.9705C58.8564 41.2713 57.8862 40.0443 56.3454 40.0443C54.719 40.0443 53.6918 41.3283 53.492 43.4113ZM73.0633 36.9912C75.4602 36.9912 76.9725 38.8459 77.1437 42.1273L73.4628 43.126C73.4057 41.2142 72.7209 40.2441 71.6652 40.2441C70.3526 40.2441 69.5251 41.6137 69.5251 43.8964V52H65.188V37.3907H68.6977L69.2969 39.9017H69.3254C69.9817 38.0755 71.3798 36.9912 73.0633 36.9912ZM84.6111 52H80.2454V40.7006H77.6488V37.3907H80.2454V35.4504C80.2454 32.3117 82.2998 30.3999 85.5527 30.3999C87.6642 30.3999 89.3762 31.3415 90.2608 32.8253L88.8055 35.536C88.349 34.5944 87.4359 33.9381 86.4658 33.9381C85.3244 33.9381 84.5825 34.7656 84.5825 35.9925V37.3907H89.2621V40.7006H84.5825L84.6111 52ZM97.061 52.4851C92.5526 52.4851 89.6422 49.4605 89.6422 44.6953C89.6422 39.9302 92.5526 36.8771 97.061 36.8771C101.569 36.8771 104.451 39.9302 104.451 44.6953C104.451 49.4605 101.569 52.4851 97.061 52.4851ZM97.061 48.8327C98.9442 48.8327 100.114 47.2919 100.114 44.6953C100.114 42.0988 98.9442 40.5579 97.061 40.5579C95.1492 40.5579 93.9793 42.0988 93.9793 44.6953C93.9793 47.2919 95.1492 48.8327 97.061 48.8327ZM114.025 36.9912C116.422 36.9912 117.934 38.8459 118.105 42.1273L114.424 43.126C114.367 41.2142 113.683 40.2441 112.627 40.2441C111.314 40.2441 110.487 41.6137 110.487 43.8964V52H106.15V37.3907H109.659L110.259 39.9017H110.287C110.943 38.0755 112.341 36.9912 114.025 36.9912ZM123.918 52H119.581V37.3907H123.062L123.661 40.0158H123.689C124.46 38.1326 126.2 36.9912 128.255 36.9912C130.366 36.9912 131.822 38.104 132.421 40.0729H132.449C133.391 38.0755 135.16 36.9912 137.215 36.9912C139.897 36.9912 141.466 38.8174 141.466 41.899V52H137.1V42.8121C137.1 41.471 136.387 40.7006 135.132 40.7006C133.619 40.7006 132.706 41.842 132.706 43.6681V52H128.341V42.8121C128.341 41.471 127.627 40.7006 126.372 40.7006C124.831 40.7006 123.918 41.842 123.918 43.6681V52ZM147.511 52.3424C144.743 52.3424 142.86 50.7445 142.86 48.2335C142.86 45.5799 144.943 43.8679 148.852 43.4398L151.106 43.183C151.762 43.0974 152.19 42.7265 152.19 42.0132C152.19 40.7291 151.306 40.0158 150.022 40.0158C148.538 40.0158 147.568 41.1857 147.482 42.7265L143.345 42.1273C143.459 39.0742 146.056 36.8771 149.993 36.8771C153.988 36.8771 156.47 39.1312 156.47 42.698V48.3477C156.47 48.9469 156.727 49.3178 157.184 49.3178C157.526 49.3178 157.926 49.1181 158.268 48.7471L159.21 51.0869C158.297 51.9715 156.898 52.3709 155.643 52.3709C153.874 52.3709 152.59 51.3723 152.304 50.0026L152.247 49.6317H152.219C151.334 51.3152 149.651 52.3424 147.511 52.3424ZM149.308 49.2893C150.935 49.2893 152.133 48.0338 152.133 46.1506V45.4658L149.993 45.694C148.024 45.9223 147.225 46.6927 147.225 47.6914C147.225 48.6615 148.081 49.2893 149.308 49.2893ZM169.166 37.0197C171.848 37.0197 173.531 38.7318 173.531 41.6137V52H169.166V42.7265C169.166 41.3569 168.424 40.5579 167.225 40.5579C165.656 40.5579 164.629 41.6422 164.629 43.4113V52H160.291V37.3907H163.887L164.486 39.8731H164.514C165.399 38.047 167.111 37.0197 169.166 37.0197ZM182.18 52.4851C177.9 52.4851 175.132 49.4605 175.132 44.6953C175.161 39.9302 177.929 36.8771 182.152 36.8771C185.69 36.8771 188.172 39.0456 188.743 42.4697L184.748 43.3828C184.491 41.4425 183.493 40.4153 182.237 40.4153C180.582 40.4153 179.498 42.0417 179.498 44.6953C179.526 47.349 180.611 48.9469 182.266 48.9469C183.664 48.9469 184.72 47.7199 184.919 45.637L188.943 46.2362C188.515 50.0597 185.889 52.4851 182.18 52.4851ZM198.39 52.4851C193.625 52.4851 190.458 49.3749 190.458 44.6097C190.458 39.9587 193.311 36.8771 197.706 36.8771C201.9 36.8771 204.611 39.8161 204.639 44.3244C204.639 44.9236 204.582 45.5228 204.468 45.8938H194.824C194.995 48.0338 196.393 49.3464 198.419 49.3464C199.96 49.3464 201.244 48.5474 201.843 47.2063L204.896 48.5474C204.04 50.9728 201.415 52.4851 198.39 52.4851ZM194.824 43.4113H200.302C200.188 41.2713 199.218 40.0443 197.677 40.0443C196.051 40.0443 195.023 41.3283 194.824 43.4113ZM38.8183 83.4565C35.4513 83.4565 33.5966 81.4877 33.5966 78.3775L33.568 71.7006H31.1141V68.3907H33.5966V64.5101L37.9337 63.5399V68.3907H42.9271V71.7006H37.9337L37.9623 77.6071C37.9623 79.0623 38.7041 79.9183 39.8455 79.9183C40.9012 79.9183 41.7002 79.3477 42.2138 78.1207L43.6405 80.7744C42.7274 82.4864 40.9583 83.4565 38.8183 83.4565ZM52.8054 67.9912C55.2023 67.9912 56.7146 69.8459 56.8858 73.1273L53.2049 74.126C53.1478 72.2142 52.463 71.2441 51.4073 71.2441C50.0947 71.2441 49.2672 72.6137 49.2672 74.8964V83H44.9301V68.3907H48.4397L49.039 70.9017H49.0675C49.7238 69.0755 51.1219 67.9912 52.8054 67.9912ZM62.6411 83.3709C59.9589 83.3709 58.2754 81.6589 58.2754 78.777V68.3907H62.6411V77.6642C62.6411 79.0338 63.383 79.8327 64.5814 79.8327C66.1508 79.8327 67.178 78.7485 67.178 76.9794V68.3907H71.5151V83H67.9199L67.3207 80.5176H67.2921C66.4076 82.3437 64.6956 83.3709 62.6411 83.3709ZM79.6789 83.4565C76.0551 83.4565 73.2303 81.8016 73.0591 78.4631L76.9112 77.978C76.9968 79.6045 78.1952 80.5746 79.8216 80.5746C81.1627 80.5746 82.1899 79.9469 82.1899 79.0338C82.1899 78.1492 81.4195 77.6642 79.6504 77.2362L77.7386 76.7511C74.8853 76.0663 73.6868 74.7823 73.6868 72.5852C73.6868 69.7032 76.0551 67.9341 79.4792 67.9341C82.5609 67.9341 85.0718 69.475 85.3572 72.4139L81.5622 72.8705C81.4766 71.5009 80.592 70.759 79.3365 70.759C78.2237 70.759 77.4533 71.3867 77.4533 72.1857C77.4533 72.9846 78.1381 73.4412 79.736 73.8977L81.7048 74.3828C84.7865 75.1532 86.1847 76.4658 86.2132 78.6629C86.2132 81.6304 83.5025 83.4565 79.6789 83.4565ZM94.0747 83.4565C90.7077 83.4565 88.853 81.4877 88.853 78.3775L88.8245 71.7006H86.3706V68.3907H88.853V64.5101L93.1902 63.5399V68.3907H98.1836V71.7006H93.1902L93.2187 77.6071C93.2187 79.0623 93.9606 79.9183 95.1019 79.9183C96.1577 79.9183 96.9566 79.3477 97.4702 78.1207L98.8969 80.7744C97.9838 82.4864 96.2147 83.4565 94.0747 83.4565ZM107.355 83.4851C102.59 83.4851 99.4228 80.3749 99.4228 75.6097C99.4228 70.9587 102.276 67.8771 106.67 67.8771C110.865 67.8771 113.576 70.8161 113.604 75.3244C113.604 75.9236 113.547 76.5228 113.433 76.8938H103.788C103.96 79.0338 105.358 80.3464 107.384 80.3464C108.925 80.3464 110.209 79.5474 110.808 78.2063L113.861 79.5474C113.005 81.9728 110.38 83.4851 107.355 83.4851ZM103.788 74.4113H109.267C109.153 72.2713 108.183 71.0443 106.642 71.0443C105.015 71.0443 103.988 72.3283 103.788 74.4113ZM120.791 83.3995C117.31 83.3995 115.027 80.4034 115.027 75.6953C115.027 70.9873 117.31 67.9912 120.763 67.9912C122.731 67.9912 124.301 69.0184 125.157 70.8731H125.185V61.8279H129.551V83H125.842L125.299 80.4605H125.271C124.443 82.3723 122.788 83.3995 120.791 83.3995ZM122.389 79.6615C124.187 79.6615 125.356 78.0922 125.356 75.6953C125.356 73.2985 124.187 71.7291 122.389 71.7291C120.591 71.7291 119.393 73.2985 119.393 75.6953C119.393 78.0922 120.591 79.6615 122.389 79.6615ZM145.784 83.3995C143.787 83.3995 142.132 82.3723 141.304 80.4605H141.276L140.734 83H137.024V61.8279H141.361V70.8731H141.39C142.274 69.0184 143.844 67.9912 145.784 67.9912C149.237 67.9912 151.519 70.9873 151.519 75.6953C151.519 80.4034 149.237 83.3995 145.784 83.3995ZM144.186 79.6615C145.984 79.6615 147.154 78.0922 147.154 75.6953C147.154 73.2985 145.984 71.7291 144.186 71.7291C142.389 71.7291 141.19 73.2985 141.19 75.6953C141.19 78.0922 142.389 79.6615 144.186 79.6615ZM158.52 89.4772C155.781 89.4772 153.242 88.4785 151.758 86.8235L153.47 83.7419C154.554 85.0544 156.266 85.8819 158.092 85.8819C160.546 85.8819 162.087 84.3982 162.087 81.9442V80.6888H162.059C161.231 82.4579 159.662 83.5421 157.864 83.5421C154.925 83.5421 153.127 81.4592 153.127 78.1778V68.3907H157.493V77.4644C157.493 78.9767 158.264 79.9754 159.576 79.9754C161.003 79.9754 162.03 78.8911 162.03 77.2362V68.3907H166.367L166.396 82.2296C166.396 86.7379 163.371 89.4772 158.52 89.4772ZM185.89 83.4565C182.523 83.4565 180.668 81.4877 180.668 78.3775L180.64 71.7006H178.186V68.3907H180.668V64.5101L185.006 63.5399V68.3907H189.999V71.7006H185.006L185.034 77.6071C185.034 79.0623 185.776 79.9183 186.917 79.9183C187.973 79.9183 188.772 79.3477 189.286 78.1207L190.712 80.7744C189.799 82.4864 188.03 83.4565 185.89 83.4565ZM196.339 83H192.002V61.8279H196.339V70.8731H196.368C197.281 69.047 198.907 68.0197 200.962 68.0197C203.644 68.0197 205.242 69.7032 205.242 72.6137V83H200.876V73.7265C200.876 72.3569 200.134 71.5579 198.936 71.5579C197.366 71.5579 196.339 72.6422 196.339 74.4113V83ZM214.775 83.4851C210.01 83.4851 206.843 80.3749 206.843 75.6097C206.843 70.9587 209.696 67.8771 214.09 67.8771C218.285 67.8771 220.995 70.8161 221.024 75.3244C221.024 75.9236 220.967 76.5228 220.853 76.8938H211.208C211.38 79.0338 212.778 80.3464 214.804 80.3464C216.344 80.3464 217.628 79.5474 218.228 78.2063L221.281 79.5474C220.425 81.9728 217.8 83.4851 214.775 83.4851ZM211.208 74.4113H216.687C216.573 72.2713 215.603 71.0443 214.062 71.0443C212.435 71.0443 211.408 72.3283 211.208 74.4113ZM39.9882 114H35.0518L31.1427 99.3907H35.5369L37.8481 109.777H37.8767L40.673 99.3907H44.6677L47.5211 109.863H47.5496L49.8609 99.3907H54.2265L50.3459 114H45.4096L42.6989 103.87H42.6418L39.9882 114ZM61.7559 114.485C57.2476 114.485 54.3371 111.46 54.3371 106.695C54.3371 101.93 57.2476 98.8771 61.7559 98.8771C66.2643 98.8771 69.1462 101.93 69.1462 106.695C69.1462 111.46 66.2643 114.485 61.7559 114.485ZM61.7559 110.833C63.6391 110.833 64.809 109.292 64.809 106.695C64.809 104.099 63.6391 102.558 61.7559 102.558C59.8441 102.558 58.6743 104.099 58.6743 106.695C58.6743 109.292 59.8441 110.833 61.7559 110.833ZM78.7199 98.9912C81.1168 98.9912 82.6291 100.846 82.8003 104.127L79.1194 105.126C79.0623 103.214 78.3775 102.244 77.3218 102.244C76.0092 102.244 75.1817 103.614 75.1817 105.896V114H70.8446V99.3907H74.3543L74.9535 101.902H74.982C75.6383 100.075 77.0364 98.9912 78.7199 98.9912ZM88.6127 114H84.2756V92.8279H88.6127V114ZM96.0469 114.399C92.5658 114.399 90.2831 111.403 90.2831 106.695C90.2831 101.987 92.5658 98.9912 96.0184 98.9912C97.9872 98.9912 99.5566 100.018 100.413 101.873H100.441V92.8279H104.807V114H101.097L100.555 111.46H100.527C99.6992 113.372 98.0443 114.399 96.0469 114.399ZM97.6448 110.662C99.4424 110.662 100.612 109.092 100.612 106.695C100.612 104.298 99.4424 102.729 97.6448 102.729C95.8472 102.729 94.6487 104.298 94.6487 106.695C94.6487 109.092 95.8472 110.662 97.6448 110.662ZM110.153 100.418H109.611V97.593H106.757L108.897 93.0847H113.634L110.153 100.418ZM119.833 114.457C116.209 114.457 113.384 112.802 113.213 109.463L117.065 108.978C117.15 110.604 118.349 111.575 119.975 111.575C121.316 111.575 122.343 110.947 122.343 110.034C122.343 109.149 121.573 108.664 119.804 108.236L117.892 107.751C115.039 107.066 113.84 105.782 113.84 103.585C113.84 100.703 116.209 98.9341 119.633 98.9341C122.714 98.9341 125.225 100.475 125.511 103.414L121.716 103.87C121.63 102.501 120.746 101.759 119.49 101.759C118.377 101.759 117.607 102.387 117.607 103.186C117.607 103.985 118.292 104.441 119.89 104.898L121.858 105.383C124.94 106.153 126.338 107.466 126.367 109.663C126.367 112.63 123.656 114.457 119.833 114.457ZM141.967 114.399C139.969 114.399 138.314 113.372 137.487 111.46H137.458L136.916 114H133.207V92.8279H137.544V101.873H137.572C138.457 100.018 140.026 98.9912 141.967 98.9912C145.419 98.9912 147.702 101.987 147.702 106.695C147.702 111.403 145.419 114.399 141.967 114.399ZM140.369 110.662C142.166 110.662 143.336 109.092 143.336 106.695C143.336 104.298 142.166 102.729 140.369 102.729C138.571 102.729 137.373 104.298 137.373 106.695C137.373 109.092 138.571 110.662 140.369 110.662ZM151.707 97.3933C150.137 97.3933 149.139 96.3946 149.139 94.9109C149.139 93.3986 150.137 92.3999 151.707 92.3999C153.248 92.3999 154.275 93.3986 154.275 94.9109C154.275 96.3946 153.248 97.3933 151.707 97.3933ZM153.875 114H149.51V99.3907H153.875V114ZM162.017 120.477C159.164 120.477 156.453 119.45 154.94 117.824L156.624 114.685C157.794 116.026 159.706 116.91 161.532 116.91C164.157 116.91 165.84 115.341 165.84 112.83V111.375H165.812C164.956 113.03 163.244 114.086 161.389 114.086C157.937 114.086 155.739 111.204 155.739 106.667C155.739 101.959 157.937 98.9627 161.304 98.9627C163.272 98.9627 165.041 100.104 165.84 101.902H165.869L166.383 99.3907H170.206V112.887C170.206 117.652 167.039 120.477 162.017 120.477ZM163.073 110.519C164.842 110.519 166.012 108.978 166.012 106.581C166.012 104.184 164.842 102.615 163.073 102.615C161.275 102.615 160.105 104.156 160.105 106.581C160.105 109.007 161.275 110.519 163.073 110.519ZM178.234 120.477C175.381 120.477 172.67 119.45 171.158 117.824L172.841 114.685C174.011 116.026 175.923 116.91 177.749 116.91C180.374 116.91 182.058 115.341 182.058 112.83V111.375H182.029C181.173 113.03 179.461 114.086 177.607 114.086C174.154 114.086 171.957 111.204 171.957 106.667C171.957 101.959 174.154 98.9627 177.521 98.9627C179.49 98.9627 181.259 100.104 182.058 101.902H182.086L182.6 99.3907H186.424V112.887C186.424 117.652 183.256 120.477 178.234 120.477ZM179.29 110.519C181.059 110.519 182.229 108.978 182.229 106.581C182.229 104.184 181.059 102.615 179.29 102.615C177.492 102.615 176.323 104.156 176.323 106.581C176.323 109.007 177.492 110.519 179.29 110.519ZM196.05 114.485C191.285 114.485 188.117 111.375 188.117 106.61C188.117 101.959 190.971 98.8771 195.365 98.8771C199.559 98.8771 202.27 101.816 202.299 106.324C202.299 106.924 202.242 107.523 202.127 107.894H192.483C192.654 110.034 194.052 111.346 196.078 111.346C197.619 111.346 198.903 110.547 199.502 109.206L202.555 110.547C201.699 112.973 199.074 114.485 196.05 114.485ZM192.483 105.411H197.961C197.847 103.271 196.877 102.044 195.336 102.044C193.71 102.044 192.683 103.328 192.483 105.411ZM210.171 114.457C206.547 114.457 203.722 112.802 203.551 109.463L207.403 108.978C207.489 110.604 208.687 111.575 210.314 111.575C211.655 111.575 212.682 110.947 212.682 110.034C212.682 109.149 211.912 108.664 210.143 108.236L208.231 107.751C205.377 107.066 204.179 105.782 204.179 103.585C204.179 100.703 206.547 98.9341 209.971 98.9341C213.053 98.9341 215.564 100.475 215.849 103.414L212.054 103.87C211.969 102.501 211.084 101.759 209.829 101.759C208.716 101.759 207.945 102.387 207.945 103.186C207.945 103.985 208.63 104.441 210.228 104.898L212.197 105.383C215.279 106.153 216.677 107.466 216.705 109.663C216.705 112.63 213.995 114.457 210.171 114.457ZM224.567 114.457C221.2 114.457 219.345 112.488 219.345 109.378L219.317 102.701H216.863V99.3907H219.345V95.5101L223.682 94.5399V99.3907H228.676V102.701H223.682L223.711 108.607C223.711 110.062 224.453 110.918 225.594 110.918C226.65 110.918 227.449 110.348 227.962 109.121L229.389 111.774C228.476 113.486 226.707 114.457 224.567 114.457ZM40.8442 145.399C38.8468 145.399 37.1918 144.372 36.3644 142.46H36.3358L35.7937 145H32.0843V123.828H36.4214V132.873H36.45C37.3345 131.018 38.9039 129.991 40.8442 129.991C44.2968 129.991 46.5795 132.987 46.5795 137.695C46.5795 142.403 44.2968 145.399 40.8442 145.399ZM39.2463 141.662C41.0439 141.662 42.2138 140.092 42.2138 137.695C42.2138 135.298 41.0439 133.729 39.2463 133.729C37.4486 133.729 36.2502 135.298 36.2502 137.695C36.2502 140.092 37.4486 141.662 39.2463 141.662ZM56.1771 129.991C58.5739 129.991 60.0862 131.846 60.2574 135.127L56.5766 136.126C56.5195 134.214 55.8347 133.244 54.7789 133.244C53.4664 133.244 52.6389 134.614 52.6389 136.896V145H48.3018V130.391H51.8114L52.4106 132.902H52.4392C53.0954 131.075 54.4936 129.991 56.1771 129.991ZM65.6432 145.342C62.8754 145.342 60.9922 143.745 60.9922 141.234C60.9922 138.58 63.0752 136.868 66.9843 136.44L69.2385 136.183C69.8947 136.097 70.3227 135.727 70.3227 135.013C70.3227 133.729 69.4382 133.016 68.1542 133.016C66.6704 133.016 65.7003 134.186 65.6147 135.727L61.4773 135.127C61.5914 132.074 64.188 129.877 68.1256 129.877C72.1204 129.877 74.6028 132.131 74.6028 135.698V141.348C74.6028 141.947 74.8596 142.318 75.3162 142.318C75.6586 142.318 76.058 142.118 76.4005 141.747L77.3421 144.087C76.429 144.971 75.0308 145.371 73.7753 145.371C72.0062 145.371 70.7222 144.372 70.4369 143.003L70.3798 142.632H70.3513C69.4667 144.315 67.7832 145.342 65.6432 145.342ZM67.4408 142.289C69.0673 142.289 70.2657 141.034 70.2657 139.151V138.466L68.1256 138.694C66.1568 138.922 65.3579 139.693 65.3579 140.691C65.3579 141.662 66.2139 142.289 67.4408 142.289ZM87.2979 130.02C89.9801 130.02 91.6636 131.732 91.6636 134.614V145H87.2979V135.727C87.2979 134.357 86.556 133.558 85.3576 133.558C83.7883 133.558 82.761 134.642 82.761 136.411V145H78.4239V130.391H82.0192L82.6184 132.873H82.6469C83.5315 131.047 85.2435 130.02 87.2979 130.02ZM99.0285 145.399C95.5473 145.399 93.2646 142.403 93.2646 137.695C93.2646 132.987 95.5473 129.991 98.9999 129.991C100.969 129.991 102.538 131.018 103.394 132.873H103.423V123.828H107.788V145H104.079L103.537 142.46H103.508C102.681 144.372 101.026 145.399 99.0285 145.399ZM100.626 141.662C102.424 141.662 103.594 140.092 103.594 137.695C103.594 135.298 102.424 133.729 100.626 133.729C98.8287 133.729 97.6303 135.298 97.6303 137.695C97.6303 140.092 98.8287 141.662 100.626 141.662ZM115.959 145.457C112.335 145.457 109.511 143.802 109.339 140.463L113.191 139.978C113.277 141.604 114.476 142.575 116.102 142.575C117.443 142.575 118.47 141.947 118.47 141.034C118.47 140.149 117.7 139.664 115.931 139.236L114.019 138.751C111.166 138.066 109.967 136.782 109.967 134.585C109.967 131.703 112.335 129.934 115.76 129.934C118.841 129.934 121.352 131.475 121.637 134.414L117.842 134.87C117.757 133.501 116.872 132.759 115.617 132.759C114.504 132.759 113.734 133.387 113.734 134.186C113.734 134.985 114.418 135.441 116.016 135.898L117.985 136.383C121.067 137.153 122.465 138.466 122.494 140.663C122.494 143.63 119.783 145.457 115.959 145.457ZM126.239 145.314C124.756 145.314 123.671 144.287 123.671 142.803C123.671 141.348 124.756 140.32 126.239 140.32C127.752 140.32 128.836 141.348 128.836 142.803C128.836 144.287 127.752 145.314 126.239 145.314Z" fill="#F8F6FE" style="fill:#F8F6FE;fill:color(display-p3 0.9725 0.9647 0.9961);fill-opacity:1;"/>
</svg>
