<svg viewBox="0 0 16 17" fill="none" xmlns="http://www.w3.org/2000/svg" role="img"><g clip-path="url(#a)"><circle cx="8" cy="8.442" r="4.316" fill="#6402FF"></circle><path fill-rule="evenodd" clip-rule="evenodd" d="M15.182 3.974c-.447-.794-.894-.943-1.837-.993-.943-.05-3.326-.099-5.411-.099-2.085 0-4.468.05-5.412.1-.943.049-1.44.198-1.837.992C.238 4.77-.01 6.11-.01 8.442c0 2.334.248 3.674.695 4.469.447.794.894.943 1.837.992.944.05 3.327.1 5.412.1s4.468-.05 5.411-.1c.943-.05 1.44-.198 1.837-.992.447-.795.695-2.135.695-4.469-.05-2.333-.248-3.673-.695-4.468Zm-8.837 7.397V5.563l4.518 2.929-4.518 2.88Z" fill="#000"></path></g><defs><clipPath id="a"><path fill="#fff" transform="translate(0 .442)" d="M0 0h16v16H0z"></path></clipPath></defs></svg>