<svg viewBox="0 0 16 17" fill="none" xmlns="http://www.w3.org/2000/svg" role="img"><g clip-path="url(#a)"><circle cx="8" cy="8.442" r="6.563" fill="#6402FF"></circle><path d="M8 .442c-4.425 0-8 3.585-8 8 0 4.425 3.584 8 8 8 4.425 0 8-3.584 8-8 0-4.415-3.584-8-8-8Zm3.67 11.546a.497.497 0 0 1-.688.163c-1.883-1.147-4.244-1.405-7.035-.774a.495.495 0 1 1-.22-.965c3.049-.698 5.667-.402 7.77.889a.5.5 0 0 1 .172.688h.001Zm.975-2.179a.632.632 0 0 1-.86.21C9.635 8.7 6.356 8.318 3.814 9.082a.618.618 0 1 1-.354-1.185c2.905-.88 6.519-.459 8.994 1.061a.614.614 0 0 1 .191.85v.001Zm.086-2.275c-2.58-1.53-6.834-1.672-9.3-.927a.754.754 0 0 1-.937-.497.754.754 0 0 1 .497-.937c2.83-.86 7.532-.688 10.495 1.07.354.21.468.67.258 1.023-.191.364-.66.478-1.013.268Z" fill="#000"></path></g><defs><clipPath id="a"><path fill="#fff" transform="translate(0 .442)" d="M0 0h16v16H0z"></path></clipPath></defs></svg>