<svg width="214" height="104" viewBox="0 0 214 104" fill="none" xmlns="http://www.w3.org/2000/svg">
<path d="M63.9008 46.9191C63.9008 48.3606 63.1117 49.4256 61.5364 50.1199C60.7725 50.46 59.6796 50.6719 58.2576 50.7556C57.8673 50.7695 56.7158 50.7779 54.8003 50.7779H51.6944C51.4072 50.7779 51.2622 50.7193 51.2622 50.5966C51.2622 50.474 51.5243 50.4154 52.0512 50.4154C52.6618 50.4154 53.0215 50.3624 53.133 50.2565C53.2418 50.1505 53.2975 49.8299 53.2975 49.2918V37.827C53.2975 37.2053 53.2641 36.8456 53.1972 36.7452C53.0773 36.5751 52.6451 36.4831 51.9007 36.4692C51.4434 36.4692 51.2148 36.3939 51.2148 36.2461C51.2148 36.1123 51.4267 36.0454 51.8505 36.0454H52.1544C52.3412 36.0872 52.5113 36.1095 52.6618 36.1095H57.6191C59.4509 36.1235 60.8143 36.3772 61.7121 36.8735C62.7632 37.4534 63.2874 38.2926 63.2874 39.3939C63.2874 40.3558 62.8552 41.1421 61.9909 41.7555C61.1266 42.3689 59.9138 42.7536 58.3552 42.9098V43.038C59.897 43.1217 61.1015 43.3921 61.9658 43.8438C63.2539 44.5213 63.898 45.5473 63.898 46.9163L63.9008 46.9191ZM60.4937 39.6086C60.4937 38.2536 60.1201 37.3474 59.3757 36.8958C58.9853 36.656 58.2492 36.5361 57.1647 36.5361C56.8775 36.5361 56.4286 36.5584 55.818 36.6002V42.7425H56.0466L57.4463 42.7007C58.4137 42.6728 59.1638 42.3856 59.6963 41.8419C60.2316 41.2982 60.4965 40.5538 60.4965 39.6058L60.4937 39.6086ZM61.2325 46.6849C61.2325 44.9061 60.3682 43.802 58.6396 43.3782C58.1321 43.2499 57.1898 43.1886 55.818 43.1886V49.5037C55.818 49.9135 55.8682 50.1477 55.9713 50.2035C56.1414 50.3011 56.6154 50.3513 57.3961 50.3513C58.5671 50.3513 59.4983 50.0418 60.1926 49.42C60.8868 48.7983 61.2353 47.8866 61.2353 46.6877L61.2325 46.6849Z" fill="#020A18" style="fill:#020A18;fill:color(display-p3 0.0078 0.0392 0.0941);fill-opacity:1;"/>
<path d="M80.9908 50.6363C80.9908 50.7562 80.8626 50.8175 80.6088 50.8175C80.4388 50.8175 80.2854 50.8092 80.1516 50.7952L76.9229 50.7116L73.6943 50.7952C73.5744 50.8092 73.4489 50.8175 73.3123 50.8175C72.9722 50.8175 72.8049 50.745 72.8049 50.5973C72.8049 50.4356 73.0335 50.3519 73.4907 50.3519C74.9824 50.338 75.7296 50.2125 75.7296 49.9783C75.7296 49.9644 75.7129 49.9086 75.6766 49.8138L75.4675 49.2534L75.3365 48.9578C75.1831 48.5201 74.8123 47.5498 74.2184 46.0526H68.7816C67.7639 48.3138 67.2565 49.6131 67.2565 49.9504C67.2565 50.1484 67.3569 50.2683 67.5604 50.3101C67.6106 50.324 68.0344 50.3519 68.8318 50.3937C69.3225 50.4077 69.5706 50.4774 69.5706 50.6056C69.5706 50.7478 69.3504 50.8175 68.9098 50.8175C68.1292 50.8175 67.223 50.7896 66.1886 50.7339C65.9349 50.7199 65.67 50.7116 65.3996 50.7116C65.1291 50.7116 64.8643 50.7339 64.6106 50.7813C64.4739 50.8036 64.3652 50.8175 64.2788 50.8175C64.0418 50.8175 63.9219 50.7534 63.9219 50.6252C63.9219 50.4969 64.1895 50.4272 64.7221 50.4133C65.2574 50.3993 65.6422 50.3324 65.8792 50.2125C66.1161 50.0926 66.3029 49.8612 66.4396 49.5211C68.6199 44.3045 70.3959 40.1167 71.7649 36.955C71.8039 36.7877 71.882 36.6009 72.0019 36.3918L72.1106 36.0042C72.1608 35.8481 72.2277 35.77 72.3142 35.77C72.3643 35.77 72.4062 35.8118 72.4424 35.8983C72.6627 36.4503 73.1617 37.6018 73.9424 39.3527C74.553 40.7245 76.0698 44.1623 78.4926 49.6716C78.6293 49.9922 78.8021 50.1958 79.014 50.2822C79.2259 50.3686 79.6637 50.4216 80.3244 50.4356C80.765 50.4495 80.9852 50.5164 80.9852 50.6363H80.9908ZM74.1013 45.5619C73.8253 44.9262 73.3681 43.8723 72.7296 42.403L71.5084 39.4643C70.7946 41.0284 69.9331 43.0582 68.9294 45.5591H74.1013V45.5619Z" fill="#020A18" style="fill:#020A18;fill:color(display-p3 0.0078 0.0392 0.0941);fill-opacity:1;"/>
<path d="M98.0023 43.4228C98.0023 45.9154 96.9595 47.8587 94.874 49.2444C93.3489 50.2648 91.3052 50.7751 88.7457 50.7751H81.8534C81.53 50.7751 81.3711 50.7054 81.3711 50.5632C81.3711 50.4349 81.6415 50.3736 82.1852 50.3736C82.8795 50.3736 83.3116 50.2676 83.4817 50.0557C83.5486 49.9582 83.5821 49.6877 83.5821 49.25V37.827C83.5821 37.1355 83.518 36.7313 83.3925 36.6197C83.2642 36.5082 82.8293 36.4497 82.0821 36.4497C81.6917 36.4497 81.4966 36.3716 81.4966 36.2155C81.4966 36.1012 81.6415 36.0454 81.9287 36.0454C81.912 36.0454 82.0988 36.0454 82.4891 36.0454H86.3535C89.4037 36.0454 91.5673 36.2238 92.8387 36.5779C94.3805 37.0017 95.6268 37.8437 96.5775 39.0956C97.5255 40.3503 98.0023 41.7917 98.0023 43.42V43.4228ZM95.1556 43.3363C95.1556 40.9832 94.6036 39.2601 93.5022 38.1616C92.4009 37.0631 90.6807 36.5138 88.3414 36.5138C87.2066 36.5138 86.518 36.6142 86.281 36.8121C86.1806 36.9125 86.1276 37.2527 86.1276 37.8326V49.1384C86.1276 49.5344 86.1416 49.7769 86.1667 49.8606C86.1918 49.947 86.2643 50.0167 86.3841 50.0725C86.7912 50.2425 87.6472 50.3262 88.952 50.3262C90.7838 50.3262 92.2587 49.7881 93.3768 48.7119C94.5645 47.5771 95.1556 45.7843 95.1556 43.3336V43.3363Z" fill="#020A18" style="fill:#020A18;fill:color(display-p3 0.0078 0.0392 0.0941);fill-opacity:1;"/>
<path d="M116.794 46.3234C116.794 46.4377 116.719 46.4935 116.565 46.4935H115.98C115.199 46.4656 114.759 46.5771 114.658 46.8308C114.591 47.0009 114.558 47.6115 114.558 48.6654V49.3401C113.694 49.9591 112.857 50.3941 112.054 50.6478C111.248 50.9015 110.286 51.027 109.168 51.027C106.489 51.027 104.362 50.3606 102.786 49.0251C101.211 47.6896 100.422 45.8773 100.422 43.591C100.422 41.3048 101.194 39.4033 102.736 37.9757C104.278 36.5482 106.313 35.8345 108.839 35.8345C109.941 35.8345 111.145 36.0882 112.45 36.5984C112.84 36.7545 113.161 36.8326 113.418 36.8326C113.738 36.8326 113.953 36.6625 114.053 36.3252C114.137 36.1272 114.24 36.0296 114.357 36.0296C114.494 36.0296 114.561 36.0854 114.561 36.1997C114.561 36.2415 114.547 36.3893 114.516 36.6458C114.427 37.4516 114.382 38.0315 114.382 38.3828V39.7601C114.399 40.2536 114.407 40.4739 114.407 40.4181C114.374 40.7583 114.262 40.9256 114.076 40.9256C113.922 40.9256 113.839 40.8252 113.822 40.6272C113.738 39.2499 113.261 38.1681 112.397 37.3819C111.533 36.5956 110.398 36.1997 108.99 36.1997C107.228 36.1997 105.834 36.8577 104.808 38.1765C103.782 39.4953 103.269 41.2852 103.269 43.552C103.269 45.8187 103.79 47.4665 104.833 48.7491C105.876 50.0316 107.286 50.6729 109.068 50.6729C110.423 50.6729 111.357 50.3494 111.865 49.7026C112.118 49.3792 112.246 48.7965 112.246 47.9517C112.246 47.249 112.166 46.8336 112.004 46.7082C111.842 46.5827 111.287 46.5241 110.339 46.5381C110.102 46.5381 109.949 46.5269 109.882 46.5074C109.815 46.4851 109.782 46.4405 109.782 46.3708C109.782 46.2174 109.969 46.1394 110.342 46.1394H110.799C111.053 46.1533 111.951 46.1533 113.496 46.1394H116.292C116.632 46.1394 116.8 46.2035 116.8 46.329L116.794 46.3234Z" fill="#020A18" style="fill:#020A18;fill:color(display-p3 0.0078 0.0392 0.0941);fill-opacity:1;"/>
<path d="M129.838 49.0994C129.838 49.4674 129.812 50.0753 129.762 50.9228H129.484C129.384 50.9228 129.135 50.9089 128.747 50.881C128.357 50.8531 127.92 50.8392 127.429 50.8392L116.871 50.7751C116.583 50.7751 116.438 50.7109 116.438 50.5855C116.438 50.4879 116.667 50.4238 117.124 50.3959C117.768 50.368 118.153 50.3067 118.281 50.2147C118.41 50.1227 118.471 49.8578 118.471 49.42V37.5092C118.471 36.9878 118.407 36.6839 118.281 36.5974C118.153 36.5138 117.701 36.4692 116.921 36.4692C116.597 36.4692 116.438 36.3911 116.438 36.235C116.438 36.1067 116.539 36.0454 116.742 36.0454H116.971C117.531 36.0872 118.641 36.1095 120.303 36.1095C120.456 36.1095 120.752 36.0984 121.192 36.0788C121.633 36.0565 121.998 36.0482 122.285 36.0482H122.564C122.868 36.0482 123.021 36.1179 123.021 36.2601C123.021 36.3437 122.974 36.3967 122.882 36.419C122.79 36.4413 122.497 36.458 122.003 36.472C121.513 36.4859 121.22 36.5528 121.125 36.6727C121.033 36.7926 120.986 37.1634 120.986 37.7852V50.2872C121.443 50.3011 122.079 50.3095 122.893 50.3095C124.875 50.3095 126.275 50.2258 127.089 50.0557C127.903 49.8857 128.452 49.5678 128.742 49.1022C129.03 48.6366 129.199 48.0065 129.249 47.2174C129.266 47.0334 129.364 46.9414 129.543 46.9414C129.754 46.9414 129.852 47.0473 129.835 47.2592V49.1022L129.838 49.0994Z" fill="#020A18" style="fill:#020A18;fill:color(display-p3 0.0078 0.0392 0.0941);fill-opacity:1;"/>
<path d="M144.406 47.364C144.406 47.4198 144.389 47.7655 144.355 48.4012C144.322 49.0369 144.305 49.6447 144.305 50.2246V50.9245C142.644 50.8408 139.356 50.7962 134.438 50.7962H131.26C130.936 50.7962 130.777 50.7404 130.777 50.6261C130.777 50.5508 130.827 50.5062 130.931 50.4923C130.981 50.4923 131.304 50.4728 131.898 50.4365C132.339 50.4087 132.606 50.3306 132.698 50.2023C132.79 50.0741 132.838 49.7423 132.838 49.2042V37.2598C132.838 36.85 132.765 36.6046 132.623 36.5266C132.478 36.4485 132.018 36.4095 131.237 36.4095C130.967 36.4095 130.83 36.3509 130.83 36.2282C130.83 36.1056 131.017 36.047 131.391 36.047H142.172C142.68 36.047 143.148 36.0191 143.572 35.9634C143.605 36.5712 143.684 37.4104 143.801 38.4838L143.901 39.3955C143.918 39.4652 143.926 39.5573 143.926 39.6716C143.926 39.8138 143.851 39.8835 143.697 39.8835C143.511 39.8835 143.374 39.705 143.29 39.3509C142.967 38.0712 142.443 37.2598 141.715 36.9197C141.171 36.6632 139.749 36.5349 137.444 36.5349H135.358V42.7664H135.969C137.868 42.7664 139.025 42.6465 139.44 42.4067C139.855 42.1669 140.14 41.4671 140.293 40.3101C140.327 40.0145 140.421 39.864 140.572 39.864C140.759 39.864 140.851 39.9922 140.851 40.2459C140.851 40.4996 140.834 40.8733 140.801 41.3695C140.767 41.863 140.75 42.2394 140.75 42.4932C140.75 44.0043 140.778 45.0443 140.831 45.6075C140.845 45.7497 140.851 45.8696 140.851 45.9672C140.851 46.1512 140.759 46.2432 140.572 46.2432C140.455 46.2432 140.374 46.1846 140.332 46.062C140.29 45.9421 140.218 45.5489 140.118 44.8854C139.984 44.0517 139.568 43.5359 138.877 43.338C138.573 43.2543 137.781 43.2097 136.499 43.2097H135.358V50.3083C139.089 50.3083 141.275 50.2469 141.919 50.1187C143.037 49.9096 143.672 49.0174 143.826 47.4393C143.859 47.0908 143.971 46.9151 144.158 46.9151C144.328 46.9151 144.411 47.0629 144.411 47.3612L144.406 47.364Z" fill="#020A18" style="fill:#020A18;fill:color(display-p3 0.0078 0.0392 0.0941);fill-opacity:1;"/>
<path d="M160.678 36.2049C160.678 36.3109 160.533 36.3638 160.246 36.3638C159.314 36.3778 158.737 36.5144 158.517 36.7709C158.313 36.927 157.586 38.1427 156.331 40.4122C155.771 41.4159 155.247 42.297 154.756 43.0609C154.416 43.5851 154.22 43.942 154.17 44.1344C154.12 44.3267 154.095 44.7394 154.095 45.3779V49.3956C154.095 49.864 154.168 50.14 154.312 50.2236C154.457 50.3073 154.962 50.3714 155.826 50.416C156.284 50.4439 156.512 50.508 156.512 50.6168C156.512 50.7255 156.392 50.7785 156.155 50.7785H155.852L152.291 50.7143C151.29 50.7143 150.468 50.7283 149.824 50.7562C149.723 50.7701 149.603 50.7785 149.467 50.7785C149.23 50.7785 149.11 50.7115 149.11 50.5777C149.11 50.4439 149.305 50.3686 149.695 50.3547C150.627 50.3268 151.179 50.2571 151.349 50.1428C151.519 50.0312 151.602 49.6939 151.602 49.1307V44.6752C151.432 44.3658 150.942 43.5377 150.128 42.1966L147.585 38.0005C147.331 37.5906 147.024 37.1306 146.67 36.6231C146.483 36.4809 146.082 36.4112 145.463 36.4112C144.844 36.4112 144.535 36.3332 144.535 36.177C144.535 36.0627 144.671 36.007 144.942 36.007C145.298 36.007 146.009 36.0209 147.077 36.0488C147.688 36.0627 148.128 36.0711 148.399 36.0711L151.349 36.0404C151.466 36.0181 151.602 36.0097 151.756 36.0097C152.06 36.0097 152.213 36.0822 152.213 36.2244C152.213 36.3527 151.926 36.4168 151.349 36.4168C150.298 36.4168 149.773 36.5729 149.773 36.8852C149.773 37.1278 150.306 38.1008 151.374 39.8044L153.682 43.4485C154.103 42.8184 154.586 42.0377 155.127 41.112L156.627 38.5916C157.195 37.6826 157.477 37.086 157.477 36.8016C157.477 36.6176 157.332 36.5116 157.045 36.4809C156.451 36.4112 156.052 36.3806 155.849 36.3945C155.475 36.4084 155.288 36.3387 155.288 36.1826C155.288 36.0683 155.45 36.0125 155.771 36.0125H158.085C159.813 35.9707 160.678 36.0376 160.678 36.2133V36.2049Z" fill="#020A18" style="fill:#020A18;fill:color(display-p3 0.0078 0.0392 0.0941);fill-opacity:1;"/>
<path d="M69.5438 69.0389C69.5438 69.1588 69.3654 69.2201 69.0113 69.2201H62.6767C62.3226 69.2201 62.1441 69.156 62.1441 69.0305C62.1441 68.8883 62.3895 68.8186 62.8802 68.8186C63.7445 68.8186 64.2687 68.7406 64.4555 68.5844C64.5391 68.5147 64.5838 68.0407 64.5838 67.1625V56.1689C64.5838 56.1828 64.4806 56.431 64.2771 56.9105C63.5968 58.6196 62.6098 61.1875 61.3133 64.6197L60.1339 67.9933C59.8969 68.6569 59.7268 68.9887 59.6237 68.9887C59.5038 68.9887 59.3783 68.8186 59.2417 68.4813C58.751 67.1959 57.3681 63.9868 55.0902 58.8566L54.0809 56.5955C54.0809 56.8631 54.0809 57.2312 54.0809 57.6968V64.5835C54.0809 67.1681 54.106 68.4757 54.1562 68.5036C54.2733 68.6876 54.6803 68.7796 55.3774 68.7796C55.9378 68.7796 56.2166 68.8493 56.2166 68.9915C56.2166 69.1476 56.0381 69.2257 55.6813 69.2257C55.461 69.2257 55.2575 69.2118 55.0707 69.1839C54.8337 69.156 54.6218 69.142 54.435 69.142L51.5102 69.2257C51.2063 69.2257 51.053 69.1616 51.053 69.0361C51.053 68.8939 51.5353 68.8158 52.5028 68.8019C52.9099 68.8019 53.1469 68.7461 53.2138 68.6318C53.2807 68.5175 53.3141 68.1495 53.3141 67.5277V57.3622C53.3141 56.1884 53.2974 55.5527 53.264 55.4523C53.197 55.2544 53.0521 55.1205 52.8318 55.0481C52.6115 54.9784 52.1376 54.9198 51.4071 54.878C51.1366 54.864 51 54.7999 51 54.6884C51 54.5323 51.2481 54.4542 51.7444 54.4542H53.5177C54.5298 54.4542 55.2407 54.4486 55.6534 54.4375C55.737 54.6215 56.2277 55.7339 57.1283 57.7721C57.5159 58.6197 58.5976 61.0955 60.3793 65.1941C60.6999 64.274 61.0289 63.3678 61.3663 62.4784L64.0847 55.4774C64.252 55.0732 64.4025 54.7414 64.5308 54.4765L68.3031 54.4542C68.8552 54.4542 69.173 54.4765 69.2594 54.5183C69.3431 54.5601 69.3849 54.6243 69.3849 54.7079C69.3849 54.8501 69.2399 54.9198 68.9528 54.9198C68.4788 54.9198 68.1554 54.9337 67.9853 54.9616C67.5782 55.0174 67.2994 55.1317 67.146 55.3018C67.0596 55.4022 67.0178 56.2302 67.0178 57.7888V67.6699C67.0178 68.2359 67.0847 68.5705 67.2213 68.6681C67.4416 68.7963 67.9936 68.8604 68.8747 68.8604H69.028C69.3682 68.8604 69.5355 68.9218 69.5355 69.0417L69.5438 69.0389Z" fill="#020A18" style="fill:#020A18;fill:color(display-p3 0.0078 0.0392 0.0941);fill-opacity:1;"/>
<path d="M77.835 68.9999C77.835 69.1198 77.7346 69.1811 77.5311 69.1811H77.2773C77.177 69.1393 76.0227 69.117 73.8201 69.117C73.3963 69.117 72.9725 69.1309 72.5487 69.1588C72.3284 69.1728 71.9883 69.1811 71.531 69.1811C71.3107 69.1811 71.1992 69.117 71.1992 68.9915C71.1992 68.88 71.4195 68.8159 71.86 68.8019C72.5375 68.788 72.9362 68.7211 73.0561 68.6012C73.1732 68.4813 73.2346 68.0742 73.2346 67.38V56.1996C73.2346 55.5053 73.1927 55.115 73.1063 55.0314C73.0031 54.8892 72.5319 54.8055 71.6899 54.7749C71.3637 54.7637 71.202 54.7135 71.202 54.6243C71.202 54.5128 71.3052 54.457 71.5087 54.457H74.9688C75.2253 54.457 75.7188 54.4654 76.4548 54.4793L77.4279 54.457C77.7011 54.457 77.8378 54.5184 77.8378 54.6382C77.8378 54.7442 77.4614 54.8111 76.7058 54.839C76.2764 54.8529 76.0143 54.9171 75.9195 55.0286C75.8247 55.1429 75.7773 55.4384 75.7773 55.918V67.2322C75.7773 68.038 75.8191 68.4757 75.9056 68.5454C76.0924 68.7016 76.6416 68.7936 77.5589 68.8214C77.7457 68.8214 77.8378 68.8828 77.8378 69.0027L77.835 68.9999Z" fill="#020A18" style="fill:#020A18;fill:color(display-p3 0.0078 0.0392 0.0941);fill-opacity:1;"/>
<path d="M90.448 65.0475C90.448 66.2631 89.8932 67.2975 88.7835 68.1507C87.6738 69.0066 86.3383 69.4332 84.7797 69.4332C83.8652 69.4332 82.7723 69.199 81.5009 68.7334C81.1607 68.6051 80.907 68.5438 80.7369 68.5438C80.5334 68.5438 80.4052 68.739 80.355 69.1293C80.3382 69.33 80.2267 69.4332 80.0232 69.4332C79.8531 69.4332 79.7695 69.3496 79.7695 69.1795C79.7695 69.0652 79.7778 68.9815 79.7946 68.9258C79.9312 68.0642 79.9981 67.2668 79.9981 66.5308C79.9981 66.3886 79.9814 65.9954 79.9479 65.343C79.9312 65.2594 79.9228 65.1451 79.9228 65.0029C79.9228 64.791 80.0232 64.685 80.2267 64.685C80.3968 64.685 80.5139 64.8551 80.5836 65.198C81.0241 67.738 82.4572 69.0066 84.8801 69.0066C85.9145 69.0066 86.7147 68.764 87.2835 68.2761C87.8523 67.7882 88.1366 67.0995 88.1366 66.2101C88.1366 65.4183 87.8606 64.7436 87.3114 64.1859C86.7593 63.6283 85.8141 63.0735 84.4758 62.5214C82.8643 61.8579 81.7462 61.2138 81.1189 60.592C80.4916 59.9703 80.1793 59.2008 80.1793 58.2835C80.1793 57.1097 80.6338 56.1422 81.5399 55.381C82.4461 54.6171 83.5948 54.2379 84.9861 54.2379C85.5632 54.2379 86.3578 54.3996 87.3755 54.7258C87.7324 54.8401 87.9944 54.8959 88.1645 54.8959C88.3513 54.8959 88.474 54.868 88.5326 54.8123C88.5911 54.7565 88.6469 54.6087 88.6971 54.3662C88.7305 54.224 88.8253 54.1543 88.9759 54.1543C89.1459 54.1543 89.2296 54.2379 89.2296 54.408C89.2296 54.5223 89.2212 54.6059 89.2045 54.6617C89.1543 55.0018 89.1292 55.4117 89.1292 55.8913C89.1292 56.5688 89.171 57.1069 89.2575 57.5028L89.2826 57.843C89.2993 57.9991 89.224 58.0772 89.0539 58.0772C88.8671 58.0772 88.7389 57.9154 88.672 57.5892C88.4852 56.7556 88.0446 56.0613 87.3504 55.5009C86.6561 54.9433 85.8755 54.6645 85.0111 54.6645C84.1468 54.6645 83.4888 54.8903 82.9898 55.342C82.4907 55.7937 82.2397 56.4099 82.2397 57.185C82.2397 58.0883 82.605 58.816 83.3327 59.3681C83.7398 59.6803 84.6208 60.1181 85.9758 60.6813C87.5679 61.3448 88.7138 62.0196 89.408 62.7054C90.1023 63.3913 90.4508 64.172 90.4508 65.0475H90.448Z" fill="#020A18" style="fill:#020A18;fill:color(display-p3 0.0078 0.0392 0.0941);fill-opacity:1;"/>
<path d="M106.644 64.4498C106.644 64.422 106.628 64.6115 106.594 65.0214C106.527 65.8411 106.494 66.6329 106.494 67.3941C106.494 67.4777 106.51 67.6506 106.544 67.9127C106.577 68.1748 106.594 68.4898 106.594 68.8551V69.0447C106.594 69.2287 106.527 69.3207 106.391 69.3207C106.254 69.3207 106.137 69.2147 106.034 69.0028C105.797 68.5372 105.56 68.2333 105.323 68.0911C104.102 68.9805 102.635 69.4266 100.923 69.4266C98.4307 69.4266 96.3675 68.7017 94.7308 67.2547C93.0942 65.8077 92.2773 63.9814 92.2773 61.776C92.2773 59.5706 93.0273 57.7472 94.5273 56.342C96.0273 54.9367 97.9651 54.2341 100.338 54.2341C101.202 54.2341 101.893 54.2955 102.409 54.4154C102.925 54.5353 103.566 54.7806 104.33 55.1459C104.704 55.3299 104.983 55.4219 105.169 55.4219C105.323 55.4219 105.465 55.3076 105.602 55.0817C105.822 54.6858 106 54.4879 106.137 54.4879C106.273 54.4879 106.34 54.5436 106.34 54.6579C106.34 54.7137 106.324 54.8057 106.29 54.934C106.103 55.6115 106.011 56.8829 106.011 58.7481C106.011 59.0158 105.986 59.1719 105.936 59.2137C105.886 59.2556 105.816 59.2779 105.733 59.2779C105.563 59.2779 105.454 59.144 105.401 58.8764C105.181 57.7472 104.865 56.9052 104.461 56.3559C103.63 55.2267 102.325 54.6607 100.547 54.6607C99.1751 54.6607 98.0877 55.0427 97.2931 55.8038C95.8517 57.1756 95.1323 59.1803 95.1323 61.8206C95.1323 64.1794 95.7262 66.0084 96.9111 67.3077C97.9455 68.4369 99.3173 69.0028 101.029 69.0028C101.91 69.0028 102.716 68.8216 103.444 68.462C104.171 68.1023 104.732 67.6116 105.122 66.9898C105.563 66.2705 105.875 65.4842 106.062 64.6366C106.128 64.2965 106.24 64.1292 106.393 64.1292C106.563 64.1292 106.647 64.2351 106.647 64.447L106.644 64.4498Z" fill="#020A18" style="fill:#020A18;fill:color(display-p3 0.0078 0.0392 0.0941);fill-opacity:1;"/>
<path d="M125.16 68.9876C125.16 69.1159 125.001 69.1772 124.681 69.1772H119.154C118.817 69.1772 118.65 69.1214 118.65 69.0071C118.65 68.8928 119.043 68.8175 119.829 68.7757C120.247 68.7478 120.49 68.6893 120.557 68.5973C120.624 68.5053 120.657 68.179 120.657 67.6158V61.4457H113.004V67.443C113.004 68.0787 113.062 68.4523 113.182 68.5666C113.299 68.6809 113.698 68.7562 114.378 68.8008C114.819 68.8287 115.039 68.8928 115.039 68.9904C115.039 69.1186 114.869 69.18 114.532 69.18H109.014C108.674 69.18 108.507 69.1242 108.507 69.0099C108.507 68.8956 108.677 68.8259 109.014 68.798C109.234 68.7841 109.463 68.7701 109.7 68.7562C110.074 68.7283 110.311 68.6586 110.411 68.5443C110.461 68.4746 110.486 68.0787 110.486 67.3593V56.1873C110.486 55.5516 110.447 55.178 110.372 55.0665C110.297 54.9549 110.029 54.8908 109.572 54.8769C109.045 54.8462 108.735 54.8239 108.643 54.81C108.551 54.796 108.504 54.7347 108.504 54.6315C108.504 54.5116 108.613 54.4531 108.836 54.4531C108.903 54.4531 109.047 54.4614 109.268 54.4754C109.692 54.5033 110.692 54.5172 112.268 54.5172C113.132 54.5172 113.734 54.5061 114.074 54.4865C114.192 54.4642 114.345 54.4559 114.532 54.4559C114.836 54.4559 114.989 54.5256 114.989 54.6678C114.989 54.796 114.713 54.8601 114.164 54.8601C113.614 54.8601 113.283 54.9131 113.171 55.0191C113.06 55.125 113.007 55.4624 113.007 56.0284V60.9188H120.66V56.349C120.66 55.599 120.593 55.1557 120.457 55.0191C120.32 54.8852 119.846 54.8239 119.032 54.8378C118.778 54.8378 118.65 54.7737 118.65 54.6455C118.65 54.5172 118.795 54.4531 119.082 54.4531H124.625C124.982 54.4531 125.16 54.5172 125.16 54.6427C125.16 54.7681 124.786 54.8406 124.042 54.8546C123.822 54.8546 123.66 54.8685 123.56 54.8964C123.39 54.9382 123.284 55.0163 123.242 55.1306C123.2 55.2449 123.178 55.5767 123.178 56.126V67.3984C123.178 68.0759 123.22 68.4718 123.303 68.5861C123.47 68.7422 123.956 68.8203 124.759 68.8203C125.026 68.7924 125.16 68.8482 125.16 68.9904V68.9876Z" fill="#020A18" style="fill:#020A18;fill:color(display-p3 0.0078 0.0392 0.0941);fill-opacity:1;"/>
<path d="M143.798 69.0068C143.798 69.1351 143.678 69.1964 143.441 69.1964H136.88C136.557 69.1964 136.398 69.1435 136.398 69.0347C136.398 68.926 136.61 68.8619 137.034 68.834C137.915 68.7643 138.355 68.6444 138.355 68.4743C138.355 68.2903 136.041 65.9957 131.413 61.5876V67.6936C131.413 68.1871 131.505 68.4938 131.692 68.6137C131.879 68.7336 132.378 68.7922 133.192 68.7922C133.379 68.7922 133.471 68.8619 133.471 69.0041C133.471 69.1295 133.351 69.1937 133.114 69.1937H127.214C126.96 69.1937 126.832 69.1323 126.832 69.0124C126.832 68.8786 127.144 68.8033 127.772 68.7922C128.349 68.7782 128.686 68.6723 128.789 68.4743C128.84 68.4046 128.865 67.9585 128.865 67.1388V55.3367C128.848 55.0411 128.377 54.8905 127.457 54.8905C127.038 54.8905 126.832 54.8125 126.832 54.6563C126.832 54.5281 126.977 54.4668 127.267 54.4668C127.353 54.4668 127.465 54.4751 127.602 54.4891C127.875 54.5169 128.636 54.5309 129.882 54.5309C131.215 54.5309 132.06 54.5169 132.419 54.4891C132.606 54.4751 132.804 54.4668 133.008 54.4668C133.314 54.4668 133.468 54.5448 133.468 54.701C133.468 54.7846 133.42 54.8376 133.326 54.8599C133.231 54.8822 132.935 54.8989 132.436 54.9129C131.937 54.9268 131.642 54.9826 131.547 55.0829C131.452 55.1805 131.405 55.5012 131.405 56.0365V61.2057L133.565 59.4045C136.836 56.6666 138.472 55.2419 138.472 55.1275C138.472 54.9435 138.074 54.8571 137.276 54.871C136.769 54.885 136.512 54.8153 136.512 54.6591C136.512 54.5588 136.63 54.503 136.869 54.4891C137.106 54.4751 137.929 54.4668 139.337 54.4668H140.736C141.33 54.4668 141.668 54.4751 141.754 54.4891C141.924 54.5169 142.008 54.5866 142.008 54.701C142.008 54.8571 141.821 54.9352 141.447 54.9352C140.667 54.9212 140.165 54.9352 139.945 54.9798C139.724 55.0244 139.504 55.1415 139.281 55.3339C138.183 56.2986 136.51 57.7428 134.26 59.6666L133.579 60.2019L133.253 60.5031C133.353 60.6034 133.78 60.9826 134.525 61.649C135.949 62.8785 137.993 64.8497 140.656 67.5626C141.216 68.1286 141.601 68.4659 141.813 68.5803C142.025 68.6946 142.437 68.7643 143.048 68.7922C143.539 68.82 143.787 68.8897 143.787 69.0041L143.798 69.0068Z" fill="#020A18" style="fill:#020A18;fill:color(display-p3 0.0078 0.0392 0.0941);fill-opacity:1;"/>
<path d="M159.561 69.0379C159.561 69.1578 159.432 69.2192 159.179 69.2192C159.009 69.2192 158.855 69.2108 158.721 69.1969L155.493 69.1132L152.264 69.1969C152.144 69.2108 152.019 69.2192 151.882 69.2192C151.542 69.2192 151.375 69.1467 151.375 68.9989C151.375 68.8372 151.603 68.7535 152.061 68.7535C153.552 68.7396 154.299 68.6141 154.299 68.3799C154.299 68.366 154.283 68.3102 154.246 68.2154L154.037 67.655L153.906 67.3595C153.753 66.9217 153.382 65.9515 152.788 64.4543H147.351C146.334 66.7154 145.826 68.0147 145.826 68.3521C145.826 68.55 145.927 68.6699 146.13 68.7117C146.18 68.7257 146.604 68.7535 147.402 68.7954C147.892 68.8093 148.14 68.879 148.14 69.0073C148.14 69.1495 147.92 69.2192 147.48 69.2192C146.699 69.2192 145.793 69.1913 144.758 69.1355C144.505 69.1216 144.24 69.1132 143.969 69.1132C143.699 69.1132 143.434 69.1355 143.18 69.1829C143.044 69.2052 142.935 69.2192 142.849 69.2192C142.612 69.2192 142.492 69.155 142.492 69.0268C142.492 68.8985 142.759 68.8288 143.292 68.8149C143.827 68.8009 144.212 68.734 144.449 68.6141C144.686 68.4943 144.873 68.2628 145.009 67.9227C147.19 62.7061 148.966 58.5183 150.335 55.3566C150.374 55.1893 150.452 55.0025 150.572 54.7934L150.68 54.4058C150.731 54.2497 150.798 54.1716 150.884 54.1716C150.934 54.1716 150.976 54.2135 151.012 54.2999C151.232 54.8519 151.732 56.0034 152.512 57.7544C153.123 59.1261 154.64 62.5639 157.062 68.0732C157.199 68.3939 157.372 68.5974 157.584 68.6838C157.796 68.7703 158.233 68.8232 158.894 68.8372C159.335 68.8511 159.555 68.918 159.555 69.0379H159.561ZM152.671 63.9635C152.395 63.3278 151.938 62.2739 151.299 60.8046L150.078 57.8659C149.364 59.43 148.503 61.4598 147.499 63.9608H152.671V63.9635Z" fill="#020A18" style="fill:#020A18;fill:color(display-p3 0.0078 0.0392 0.0941);fill-opacity:1;"/>
<path d="M162.524 68.7189C162.524 69.0088 162.421 69.257 162.218 69.4633C162.014 69.6696 161.766 69.77 161.473 69.77C161.18 69.77 160.932 69.6668 160.729 69.4633C160.525 69.2598 160.422 69.0088 160.422 68.7133C160.422 68.4177 160.525 68.178 160.734 67.9772C160.943 67.7737 161.194 67.6733 161.49 67.6733C161.771 67.6733 162.014 67.7765 162.218 67.9828C162.421 68.1891 162.524 68.4345 162.524 68.7189ZM162.416 68.7133C162.416 68.4484 162.324 68.2254 162.137 68.0386C161.95 67.8545 161.724 67.7625 161.459 67.7625C161.208 67.7625 160.991 67.8573 160.807 68.0469C160.623 68.2365 160.531 68.4596 160.531 68.7189C160.531 68.9782 160.623 69.2096 160.807 69.3964C160.991 69.5832 161.214 69.678 161.473 69.678C161.732 69.678 161.956 69.5832 162.14 69.3964C162.324 69.2096 162.416 68.981 162.416 68.7133ZM162.028 69.2542C162.028 69.31 161.981 69.335 161.889 69.335C161.797 69.335 161.716 69.296 161.654 69.2207C161.632 69.1901 161.615 69.1566 161.607 69.1231C161.599 69.0953 161.587 69.0172 161.574 68.8917C161.565 68.8165 161.54 68.7635 161.495 68.7328C161.459 68.7105 161.401 68.6966 161.317 68.691V69.1622C161.317 69.2179 161.323 69.2458 161.334 69.2486C161.353 69.257 161.39 69.2598 161.445 69.2598C161.47 69.2598 161.484 69.2681 161.484 69.2849C161.484 69.3016 161.468 69.31 161.437 69.31H161.008C160.971 69.31 160.952 69.3016 160.952 69.2876C160.952 69.2737 160.974 69.2653 161.016 69.2653C161.058 69.2653 161.086 69.2626 161.094 69.2542C161.102 69.2486 161.108 69.2235 161.108 69.1845V68.2309C161.108 68.1891 161.105 68.1612 161.097 68.1529C161.088 68.1445 161.066 68.1389 161.027 68.1389H160.991C160.966 68.1389 160.952 68.1306 160.952 68.1166C160.952 68.1027 160.966 68.0943 160.991 68.0943H161.459C161.579 68.0943 161.674 68.1194 161.744 68.1696C161.813 68.2198 161.85 68.2867 161.85 68.3704C161.85 68.4707 161.799 68.5488 161.699 68.6018C161.643 68.6324 161.562 68.652 161.459 68.6603C161.448 68.6603 161.445 68.6603 161.445 68.6687C161.445 68.6715 161.451 68.6743 161.459 68.6743C161.585 68.6854 161.674 68.7244 161.727 68.7914C161.78 68.8583 161.816 68.9754 161.83 69.1427C161.838 69.2347 161.869 69.2793 161.916 69.2793C161.928 69.2793 161.93 69.2793 161.93 69.2737C161.93 69.2737 161.93 69.2709 161.928 69.2681C161.925 69.257 161.922 69.2486 161.922 69.2458C161.922 69.2124 161.939 69.1956 161.972 69.1956C162.008 69.1956 162.028 69.2124 162.028 69.2486V69.2542ZM161.618 68.3815C161.618 68.2226 161.546 68.1445 161.403 68.1445C161.362 68.1445 161.337 68.1501 161.328 68.1612C161.32 68.1724 161.317 68.1863 161.317 68.2059V68.6408C161.518 68.6408 161.618 68.5544 161.618 68.3815Z" fill="#020A18" style="fill:#020A18;fill:color(display-p3 0.0078 0.0392 0.0941);fill-opacity:1;"/>
</svg>
