<svg width="214" height="104" viewBox="0 0 214 104" fill="none" xmlns="http://www.w3.org/2000/svg">
<mask id="mask0_10436_27875" style="mask-type:luminance" maskUnits="userSpaceOnUse" x="50" y="34" width="114" height="39">
<path d="M164 34.4302H50V72.4302H164V34.4302Z" fill="white" style="fill:white;fill-opacity:1;"/>
</mask>
<g mask="url(#mask0_10436_27875)">
<mask id="mask1_10436_27875" style="mask-type:luminance" maskUnits="userSpaceOnUse" x="50" y="34" width="114" height="39">
<path d="M164 34.4302H50V72.4302H164V34.4302Z" fill="white" style="fill:white;fill-opacity:1;"/>
</mask>
<g mask="url(#mask1_10436_27875)">
<path fill-rule="evenodd" clip-rule="evenodd" d="M57.2264 47.1777C57.0779 47.3421 56.9244 47.5121 56.7608 47.688V47.6823V34.4229C55.1149 35.2903 53.4116 35.2781 51.7153 35.266C51.1438 35.262 50.5731 35.258 50.0057 35.2876V36.3842H53.3164V37.0055C53.3164 38.7387 53.3167 40.4721 53.3171 42.2056V42.2066C53.3181 47.4083 53.3192 52.6112 53.3107 57.812C53.3107 58.3575 53.2774 58.9031 53.2441 59.4486C53.2207 59.8336 53.1972 60.2186 53.1854 60.6036C53.174 60.9444 53.0431 61.0504 52.7129 61.0303C52.398 61.0124 52.0803 61.0167 51.7628 61.0209C51.6239 61.0227 51.4851 61.0246 51.3465 61.0246H50V62.1269H56.3964C56.4904 61.3052 56.5843 60.4948 56.6839 59.6359C56.7159 59.6841 56.7457 59.7285 56.7739 59.7704C56.8261 59.8478 56.8731 59.9176 56.9174 59.9882C57.5152 60.956 58.3464 61.643 59.3997 62.0524C62.9694 63.4468 67.2109 61.8521 69.1266 58.4076C70.254 56.3805 70.6183 54.193 70.4561 51.9082C70.3337 50.1789 69.8725 48.547 68.8449 47.1096C66.3967 43.6767 60.8941 43.5621 58.1016 46.2506C57.8031 46.5393 57.5249 46.8473 57.2264 47.1777ZM56.7556 53.41C56.7582 53.1091 56.7608 52.8076 56.7608 52.5066L56.7551 52.5125C56.7545 52.2819 56.7533 52.0513 56.7521 51.8208V51.8196C56.7479 51.0115 56.7437 50.2034 56.7637 49.3973C56.7693 49.1568 56.8576 48.8818 56.9971 48.6872C58.3236 46.8118 60.5668 45.9528 62.7587 46.4568C64.6261 46.8862 65.7022 48.1718 66.2715 49.9011C67.1141 52.4551 67.134 55.0606 66.4452 57.6576C66.1405 58.8028 65.5712 59.8078 64.5778 60.5036C61.7339 62.4991 57.7714 60.9472 57.0028 57.5257C56.8547 56.8615 56.795 56.1686 56.7693 55.4843C56.7436 54.7939 56.7496 54.1022 56.7556 53.41ZM129.107 46.3553H134.179L134.182 46.3495C134.102 46.639 134.022 46.9243 133.942 47.2067C133.751 47.8849 133.564 48.5479 133.394 49.2127C132.851 51.3161 132.312 53.4194 131.772 55.5225L131.771 55.5271L131.77 55.5308L131.768 55.5384L131.767 55.544C131.023 58.4438 130.279 61.3432 129.528 64.2415C129.101 65.8822 128.617 67.5083 127.743 68.9799C127.083 70.0938 126.234 70.9785 124.913 71.2534C124.057 71.4308 123.211 71.428 122.42 70.9728C122.547 70.934 122.674 70.9243 122.8 70.9147C122.831 70.9122 122.863 70.9099 122.895 70.907C123.795 70.8268 124.435 70.3172 124.629 69.5327C124.891 68.4733 124.395 67.431 123.465 67.076C122.377 66.6608 121.125 67.0988 120.624 68.0695C119.832 69.6127 120.592 71.5111 122.266 72.1124C123.829 72.6764 125.355 72.4445 126.824 71.7717C128.691 70.9156 129.98 69.4239 131.045 67.7174C132.517 65.3525 133.465 62.7583 134.185 60.0841C135.185 56.3712 136.141 52.644 137.096 48.918C137.278 48.211 137.459 47.5032 137.641 46.7962C137.729 46.4469 137.866 46.341 138.219 46.3438C139.668 46.3592 141.116 46.3578 142.565 46.3563C143 46.3558 143.434 46.3553 143.869 46.3553C143.979 46.3553 144.088 46.3636 144.189 46.3713L144.241 46.3751L144.285 46.3782V61.0434H141.262V62.1284H150.804V61.0233H147.766V44.4913C147.523 44.558 147.287 44.6376 147.053 44.7161C146.555 44.8833 146.073 45.0454 145.583 45.0668C143.803 45.1437 142.019 45.1649 140.235 45.186C139.56 45.1939 138.885 45.2018 138.21 45.2128C138.193 45.2128 138.176 45.2015 138.151 45.1848C138.138 45.1763 138.123 45.1663 138.105 45.1557C138.113 45.1195 138.12 45.0821 138.127 45.0444C138.144 44.9568 138.162 44.8655 138.187 44.7778C138.313 44.3644 138.433 43.9491 138.553 43.5337V43.5323C138.84 42.5411 139.128 41.5492 139.483 40.5831C139.827 39.6468 140.274 38.7249 140.823 37.8946C141.868 36.3198 143.422 35.813 145.241 36.1194C145.512 36.1647 145.771 36.2752 146.031 36.3853C146.148 36.4352 146.264 36.4852 146.383 36.5289C146.127 36.632 145.916 36.632 145.706 36.632C144.729 36.6406 143.96 37.3219 143.835 38.2925C143.716 39.2317 144.2 40.1136 145.025 40.4515C145.978 40.8409 147.075 40.5487 147.689 39.7384C148.666 38.45 148.207 36.4029 146.75 35.5639C145.486 34.8367 144.123 34.8597 142.765 35.1603C140.61 35.6385 139.019 36.9756 137.709 38.6906C136.303 40.5316 135.383 42.6218 134.666 44.8063C134.555 45.1471 134.396 45.2415 134.057 45.2387C132.976 45.224 131.896 45.2262 130.815 45.2284C130.422 45.2293 130.029 45.23 129.636 45.23H129.107V46.3553ZM108.169 61.0406H111.195V62.1315H101.975V61.0434H104.711C104.715 60.9703 104.721 60.9036 104.726 60.8408C104.734 60.7387 104.742 60.647 104.742 60.5566C104.742 59.3879 104.743 58.219 104.743 57.0498V57.0289C104.745 54.6763 104.746 52.3233 104.742 49.9715C104.742 48.7461 104.463 47.6151 103.356 46.9021C102.302 46.2264 101.138 46.2465 99.9653 46.5157C98.6843 46.8078 97.6139 47.4891 96.7143 48.4339C96.5749 48.5799 96.4838 48.8321 96.4838 49.0353C96.4767 50.9595 96.4752 52.8844 96.4738 54.8093C96.4724 56.7339 96.471 58.6586 96.4638 60.5825C96.4638 60.9604 96.5891 61.0463 96.9365 61.0378C97.4625 61.0217 97.9898 61.0252 98.5283 61.0288C98.7617 61.0304 98.9981 61.032 99.2365 61.032V62.1343H89.9222V61.032H93.0052V46.3725H89.9336V45.2529C90.4608 45.2259 90.992 45.2267 91.5245 45.2277C93.1833 45.2306 94.8557 45.2336 96.4611 44.3882V47.6895L96.6238 47.5075C96.8192 47.2888 96.9672 47.123 97.1186 46.9594C98.9462 45.001 101.172 44.1077 103.842 44.4627C106.373 44.8005 108.075 46.6732 108.132 49.3016C108.178 51.4262 108.174 53.5521 108.17 55.6777C108.168 56.6224 108.167 57.5681 108.169 58.5123V61.0406ZM115.672 52.176H127.67C127.652 52.0324 127.637 51.8985 127.623 51.7708C127.597 51.5341 127.573 51.319 127.536 51.1051C127.195 49.121 126.418 47.3602 124.849 46.046C121.356 43.117 115.899 44.1505 113.519 48.1732C112.113 50.5497 111.755 53.115 112.241 55.8093C112.956 59.7548 115.959 62.3688 119.939 62.5206C122.512 62.6179 124.735 61.8707 126.369 59.7634C127.24 58.6382 127.753 57.3498 127.995 55.944C127.418 55.8715 127.036 56.0833 126.85 56.5796C126.759 56.823 126.665 57.0663 126.551 57.2982C125.575 59.3196 123.961 60.3504 121.732 60.3819C119.472 60.4134 117.744 59.4913 116.674 57.4385C116.005 56.1557 115.74 54.77 115.672 53.3385C115.662 53.0932 115.665 52.8467 115.668 52.5883V52.5872C115.67 52.4538 115.672 52.3171 115.672 52.176ZM123.706 50.8879L123.719 51.0192H123.716H115.674C115.679 50.9768 115.684 50.9348 115.688 50.8932C115.693 50.8514 115.697 50.8098 115.701 50.7687C115.723 50.5587 115.744 50.3571 115.777 50.1575C115.942 49.1239 116.244 48.1361 116.816 47.2485C117.889 45.5879 120.001 44.9779 121.593 45.94C122.054 46.2177 122.467 46.6672 122.751 47.1311C123.451 48.2645 123.578 49.5645 123.706 50.8879ZM88.6686 52.1962H76.6102C76.6557 54.6241 76.9147 56.9147 78.5886 58.7872C80.6069 61.0462 85.8105 61.3183 87.5925 57.1752C87.6779 56.9806 87.7548 56.7801 87.8288 56.5797C88.0129 56.0796 88.3962 55.8705 88.9789 55.9526C88.7426 57.2782 88.2729 58.5009 87.4816 59.5861C85.8419 61.8365 83.5474 62.6324 80.8687 62.5208C76.7496 62.3461 73.644 59.4485 73.1287 55.3084C72.8042 52.6943 73.2027 50.2292 74.6261 47.9757C76.8948 44.3826 81.6629 43.2744 85.1757 45.5622C87.0289 46.7704 87.9968 48.5829 88.4352 50.7102C88.5006 51.0295 88.5467 51.353 88.5976 51.7098C88.6198 51.8648 88.6428 52.0262 88.6686 52.1962ZM84.7744 51.0165C84.71 50.6961 84.6524 50.3823 84.596 50.0742C84.4753 49.4161 84.3595 48.7839 84.1908 48.1676C83.9403 47.2543 83.4791 46.4441 82.6223 45.9459C81.0196 45.0153 78.9416 45.5565 77.8513 47.1771C77.2535 48.0675 76.9347 49.0639 76.7696 50.1147C76.7368 50.3246 76.713 50.5374 76.6884 50.7565C76.6787 50.8421 76.669 50.9287 76.6585 51.0165H84.7744ZM157.478 40.1021H156.408V40.1049C156.401 40.2437 156.395 40.3777 156.39 40.5083C156.379 40.7983 156.369 41.0714 156.339 41.3418C156.174 42.8392 155.611 44.1076 154.159 44.7433C153.601 44.9867 152.969 45.101 152.357 45.1727C151.924 45.2244 151.482 45.2126 151.034 45.2005C150.839 45.1952 150.642 45.1899 150.444 45.1899V46.3753H154.036V46.9306C154.036 48.0604 154.036 49.1906 154.035 50.3209C154.035 52.5822 154.034 54.8442 154.036 57.1064C154.036 57.5787 154.039 58.0541 154.076 58.5265C154.233 60.5479 155.331 61.9508 157.276 62.3517C158.173 62.5378 159.161 62.5378 160.069 62.3831C162.451 61.9795 163.806 59.8551 164 57.7163C163.254 57.5474 163.209 57.573 163.003 58.2487C162.523 59.8235 161.412 60.5823 159.73 60.485C158.48 60.4106 157.705 59.6975 157.532 58.4492C157.495 58.1915 157.475 57.9309 157.475 57.6732V46.902V46.3551H163.444V45.2299H162.875C162.461 45.2299 162.047 45.2295 161.633 45.2289C160.391 45.2273 159.15 45.2256 157.908 45.2385C157.569 45.2413 157.464 45.1411 157.47 44.7976C157.484 43.8674 157.482 42.9374 157.479 42.0073C157.479 41.669 157.478 41.3308 157.478 40.9925V40.1021Z" fill="#020A18" style="fill:#020A18;fill:color(display-p3 0.0078 0.0392 0.0941);fill-opacity:1;"/>
</g>
</g>
</svg>
