<svg width="214" height="104" viewBox="0 0 214 104" fill="none" xmlns="http://www.w3.org/2000/svg">
<mask id="mask0_10436_27894" style="mask-type:luminance" maskUnits="userSpaceOnUse" x="39" y="46" width="136" height="13">
<path d="M174.498 46.1982H39V58.1191H174.498V46.1982Z" fill="white" style="fill:white;fill-opacity:1;"/>
</mask>
<g mask="url(#mask0_10436_27894)">
<path d="M48.5012 54.1829C48.5012 54.6817 48.4452 55.1658 48.3308 55.6334C48.2188 56.1011 47.9878 56.5212 47.6424 56.892C47.2947 57.2645 46.7929 57.5615 46.1371 57.7846C45.4791 58.0077 44.6063 58.1194 43.5164 58.1194C42.7113 58.1194 42.0252 58.0258 41.4581 57.8404C40.891 57.655 40.4266 57.399 40.0579 57.0758C39.6892 56.7525 39.4208 56.3669 39.2505 55.9206C39.0801 55.4743 38.9961 54.9919 38.9961 54.4701V53.8646H41.6495V54.4536C41.6495 55.1018 41.7942 55.6039 42.0836 55.96C42.3729 56.316 42.9213 56.4932 43.7288 56.4932C44.1535 56.4932 44.5036 56.4457 44.779 56.3505C45.0543 56.2537 45.2737 56.1142 45.4371 55.9271C45.6004 55.7417 45.7101 55.5104 45.7661 55.2331C45.8221 54.9574 45.8501 54.644 45.8501 54.2928V46.4692H48.5012V54.1829Z" fill="#020A18" style="fill:#020A18;fill:color(display-p3 0.0078 0.0392 0.0941);fill-opacity:1;"/>
<path d="M57.4898 47.8243C56.6847 47.8243 55.9868 47.9457 55.4011 48.1902C54.8131 48.4347 54.3369 48.7612 53.9682 49.1698C53.5995 49.5784 53.3288 50.0444 53.1515 50.5645C52.9741 51.0847 52.8854 51.6163 52.8854 52.1578C52.8854 52.6993 52.9741 53.2309 53.1515 53.7511C53.3288 54.2713 53.5995 54.7356 53.9682 55.1458C54.3369 55.5544 54.8131 55.881 55.4011 56.1254C55.9868 56.37 56.6847 56.493 57.4898 56.493C58.2949 56.493 58.9926 56.3716 59.5784 56.1254C60.1641 55.881 60.6425 55.5544 61.0113 55.1458C61.38 54.7373 61.6507 54.2713 61.8281 53.7511C62.0054 53.2309 62.0918 52.6993 62.0918 52.1578C62.0918 51.6163 62.0031 51.0847 61.8281 50.5645C61.6507 50.0444 61.3776 49.58 61.0113 49.1698C60.6425 48.7612 60.1665 48.4347 59.5784 48.1902C58.9926 47.9457 58.2949 47.8243 57.4898 47.8243ZM57.4898 46.1982C58.6216 46.1982 59.6367 46.3573 60.5352 46.6773C61.4337 46.9956 62.1922 47.4256 62.8152 47.967C63.4383 48.5085 63.9143 49.1419 64.2481 49.8639C64.5794 50.5859 64.7452 51.3521 64.7452 52.1595C64.7452 52.9668 64.5794 53.7478 64.2481 54.4698C63.9143 55.1918 63.4383 55.8235 62.8152 56.3667C62.1922 56.9081 61.4313 57.3364 60.5352 57.6498C59.6367 57.9632 58.6216 58.1191 57.4898 58.1191C56.3579 58.1191 55.3428 57.9616 54.4443 57.6498C53.5459 57.3364 52.7874 56.9081 52.1643 56.3667C51.5412 55.8252 51.0651 55.1934 50.7314 54.4698C50.4 53.7478 50.2344 52.9766 50.2344 52.1595C50.2344 51.3423 50.4 50.5875 50.7314 49.8639C51.0651 49.1419 51.5412 48.5102 52.1643 47.967C52.7874 47.4256 53.5482 46.994 54.4443 46.6773C55.3428 46.359 56.3579 46.1982 57.4898 46.1982Z" fill="#020A18" style="fill:#020A18;fill:color(display-p3 0.0078 0.0392 0.0941);fill-opacity:1;"/>
<path d="M76.3025 46.4692V50.9963H69.4089V46.4692H66.7578V57.8486H69.4089V52.716H76.3025V57.8486H78.9559V46.4692H76.3025Z" fill="#020A18" style="fill:#020A18;fill:color(display-p3 0.0078 0.0392 0.0941);fill-opacity:1;"/>
<path d="M91.5774 46.4692V54.8524H91.5354L84.6207 46.4692H81.8203V57.8486H84.343V49.4818H84.4083L91.302 57.8486H94.1025V46.4692H91.5774Z" fill="#020A18" style="fill:#020A18;fill:color(display-p3 0.0078 0.0392 0.0941);fill-opacity:1;"/>
<path d="M106.789 46.4692V54.8524H106.747L99.8316 46.4692H97.0312V57.8486H99.5564V49.4818H99.6193L106.514 57.8486H109.314V46.4692H106.789Z" fill="#020A18" style="fill:#020A18;fill:color(display-p3 0.0078 0.0392 0.0941);fill-opacity:1;"/>
<path d="M121.669 46.4692L117.725 51.569L113.716 46.4692H110.641L116.325 53.3855V57.8486H118.976V53.3855L124.64 46.4692H121.669Z" fill="#020A18" style="fill:#020A18;fill:color(display-p3 0.0078 0.0392 0.0941);fill-opacity:1;"/>
<path d="M146.457 46.4692L143.636 55.1707H143.593L140.623 46.4692H137.909L134.854 55.1707H134.81L132.074 46.4692H129.379L133.37 57.8486H136.105L139.202 49.1471H139.244L142.277 57.8486H144.973L149.15 46.4692H146.457Z" fill="#020A18" style="fill:#020A18;fill:color(display-p3 0.0078 0.0392 0.0941);fill-opacity:1;"/>
<path d="M154.476 48.43H154.54L156.81 53.3231H152.187L154.479 48.43H154.476ZM153.118 46.4692L147.305 57.8486H150.042L151.463 54.836H157.508L158.929 57.8486H161.771L155.937 46.4692H153.115H153.118Z" fill="#020A18" style="fill:#020A18;fill:color(display-p3 0.0078 0.0392 0.0941);fill-opacity:1;"/>
<path d="M164.805 54.0547C164.805 54.4895 164.903 54.862 165.101 55.1705C165.3 55.479 165.575 55.7316 165.928 55.9269C166.279 56.1238 166.689 56.2665 167.148 56.3568C167.608 56.447 168.107 56.493 168.644 56.493C169.225 56.493 169.72 56.4421 170.128 56.3404C170.539 56.2403 170.87 56.109 171.125 55.9499C171.379 55.7907 171.564 55.6069 171.675 55.4002C171.79 55.1918 171.845 54.9834 171.845 54.7701C171.845 54.3353 171.715 54.0136 171.453 53.8053C171.192 53.5969 170.905 53.4525 170.595 53.3671C170.058 53.2178 169.433 53.0767 168.719 52.9438C168.005 52.8109 167.124 52.6386 166.077 52.4269C165.425 52.2989 164.884 52.1332 164.455 51.9248C164.023 51.7181 163.68 51.4867 163.426 51.2308C163.171 50.9764 162.992 50.7057 162.884 50.4185C162.779 50.1313 162.725 49.8393 162.725 49.5423C162.725 48.968 162.884 48.4724 163.202 48.0524C163.519 47.6323 163.941 47.2844 164.464 47.0088C164.987 46.7331 165.582 46.528 166.247 46.3951C166.91 46.2655 167.584 46.1982 168.261 46.1982C169.052 46.1982 169.799 46.2753 170.499 46.4295C171.199 46.5838 171.813 46.8135 172.345 47.122C172.875 47.4305 173.295 47.8112 173.608 48.2624C173.918 48.7136 174.074 49.2371 174.074 49.8311H171.423C171.351 49.0976 171.02 48.5807 170.427 48.2772C169.831 47.9752 169.076 47.8226 168.156 47.8226C167.846 47.8226 167.526 47.8456 167.201 47.8948C166.877 47.9424 166.578 48.0212 166.31 48.1344C166.042 48.246 165.817 48.3969 165.64 48.5889C165.463 48.7809 165.375 49.0205 165.375 49.306C165.375 49.7096 165.543 50.0263 165.874 50.2544C166.205 50.4825 166.642 50.6548 167.178 50.7713C167.235 50.7828 167.456 50.8271 167.846 50.9075C168.236 50.9862 168.669 51.0748 169.15 51.17C169.631 51.2652 170.1 51.3587 170.56 51.449C171.02 51.5392 171.349 51.6065 171.547 51.6492C172.042 51.7673 172.473 51.9265 172.84 52.1283C173.206 52.3301 173.514 52.5615 173.762 52.8224C174.009 53.0816 174.194 53.3606 174.312 53.6592C174.434 53.9562 174.492 54.2548 174.492 54.5519C174.492 55.1885 174.319 55.7333 173.974 56.1862C173.626 56.6374 173.171 57.0066 172.606 57.2937C172.04 57.5809 171.398 57.7909 170.676 57.9239C169.956 58.0568 169.22 58.1224 168.471 58.1224C167.608 58.1224 166.796 58.0436 166.032 57.8828C165.269 57.7237 164.605 57.4792 164.039 57.1493C163.472 56.8195 163.019 56.3978 162.681 55.8826C162.34 55.3674 162.163 54.7586 162.152 54.0579H164.802L164.805 54.0547Z" fill="#020A18" style="fill:#020A18;fill:color(display-p3 0.0078 0.0392 0.0941);fill-opacity:1;"/>
</g>
</svg>
