<svg width="214" height="104" viewBox="0 0 214 104" fill="none" xmlns="http://www.w3.org/2000/svg">
<path d="M171.805 52.2921C170.913 52.2766 170.036 52.1872 169.222 51.7789C168.278 51.3044 167.789 50.5221 167.691 49.4853C167.617 48.7082 167.75 47.9757 168.226 47.3336C168.477 46.9949 168.798 46.743 169.188 46.5745C169.249 46.5478 169.315 46.4765 169.326 46.4163C169.333 46.3776 169.251 46.3011 169.194 46.277C168.413 45.9452 168.032 45.3099 167.887 44.5165C167.725 43.6276 167.823 42.7765 168.383 42.0286C168.792 41.4836 169.365 41.1784 170.005 41.0125C171.255 40.6884 172.514 40.6815 173.756 41.0383C175.515 41.5437 176.055 42.9708 175.795 44.5208C175.71 45.0314 175.505 45.4965 175.121 45.8541C174.937 46.026 174.701 46.1404 174.49 46.2839C174.435 46.3218 174.388 46.3708 174.336 46.4146C174.385 46.4688 174.425 46.5453 174.486 46.5736C175.344 46.9691 175.831 47.6559 175.955 48.5681C176.18 50.204 175.553 51.4978 173.84 52.0273C173.176 52.2328 172.494 52.2844 171.806 52.293L171.805 52.2921ZM171.877 50.4034C172.279 50.3295 172.7 50.2848 173.101 50.1722C173.664 50.0131 173.922 49.5919 173.941 49.0185C173.958 48.4658 173.753 48.0351 173.252 47.7625C172.83 47.533 172.37 47.4814 171.906 47.4746C171.39 47.4668 170.875 47.5046 170.411 47.7643C169.903 48.0488 169.705 48.5044 169.738 49.0735C169.772 49.6478 170.072 50.0312 170.617 50.1791C171.019 50.2882 171.439 50.3277 171.877 50.4034ZM171.665 45.4561C172.068 45.4062 172.414 45.3925 172.744 45.3151C173.45 45.1509 173.791 44.7563 173.862 44.0875C173.918 43.5502 173.692 43.0937 173.197 42.8874C172.396 42.5521 171.561 42.5917 170.737 42.792C170.132 42.939 169.835 43.3379 169.805 43.9431C169.778 44.5001 170.066 44.9936 170.6 45.1904C170.956 45.322 171.34 45.3778 171.665 45.4561Z" fill="#020A18" style="fill:#020A18;fill:color(display-p3 0.0078 0.0392 0.0941);fill-opacity:1;"/>
<path d="M97.5009 46.5428C97.5009 44.7522 97.5009 42.9615 97.5009 41.1708C97.5009 40.9622 97.6043 40.8579 97.8112 40.8579C100.381 40.8579 102.952 40.8579 105.522 40.8579C105.84 40.8579 105.851 40.8691 105.851 41.1803C105.851 41.617 105.846 42.0545 105.854 42.4913C105.857 42.6511 105.787 42.7139 105.642 42.7191C105.577 42.7216 105.513 42.7208 105.448 42.7208C103.536 42.7208 101.624 42.7208 99.7128 42.7208C99.4265 42.7208 99.4197 42.7277 99.4197 43.007C99.4197 43.516 99.4197 44.024 99.4197 44.533C99.4197 44.8115 99.436 44.827 99.7094 44.827C101.535 44.827 103.361 44.827 105.187 44.827C105.52 44.827 105.521 44.8278 105.521 45.1639C105.521 45.5723 105.521 45.9806 105.521 46.389C105.521 46.6684 105.507 46.6821 105.232 46.6821C103.391 46.6821 101.551 46.6821 99.7111 46.6821C99.4257 46.6821 99.4197 46.6873 99.4197 46.9701C99.4197 48.0017 99.4197 49.0324 99.4197 50.064C99.4197 50.3322 99.4429 50.3563 99.7137 50.3563C101.703 50.3563 103.694 50.3563 105.685 50.3563C106.005 50.3563 106.007 50.3589 106.007 50.6787C106.007 51.0939 106.007 51.5091 106.007 51.9252C106.007 52.1986 105.979 52.2261 105.717 52.2261C103.076 52.2261 100.433 52.2261 97.7915 52.2261C97.5112 52.2261 97.5 52.214 97.5 51.9355C97.5 50.138 97.5 48.3404 97.5 46.542L97.5009 46.5428Z" fill="#020A18" style="fill:#020A18;fill:color(display-p3 0.0078 0.0392 0.0941);fill-opacity:1;"/>
<path d="M134.555 46.5351C134.555 44.7444 134.555 42.9537 134.555 41.1622C134.555 40.8648 134.561 40.8579 134.853 40.8579C137.438 40.8579 140.024 40.8579 142.609 40.8579C142.904 40.8579 142.905 40.8588 142.905 41.1596C142.905 41.5826 142.905 42.0047 142.905 42.4276C142.905 42.6976 142.883 42.7199 142.61 42.7199C140.676 42.7199 138.743 42.7199 136.809 42.7199C136.586 42.7199 136.475 42.83 136.473 43.05C136.473 43.5512 136.479 44.0533 136.471 44.5544C136.467 44.7582 136.545 44.8304 136.75 44.8295C138.584 44.8244 140.417 44.8261 142.25 44.8261C142.568 44.8261 142.574 44.833 142.575 45.1502C142.575 45.5654 142.576 45.9815 142.575 46.3967C142.574 46.6512 142.544 46.6804 142.291 46.6804C140.457 46.6804 138.624 46.6804 136.791 46.6804C136.5 46.6804 136.474 46.7053 136.474 46.9985C136.474 48.0017 136.474 49.0041 136.474 50.0073C136.474 50.3503 136.479 50.3554 136.818 50.3554C138.773 50.3554 140.728 50.3554 142.684 50.3554C142.942 50.3554 143.07 50.481 143.07 50.732C143.07 51.1403 143.063 51.5487 143.074 51.957C143.079 52.165 142.998 52.2287 142.795 52.2287C140.146 52.2235 137.496 52.2252 134.846 52.2252C134.574 52.2252 134.556 52.2054 134.556 51.9278C134.556 50.1294 134.556 48.3318 134.556 46.5334L134.555 46.5351Z" fill="#020A18" style="fill:#020A18;fill:color(display-p3 0.0078 0.0392 0.0941);fill-opacity:1;"/>
<path d="M82.3047 52.2293C82.0614 52.2293 81.8172 52.2224 81.5748 52.2319C81.4347 52.237 81.3564 52.1915 81.2945 52.0591C81.0246 51.4908 80.7375 50.9312 80.4667 50.363C80.4014 50.2254 80.318 50.1807 80.1692 50.1807C78.3794 50.185 76.5896 50.1859 74.7998 50.1807C74.6416 50.1807 74.5539 50.2306 74.4843 50.375C74.2152 50.9355 73.9307 51.4891 73.6616 52.0496C73.5963 52.1854 73.5137 52.2344 73.3633 52.2319C72.8767 52.2233 72.3893 52.2301 71.9027 52.2284C71.6018 52.2276 71.5391 52.1296 71.6706 51.8614C72.8501 49.4543 74.0321 47.0481 75.2124 44.641C75.7979 43.447 76.3867 42.2546 76.9653 41.058C77.0478 40.8878 77.1458 40.8327 77.3367 40.8121C77.7312 40.7691 77.9152 40.9256 78.088 41.2823C79.7936 44.8009 81.5224 48.3084 83.2443 51.8192C83.4024 52.1416 83.3491 52.2284 82.9915 52.2293C82.7629 52.2293 82.5333 52.2293 82.3047 52.2293ZM77.4587 48.3049C77.9883 48.3049 78.5178 48.3066 79.0474 48.3049C79.3423 48.3032 79.4059 48.1966 79.2752 47.9301C78.7396 46.8401 78.2049 45.7491 77.6633 44.6617C77.6229 44.5809 77.5352 44.5233 77.4699 44.4545C77.4046 44.5224 77.316 44.5783 77.2765 44.6591C76.7358 45.7474 76.2019 46.8383 75.6672 47.9293C75.5314 48.2078 75.5941 48.3041 75.9131 48.3058C76.428 48.3075 76.9438 48.3049 77.4587 48.3049Z" fill="#020A18" style="fill:#020A18;fill:color(display-p3 0.0078 0.0392 0.0941);fill-opacity:1;"/>
<path d="M58.7361 52.2134C58.4851 52.2134 58.235 52.2074 57.9848 52.2151C57.8438 52.2194 57.7656 52.1635 57.7054 52.0363C57.4415 51.481 57.1655 50.9316 56.9025 50.3754C56.8329 50.2276 56.746 50.1657 56.5758 50.1665C54.786 50.1726 52.9962 50.1717 51.2064 50.1665C51.0559 50.1665 50.9734 50.2138 50.9081 50.3497C50.639 50.9102 50.3544 51.4638 50.0879 52.0251C50.0174 52.173 49.9246 52.2177 49.7707 52.2151C49.2842 52.2082 48.7967 52.2151 48.3102 52.2117C48.0119 52.21 47.9603 52.1283 48.0909 51.8609C49.1423 49.7169 50.1963 47.5738 51.2468 45.4289C51.9706 43.952 52.6919 42.4751 53.4105 40.9957C53.4716 40.8693 53.5524 40.8323 53.6891 40.8126C54.1137 40.7507 54.3321 40.9037 54.5281 41.3103C56.2285 44.8315 57.9616 48.338 59.6835 51.8498C59.8236 52.136 59.7789 52.21 59.4686 52.2117C59.2253 52.2134 58.982 52.2117 58.7379 52.2117L58.7361 52.2134ZM53.879 48.308C54.4155 48.308 54.9519 48.3105 55.4875 48.3071C55.7454 48.3054 55.821 48.1945 55.711 47.9692C55.1617 46.8474 54.6089 45.7264 54.0527 44.608C54.0218 44.5452 53.9409 44.4575 53.8945 44.4635C53.8275 44.473 53.7475 44.5461 53.7149 44.6123C53.1672 45.7195 52.6248 46.8293 52.0832 47.9392C51.9525 48.2065 52.0153 48.3071 52.3127 48.308C52.8346 48.3097 53.3572 48.308 53.879 48.308Z" fill="#020A18" style="fill:#020A18;fill:color(display-p3 0.0078 0.0392 0.0941);fill-opacity:1;"/>
<path d="M163.302 44.6919C163.302 45.8731 163.302 47.0551 163.302 48.2363C163.302 48.5114 163.324 48.5338 163.593 48.5346C163.944 48.5355 164.295 48.5424 164.645 48.532C164.822 48.5269 164.894 48.5931 164.892 48.7667C164.889 49.2395 164.889 49.7124 164.892 50.1843C164.893 50.339 164.826 50.4018 164.671 50.3992C164.335 50.3932 163.998 50.3975 163.662 50.3975C163.316 50.3975 163.309 50.4052 163.309 50.7397C163.309 51.148 163.303 51.5563 163.311 51.9638C163.316 52.1529 163.255 52.238 163.053 52.2337C162.574 52.2243 162.094 52.2277 161.614 52.2329C161.442 52.2346 161.369 52.1718 161.373 51.993C161.38 51.5632 161.375 51.1342 161.375 50.7044C161.375 50.4259 161.349 50.3984 161.069 50.3984C159.208 50.3984 157.347 50.3984 155.486 50.3984C155.273 50.3984 155.167 50.2898 155.167 50.0726C155.167 49.5782 155.171 49.0839 155.164 48.5905C155.162 48.4366 155.204 48.3231 155.316 48.2122C157.064 46.4783 158.807 44.7392 160.554 43.0027C161.239 42.3218 161.93 41.6461 162.618 40.9679C162.722 40.8656 163.107 40.7959 163.213 40.8853C163.27 40.9326 163.298 41.0435 163.298 41.126C163.304 42.315 163.302 43.503 163.302 44.6919ZM161.375 46.7869C161.375 46.3004 161.38 45.8138 161.371 45.3281C161.369 45.2395 161.312 45.1527 161.279 45.065C161.193 45.1011 161.086 45.1149 161.025 45.1759C160.005 46.1774 158.989 47.1841 157.977 48.1942C157.918 48.2526 157.897 48.3498 157.858 48.4297C157.945 48.465 158.032 48.5312 158.119 48.5312C159.12 48.5381 160.121 48.5329 161.123 48.5389C161.323 48.5398 161.382 48.4598 161.378 48.269C161.368 47.7755 161.374 47.2821 161.374 46.7886L161.375 46.7869Z" fill="#020A18" style="fill:#020A18;fill:color(display-p3 0.0078 0.0392 0.0941);fill-opacity:1;"/>
<path d="M62.7113 46.5252C62.7113 44.7276 62.7147 42.9301 62.707 41.1325C62.7061 40.9142 62.7706 40.8531 62.9872 40.854C65.629 40.8609 68.2707 40.8583 70.9125 40.8583C71.2022 40.8583 71.2194 40.8763 71.2194 41.1592C71.2194 41.589 71.209 42.0188 71.2237 42.4478C71.2314 42.6644 71.1368 42.7238 70.9451 42.722C70.5445 42.7177 70.1431 42.7212 69.7425 42.7212C68.1392 42.7212 66.5351 42.7212 64.9318 42.7212C64.6326 42.7212 64.6309 42.7229 64.6309 43.0186C64.6309 43.5198 64.6309 44.021 64.6309 44.5222C64.6309 44.8188 64.6395 44.8274 64.9283 44.8274C66.8617 44.8274 68.7943 44.8274 70.7276 44.8274C71.0543 44.8274 71.0612 44.8351 71.0612 45.1704C71.0612 45.5572 71.0612 45.9441 71.0612 46.3309C71.0612 46.5659 70.94 46.6834 70.6975 46.6834C68.8003 46.6834 66.903 46.6834 65.0057 46.6834C64.6352 46.6834 64.6309 46.6877 64.6309 47.0496C64.6309 48.6468 64.6309 50.2432 64.6309 51.8405C64.6309 52.099 64.4985 52.2282 64.2337 52.2282C63.84 52.2282 63.4463 52.2282 63.0526 52.2282C62.7147 52.2282 62.7113 52.2256 62.7113 51.8972C62.7113 50.1065 62.7113 48.3159 62.7113 46.5252Z" fill="#020A18" style="fill:#020A18;fill:color(display-p3 0.0078 0.0392 0.0941);fill-opacity:1;"/>
<path d="M126.631 40.8557C128.205 40.8557 129.781 40.8557 131.356 40.8557C131.666 40.8557 131.678 40.8686 131.678 41.185C131.678 41.5864 131.678 41.987 131.678 42.3885C131.678 42.6971 131.66 42.7177 131.354 42.7177C130.215 42.7186 129.076 42.7177 127.938 42.7177C127.714 42.7177 127.602 42.8275 127.602 43.047C127.602 45.9905 127.602 48.934 127.602 51.8783C127.602 52.223 127.601 52.2239 127.253 52.2239C126.831 52.2239 126.408 52.2239 125.986 52.2239C125.683 52.2239 125.669 52.2093 125.669 51.911C125.669 48.9597 125.669 46.0094 125.669 43.0582C125.669 42.8306 125.553 42.7169 125.323 42.7169C124.177 42.7169 123.032 42.7169 121.886 42.7169C121.617 42.7169 121.595 42.6937 121.594 42.422C121.593 41.9991 121.594 41.577 121.594 41.154C121.594 40.8772 121.619 40.854 121.905 40.854C123.48 40.854 125.056 40.854 126.631 40.854V40.8557Z" fill="#020A18" style="fill:#020A18;fill:color(display-p3 0.0078 0.0392 0.0941);fill-opacity:1;"/>
<path d="M113.888 40.8582C115.471 40.8582 117.054 40.8582 118.636 40.8582C118.922 40.8582 118.927 40.8625 118.928 41.1427C118.929 41.5657 118.928 41.9878 118.928 42.4107C118.928 42.6892 118.898 42.721 118.624 42.721C117.492 42.721 116.361 42.721 115.23 42.721C114.974 42.721 114.846 42.8454 114.846 43.0941C114.846 46.0239 114.846 48.9536 114.846 51.8825C114.846 52.2255 114.845 52.2263 114.495 52.2263C114.073 52.2263 113.65 52.2263 113.228 52.2263C112.932 52.2263 112.913 52.2074 112.913 51.9074C112.913 49.0284 112.913 46.1485 112.913 43.2695C112.913 42.9033 112.733 42.7202 112.374 42.7202C111.3 42.7202 110.225 42.7202 109.152 42.7202C108.874 42.7202 108.846 42.6918 108.846 42.4116C108.846 41.9817 108.85 41.5519 108.844 41.1221C108.841 40.9235 108.909 40.8513 109.121 40.8521C110.71 40.8607 112.3 40.8573 113.889 40.8573L113.888 40.8582Z" fill="#020A18" style="fill:#020A18;fill:color(display-p3 0.0078 0.0392 0.0941);fill-opacity:1;"/>
<path d="M87.9837 49.8038C87.9837 49.1161 87.9889 48.4292 87.9786 47.7415C87.9768 47.6228 87.9347 47.4861 87.8668 47.389C86.4492 45.3593 85.0256 43.3348 83.6037 41.3086C83.5874 41.2854 83.5633 41.2639 83.5547 41.2381C83.5229 41.1418 83.4481 41.0206 83.4808 40.9544C83.5126 40.89 83.6562 40.8547 83.7525 40.8521C84.2674 40.8427 84.7832 40.8564 85.2981 40.8427C85.4959 40.8375 85.611 40.9123 85.7202 41.0679C86.7235 42.4967 87.7336 43.9203 88.7419 45.3447C88.9122 45.5854 88.9938 45.5863 89.1675 45.3422C90.1733 43.9246 91.1808 42.5078 92.1806 41.0851C92.3001 40.9157 92.4239 40.8358 92.6371 40.8427C93.1305 40.8581 93.6248 40.8418 94.1183 40.8521C94.2266 40.8547 94.3341 40.9157 94.4424 40.9501C94.4054 41.0593 94.3908 41.1848 94.3272 41.2759C93.2079 42.8766 92.0826 44.473 90.959 46.0703C90.6504 46.5087 90.3366 46.9446 90.0383 47.3899C89.9721 47.4887 89.93 47.6246 89.9291 47.7432C89.9214 49.0825 89.9248 50.421 89.924 51.7604C89.924 52.0653 89.7681 52.2177 89.4563 52.2177C89.0626 52.2177 88.6689 52.2195 88.2751 52.2177C88.0319 52.2169 87.9846 52.1705 87.9837 51.9297C87.982 51.2205 87.9837 50.5131 87.9837 49.8038Z" fill="#020A18" style="fill:#020A18;fill:color(display-p3 0.0078 0.0392 0.0941);fill-opacity:1;"/>
<path d="M38.0035 46.5325C38.0035 44.7418 38.0035 42.952 38.0035 41.1614C38.0035 40.959 38.1069 40.8579 38.3138 40.8579C38.729 40.8579 39.1442 40.8579 39.5594 40.8579C39.7904 40.8579 39.9059 40.9702 39.9059 41.1949C39.9059 44.1238 39.9059 47.0526 39.9059 49.9815C39.9059 50.3477 39.9145 50.3563 40.2755 50.3563C41.7146 50.3563 43.1537 50.3563 44.5928 50.3563C44.8008 50.3563 44.9048 50.46 44.9048 50.6675C44.9048 51.0973 44.9005 51.5272 44.9065 51.9561C44.9091 52.1418 44.8507 52.2295 44.6478 52.2287C42.5141 52.2218 40.3813 52.2192 38.2476 52.2218C38.0396 52.2218 37.9992 52.1281 38 51.945C38.0043 50.1405 38.0026 48.3352 38.0026 46.5308L38.0035 46.5325Z" fill="#020A18" style="fill:#020A18;fill:color(display-p3 0.0078 0.0392 0.0941);fill-opacity:1;"/>
<path d="M151.586 46.5334C151.586 48.3232 151.586 50.1122 151.586 51.902C151.586 52.2201 151.579 52.2261 151.259 52.2269C150.83 52.2269 150.4 52.2269 149.971 52.2269C149.673 52.2269 149.652 52.2063 149.652 51.9114C149.652 50.2007 149.652 48.49 149.652 46.7793C149.652 44.9112 149.652 43.0432 149.652 41.1742C149.652 40.8691 149.663 40.8579 149.964 40.8579C150.408 40.8579 150.851 40.8579 151.295 40.8579C151.583 40.8579 151.585 40.8596 151.585 41.1433C151.585 42.94 151.586 44.7367 151.586 46.5334Z" fill="#020A18" style="fill:#020A18;fill:color(display-p3 0.0078 0.0392 0.0941);fill-opacity:1;"/>
<path d="M98.2338 61.7099C98.2802 61.5852 98.3086 61.5234 98.3267 61.4589C98.6198 60.4342 98.9121 59.4103 99.2018 58.3847C99.2353 58.2669 99.2817 58.199 99.4202 58.2051C99.6488 58.2154 99.8784 58.2119 100.108 58.2068C100.234 58.2042 100.292 58.2437 100.329 58.377C100.615 59.4 100.914 60.4195 101.208 61.44C101.229 61.5122 101.254 61.5827 101.295 61.7073C101.34 61.6067 101.367 61.5603 101.381 61.5105C101.671 60.478 101.962 59.4447 102.245 58.4105C102.286 58.2635 102.346 58.1965 102.509 58.2042C102.793 58.2179 103.077 58.2085 103.396 58.2085C103.368 58.3314 103.351 58.4268 103.323 58.5188C102.866 60.0533 102.405 61.587 101.951 63.1223C101.901 63.2908 101.833 63.3819 101.642 63.3562C101.508 63.3381 101.37 63.3527 101.234 63.3527C100.86 63.3527 100.857 63.3536 100.746 62.9874C100.446 61.9919 100.149 60.9955 99.8508 59.9992C99.8345 59.945 99.8147 59.8917 99.7778 59.7808C99.7331 59.8943 99.7021 59.9588 99.6823 60.0258C99.372 61.06 99.0591 62.0942 98.7556 63.1309C98.7083 63.2925 98.6413 63.3716 98.4599 63.357C98.2536 63.3398 98.0447 63.345 97.8375 63.3562C97.706 63.363 97.6484 63.3115 97.6123 63.1894C97.3415 62.2661 97.0647 61.3445 96.7896 60.423C96.5979 59.7817 96.4045 59.1404 96.2119 58.4991C96.1878 58.4191 96.1663 58.3374 96.1328 58.2171C96.4982 58.2171 96.8369 58.2119 97.1747 58.224C97.2151 58.2257 97.2701 58.3211 97.2873 58.3821C97.5702 59.3837 97.8478 60.3869 98.1272 61.3892C98.1513 61.4761 98.184 61.5612 98.2347 61.7108L98.2338 61.7099Z" fill="#020A18" style="fill:#020A18;fill:color(display-p3 0.0078 0.0392 0.0941);fill-opacity:1;"/>
<path d="M122.882 61.0281C123.388 61.8035 123.875 62.5523 124.394 63.3475C123.961 63.3475 123.592 63.3535 123.224 63.3415C123.166 63.3398 123.093 63.2658 123.055 63.2065C122.667 62.5979 122.275 61.9918 121.907 61.3711C121.763 61.1296 121.606 61.0084 121.312 61.0393C121.023 61.0694 121.02 61.0462 121.02 61.3385C121.02 61.9334 121.016 62.5274 121.023 63.1223C121.025 63.2942 120.979 63.369 120.793 63.357C120.551 63.3415 120.307 63.3509 120.063 63.3544C119.963 63.3552 119.902 63.3337 119.902 63.2134C119.904 61.5732 119.904 59.9329 119.906 58.2927C119.906 58.2729 119.918 58.2531 119.924 58.2359C119.941 58.2273 119.953 58.2153 119.965 58.2153C120.931 58.2179 121.897 58.2084 122.863 58.2299C123.317 58.2394 123.751 58.3666 124.027 58.7664C124.512 59.4653 124.369 60.6267 123.2 60.9525C123.112 60.9774 123.021 60.9955 122.881 61.029L122.882 61.0281ZM121.853 60.1152V60.0963C122.125 60.0963 122.397 60.1109 122.667 60.0928C123.005 60.0705 123.182 59.7851 123.077 59.4653C122.998 59.2297 122.807 59.1609 122.588 59.1575C122.116 59.1489 121.643 59.1549 121.172 59.1463C121.04 59.1437 121.016 59.2039 121.019 59.3157C121.024 59.5229 121.028 59.7309 121.018 59.9381C121.011 60.0868 121.077 60.1212 121.209 60.1169C121.423 60.11 121.638 60.1152 121.853 60.1152Z" fill="#020A18" style="fill:#020A18;fill:color(display-p3 0.0078 0.0392 0.0941);fill-opacity:1;"/>
<path d="M86.2486 58.2087C86.583 58.2087 86.8822 58.2035 87.1796 58.2147C87.2226 58.2164 87.269 58.2929 87.3008 58.3437C87.3172 58.3694 87.3043 58.4133 87.3043 58.4494C87.3043 59.9959 87.3008 61.5425 87.3086 63.089C87.3094 63.2919 87.2587 63.377 87.0464 63.3564C86.8761 63.34 86.6999 63.3331 86.5323 63.3572C86.2692 63.395 86.1119 63.2712 85.9554 63.0813C85.3021 62.2869 84.6367 61.5012 83.9756 60.7129C83.9464 60.6776 83.9078 60.6501 83.8382 60.5857C83.8322 60.7043 83.8252 60.7791 83.8252 60.853C83.8252 61.6121 83.821 62.3712 83.8279 63.1294C83.8296 63.2945 83.7874 63.3649 83.612 63.3546C83.3911 63.3417 83.1684 63.3478 82.9466 63.3529C82.8331 63.3555 82.7773 63.3237 82.7773 63.1965C82.7816 61.5571 82.7816 59.9177 82.7833 58.2783C82.7833 58.2654 82.7919 58.2517 82.8056 58.2156C83.0274 58.2259 83.2398 58.1459 83.4409 58.3978C84.3083 59.4879 85.2032 60.5564 86.0887 61.6327C86.1248 61.6766 86.1575 61.7221 86.1919 61.7668C86.2108 61.76 86.2306 61.7531 86.2495 61.7462V58.2078L86.2486 58.2087Z" fill="#020A18" style="fill:#020A18;fill:color(display-p3 0.0078 0.0392 0.0941);fill-opacity:1;"/>
<path d="M115.377 63.4114C113.991 63.4234 112.999 62.5251 112.854 61.1307C112.763 60.2547 112.943 59.4535 113.582 58.8242C114.322 58.0978 115.239 57.9809 116.192 58.2629C117.135 58.5414 117.662 59.2334 117.843 60.1868C117.969 60.8504 117.91 61.5003 117.594 62.1064C117.128 62.9987 116.363 63.3976 115.377 63.4114ZM113.936 60.7696C113.995 61.0464 114.025 61.3344 114.121 61.5983C114.299 62.0884 114.658 62.3815 115.19 62.4279C115.723 62.4743 116.183 62.3368 116.48 61.8571C116.849 61.2614 116.858 60.6278 116.635 59.983C116.302 59.0176 115.164 58.9171 114.564 59.3572C114.094 59.7019 113.977 60.2117 113.936 60.7696Z" fill="#020A18" style="fill:#020A18;fill:color(display-p3 0.0078 0.0392 0.0941);fill-opacity:1;"/>
<path d="M91.243 59.1839C91.243 59.4203 91.2439 59.6267 91.243 59.833C91.2421 59.9826 91.3513 59.9568 91.4407 59.9568C92.1637 59.9576 92.8867 59.9568 93.6105 59.9568C93.6879 59.9568 93.7644 59.9568 93.8701 59.9568C93.8701 60.2559 93.8779 60.5336 93.8615 60.8087C93.859 60.8457 93.7386 60.9041 93.6724 60.905C92.9426 60.9119 92.2118 60.9179 91.482 60.9041C91.2662 60.8998 91.2172 60.972 91.225 61.1715C91.2396 61.5626 91.2292 61.9546 91.2292 62.3707H91.4871C92.2815 62.3707 93.0767 62.3742 93.871 62.3673C94.0335 62.3656 94.11 62.3999 94.0962 62.5805C94.0816 62.773 94.0868 62.9673 94.0945 63.1599C94.0997 63.294 94.0593 63.3542 93.914 63.3542C92.7328 63.3507 91.5516 63.3507 90.3696 63.3542C90.2226 63.3542 90.1719 63.3043 90.1719 63.1539C90.1762 61.5712 90.1762 59.9886 90.1719 58.4059C90.1719 58.2581 90.2131 58.2056 90.3653 58.2056C91.5181 58.2108 92.6709 58.2099 93.8237 58.2056C93.9733 58.2056 94.0498 58.2418 94.0386 58.4111C94.0257 58.5968 94.0275 58.7842 94.0386 58.969C94.0481 59.1418 93.9767 59.1874 93.8108 59.1857C93.0449 59.1779 92.2789 59.1822 91.5129 59.1822H91.2439L91.243 59.1839Z" fill="#020A18" style="fill:#020A18;fill:color(display-p3 0.0078 0.0392 0.0941);fill-opacity:1;"/>
<path d="M131.149 58.2004C130.815 58.5374 130.532 58.8271 130.243 59.1099C129.804 59.5406 129.364 59.9705 128.917 60.3934C128.798 60.506 128.844 60.5817 128.929 60.6788C129.64 61.4903 130.349 62.3044 131.058 63.1177C131.112 63.1796 131.164 63.2441 131.252 63.3507C130.804 63.3507 130.414 63.3635 130.025 63.3412C129.935 63.336 129.838 63.2243 129.768 63.1418C129.241 62.5288 128.721 61.9116 128.2 61.2952C128.163 61.2522 128.128 61.2075 128.089 61.1585C127.826 61.3339 127.655 61.5067 127.681 61.8419C127.715 62.2615 127.677 62.687 127.694 63.1082C127.703 63.318 127.626 63.367 127.436 63.3541C127.23 63.3403 127.02 63.3386 126.814 63.3541C126.619 63.3687 126.558 63.3077 126.559 63.1056C126.568 61.5522 126.564 59.9988 126.564 58.4446V58.2013C126.922 58.2013 127.263 58.1961 127.603 58.2099C127.634 58.2107 127.683 58.3285 127.684 58.3921C127.691 58.9363 127.687 59.4805 127.687 60.0246V60.3006C127.926 60.0753 128.126 59.8922 128.32 59.7014C128.775 59.2552 129.228 58.8082 129.676 58.3552C129.785 58.246 129.896 58.191 130.053 58.1961C130.394 58.2064 130.736 58.1996 131.147 58.1996L131.149 58.2004Z" fill="#020A18" style="fill:#020A18;fill:color(display-p3 0.0078 0.0392 0.0941);fill-opacity:1;"/>
<path d="M106.634 58.2093H107.261C107.819 58.2093 107.816 58.211 108.125 58.6683C108.451 59.1515 108.783 59.6312 109.114 60.1117C109.153 60.1685 109.2 60.2192 109.267 60.3017C109.375 60.1547 109.47 60.0335 109.557 59.9071C109.91 59.3948 110.255 58.8764 110.618 58.3718C110.676 58.2901 110.806 58.2256 110.909 58.2162C111.151 58.1938 111.395 58.2076 111.639 58.2101C111.698 58.2101 111.758 58.2239 111.87 58.2385C111.716 58.4629 111.592 58.6494 111.461 58.8325C110.925 59.583 110.385 60.3318 109.853 61.0857C109.804 61.1545 109.781 61.2559 109.78 61.3428C109.774 61.9445 109.773 62.5454 109.78 63.1472C109.782 63.3054 109.739 63.3673 109.575 63.3569C109.375 63.3449 109.173 63.3389 108.974 63.3578C108.762 63.3784 108.725 63.2865 108.728 63.0999C108.738 62.5274 108.738 61.954 108.726 61.3814C108.725 61.2697 108.684 61.1416 108.62 61.0496C108.034 60.2089 107.439 59.3741 106.847 58.5368C106.787 58.4517 106.733 58.3614 106.634 58.2093Z" fill="#020A18" style="fill:#020A18;fill:color(display-p3 0.0078 0.0392 0.0941);fill-opacity:1;"/>
</svg>
