<svg width="214" height="104" viewBox="0 0 214 104" fill="none" xmlns="http://www.w3.org/2000/svg">
<path d="M179.161 56.8246V47.3075C179.161 46.0622 179.161 45.321 179.458 45.0542H176.018C176.285 45.2914 176.315 45.9436 176.315 47.0703V54.1859L169.852 45.0542H166.709C167.005 45.2914 167.005 46.0326 167.005 47.3075V56.8246C167.005 58.0698 167.005 58.811 166.709 59.0778H170.148C169.881 58.8406 169.852 58.1884 169.852 57.0914V49.9758L176.315 59.1075H179.458C179.161 58.811 179.161 58.0698 179.161 56.8246ZM188.411 45.0838H183.786C184.083 45.321 184.083 46.0622 184.083 47.3371V56.8542C184.083 58.0994 184.083 58.8406 183.786 59.1075H188.411C192.592 59.1075 196.001 55.9648 196.001 52.1105C196.001 48.2562 192.592 45.0838 188.411 45.0838ZM188.411 56.3502H186.929V47.8115H188.411C191.02 47.8115 193.155 49.7386 193.155 52.0808C193.155 54.423 191.02 56.3502 188.411 56.3502ZM164.1 59.0778C163.685 58.8406 163.388 58.0994 162.855 56.8246L158.822 47.3075C158.289 46.0622 157.992 45.321 158.2 45.0542H154.79C154.998 45.2914 154.672 46.0326 154.168 47.3075L150.165 56.8246C149.631 58.0698 149.335 58.811 148.92 59.0778H152.656C152.389 58.7813 152.656 58.1291 153.219 56.8246L153.248 56.7653H159.741L159.771 56.8246C160.305 58.0994 160.572 58.7813 160.334 59.0778H164.1ZM154.405 53.9783L156.48 49.0567L158.556 53.9783H154.405ZM147.052 59.0778C146.578 58.8406 146.133 58.1884 145.243 56.9135L143.168 53.9487C144.769 53.1778 145.866 51.6065 145.866 49.7386C145.866 47.1592 143.702 45.0542 141.063 45.0542H134.807C135.104 45.2914 135.104 46.0326 135.104 47.3075V56.8246C135.104 58.0698 135.104 58.811 134.807 59.0778H138.246C137.95 58.8406 137.95 58.0994 137.95 56.8246V54.423H140.055L142.605 58.0401C142.931 58.5442 143.049 58.8703 142.931 59.0778H147.052ZM137.92 47.8411H141.033C142.101 47.8411 142.99 48.7009 142.99 49.7386C142.99 50.806 142.101 51.6361 141.033 51.6361H137.92V47.8411ZM129.263 51.3989C129.767 50.7466 130.064 49.9758 130.064 49.116C130.064 46.8627 128.047 45.0838 125.557 45.0838H119.598C119.894 45.321 119.894 46.0622 119.894 47.3371V56.8542C119.894 58.0994 119.894 58.8406 119.598 59.1075H126.15C128.848 59.1075 131.042 57.1803 131.042 54.7492C131.012 53.3557 130.33 52.2291 129.263 51.3989ZM122.592 47.7225H125.527C126.535 47.7225 127.306 48.3451 127.306 49.116C127.306 49.8869 126.535 50.5095 125.527 50.5095H122.592V47.7225ZM126.12 56.4095H122.592V53.0296H126.12C127.336 53.0296 128.285 53.7708 128.285 54.7195C128.285 55.6683 127.336 56.4095 126.12 56.4095Z" fill="#020A18" style="fill:#020A18;fill:color(display-p3 0.0078 0.0392 0.0941);fill-opacity:1;"/>
<path d="M112.449 53.4742C111.708 52.8219 110.018 52.3772 108.565 52.2586C109.988 51.9918 111.619 51.3691 112.301 50.6576C112.953 49.9757 112.894 48.8194 112.212 48.1375C111.738 47.6631 111.441 47.6631 110.996 47.2184C110.552 46.7737 110.522 46.4772 110.048 46.0028C109.366 45.3209 108.269 45.3505 107.646 46.0917C106.935 46.9219 106.431 48.9676 106.312 50.539C106.193 48.9676 105.66 46.9219 104.978 46.0917C104.355 45.3505 103.258 45.3505 102.576 46.0028C102.102 46.4772 102.072 46.7737 101.628 47.2184C101.183 47.6631 100.886 47.6631 100.412 48.1375C99.7303 48.8194 99.671 49.946 100.323 50.6576C101.005 51.3691 102.636 51.9918 104.059 52.2586C102.606 52.4068 100.916 52.8516 100.175 53.4742C99.4635 54.0968 99.4042 55.2531 100.027 55.9943C100.442 56.4983 100.768 56.5576 101.153 57.032C101.568 57.5063 101.568 57.8325 101.983 58.3365C102.606 59.0777 103.703 59.1666 104.385 58.5144C104.919 57.9807 105.423 56.8837 105.778 55.7571C105.66 57.1506 105.956 58.5737 106.579 59.8189L107.32 59.4038C106.638 58.0993 106.431 56.5576 106.727 55.0752C107.053 56.439 107.646 57.8918 108.298 58.5144C108.98 59.1963 110.077 59.0777 110.7 58.3365C111.115 57.8325 111.145 57.5063 111.53 57.032C111.945 56.5576 112.242 56.4983 112.657 55.9943C113.22 55.2234 113.161 54.0968 112.449 53.4742Z" fill="#020A18" style="fill:#020A18;fill:color(display-p3 0.0078 0.0392 0.0941);fill-opacity:1;"/>
<path d="M26.8556 56.7949H21.2521V47.7818C21.2521 46.4773 21.2521 45.7361 21.5486 45.4692H18.1094C18.4058 45.7361 18.4058 46.4773 18.4058 47.7818V59.908H26.8556C28.1601 59.908 28.931 59.908 29.1682 60.2044V56.4984C28.9013 56.7949 28.1601 56.7949 26.8556 56.7949ZM41.6797 45.4396C41.9762 45.7064 41.9762 46.4476 41.9762 47.7522V53.5336C41.9762 55.6089 40.2863 57.2693 38.2109 57.2693C36.1355 57.2693 34.4456 55.6089 34.4456 53.5336V47.7522C34.4456 46.4476 34.4456 45.7064 34.742 45.4396H31.2732C31.5697 45.7064 31.5697 46.4476 31.5697 47.7522V53.5336C31.5697 57.1803 34.5345 60.1451 38.1812 60.1451C41.828 60.1451 44.7928 57.1803 44.7928 53.5336V47.7522C44.7928 46.4476 44.7928 45.7064 45.0893 45.4396H41.6797ZM59.2908 55.6089C59.3205 55.9944 58.6682 56.5873 57.8381 56.9431C57.2451 57.1803 56.5928 57.2989 55.9109 57.2989C53.1833 57.2989 50.9597 55.2235 50.9597 52.7034C50.9597 50.1833 53.1833 48.1079 55.9109 48.1079C56.5928 48.1079 57.2451 48.2265 57.8677 48.4934C58.6979 48.8491 59.3205 49.4125 59.2908 49.8275L61.722 47.3667C61.2476 47.2778 60.2989 46.5959 60.0024 46.3883C58.7868 45.6768 57.3933 45.2617 55.9109 45.2617C51.6119 45.2617 48.1134 48.612 48.1134 52.7331C48.1134 56.8542 51.6119 60.2044 55.9109 60.2044C57.3637 60.2044 58.7868 59.819 60.0024 59.1074C60.2692 58.9592 61.2476 58.2476 61.722 58.1291L59.2908 55.6089ZM77.5838 57.5657L72.8104 51.4582L76.3979 47.7818C77.6728 46.4773 78.3843 45.7361 78.9476 45.4692H74.1743C74.2929 45.7657 73.1069 47.0406 72.425 47.7522L68.3632 51.9326V47.0999C68.3632 46.2104 68.4225 45.6768 68.6597 45.4396H65.1908C65.4577 45.6471 65.4873 46.2401 65.4873 47.1888V58.0994C65.4873 59.0778 65.428 59.6411 65.1908 59.8487H68.6597C68.4225 59.6411 68.3632 59.1075 68.3632 58.1884V55.9647L70.7647 53.4743L75.0341 58.9296C75.3305 59.3446 75.4195 59.6115 75.2713 59.8487H79.6592C79.1848 59.6115 78.6215 58.8703 77.5838 57.5657ZM92.1115 45.4396C92.2894 45.6471 91.9039 46.2401 91.222 47.1888L88.3165 51.1321L85.4703 47.2778C84.7291 46.2697 84.3436 45.6768 84.5215 45.4692H80.2522C80.7562 45.7361 81.2899 46.4773 82.2683 47.7818L86.8934 54.0376V57.5954C86.8934 58.8999 86.8934 59.6411 86.5969 59.908H90.0657C89.7693 59.6411 89.7693 58.8999 89.7693 57.5954V54.0376L94.3944 47.7818C95.3728 46.4773 95.9065 45.7361 96.4105 45.4692H92.1115V45.4396Z" fill="#020A18" style="fill:#020A18;fill:color(display-p3 0.0078 0.0392 0.0941);fill-opacity:1;"/>
</svg>
