<svg width="214" height="103" viewBox="0 0 214 103" fill="none" xmlns="http://www.w3.org/2000/svg">
<g clip-path="url(#clip0_15799_1081)">
<mask id="mask0_15799_1081" style="mask-type:luminance" maskUnits="userSpaceOnUse" x="9" y="-84" width="191" height="270">
<path d="M9.32666 -83.3624H199.509V185.609H9.32666V-83.3624Z" fill="white" style="fill:white;fill-opacity:1;"/>
</mask>
<g mask="url(#mask0_15799_1081)">
<path d="M151.747 76.9655H152.124V76.1153L152.556 76.1211C152.67 76.1211 152.859 76.2667 152.874 76.461C152.885 76.5977 152.864 76.9587 152.931 76.9587H153.318C153.251 76.9354 153.218 76.6044 153.194 76.3629C153.165 76.045 152.939 75.9594 152.885 75.9358C152.957 75.93 153.287 75.7658 153.287 75.4639C153.287 75.1406 153.012 74.8581 152.656 74.8581V74.8604H151.747V76.9655ZM152.124 75.1818H152.568C152.753 75.1818 152.901 75.3588 152.901 75.4945C152.901 75.629 152.784 75.8105 152.568 75.8105V75.8112L152.124 75.8089V75.1818Z" fill="#020A18" style="fill:#020A18;fill:color(display-p3 0.0078 0.0392 0.0941);fill-opacity:1;"/>
<path d="M150.746 75.9175C150.746 76.8852 151.532 77.6711 152.5 77.6711C153.469 77.6711 154.255 76.8852 154.255 75.9175C154.255 74.9485 153.469 74.1632 152.5 74.1632C151.532 74.1632 150.746 74.9485 150.746 75.9175ZM154.079 75.9175C154.079 76.7887 153.374 77.4961 152.5 77.4961C151.629 77.4961 150.921 76.7887 150.921 75.9175C150.921 75.0447 151.629 74.3389 152.5 74.3389C153.374 74.3389 154.079 75.0447 154.079 75.9175Z" fill="#020A18" style="fill:#020A18;fill:color(display-p3 0.0078 0.0392 0.0941);fill-opacity:1;"/>
<path d="M110.476 69.2651C110.835 68.843 111.045 68.2737 111.045 67.6801V65.4932H99.8584V67.9267H106.035L100.623 73.9133C100.266 74.3375 100.024 74.8548 100.024 75.4583V77.6829H111.202V75.2516H105.067L110.476 69.2651Z" fill="#020A18" style="fill:#020A18;fill:color(display-p3 0.0078 0.0392 0.0941);fill-opacity:1;"/>
<path d="M138.569 65.4933C137.218 65.4933 136.108 66.5847 136.108 67.9335V75.2414C136.108 76.5874 137.218 77.6826 138.569 77.6826H147.275C148.623 77.6826 149.701 76.5874 149.701 75.2414V67.9335C149.701 66.5847 148.623 65.4933 147.275 65.4933H138.569ZM143.831 67.9265C144.507 67.9265 145.047 68.4722 145.047 69.1476V74.0293C145.047 74.7018 144.504 75.2517 143.83 75.2517H141.991C141.317 75.2517 140.767 74.7018 140.767 74.0293V69.1476C140.767 68.4722 141.317 67.9265 141.991 67.9265H143.831Z" fill="#020A18" style="fill:#020A18;fill:color(display-p3 0.0078 0.0392 0.0941);fill-opacity:1;"/>
<path d="M93.7563 65.4933H98.417V75.2443C98.417 76.5906 97.3378 77.6826 95.9902 77.6826H93.7563V65.4933Z" fill="#020A18" style="fill:#020A18;fill:color(display-p3 0.0078 0.0392 0.0941);fill-opacity:1;"/>
<path d="M115.11 77.6827C113.763 77.6827 112.658 76.5872 112.658 75.2412V65.4934H117.316V74.0243C117.316 74.6997 117.877 75.2518 118.548 75.2518H120.044C120.72 75.2518 121.248 74.7019 121.248 74.0291V65.4934H132.076C133.422 65.4934 134.507 66.5838 134.507 67.9317V77.6827H129.848V69.1423C129.848 68.4672 129.3 67.9266 128.626 67.9266H125.908V75.2412C125.908 76.5872 124.833 77.6827 123.483 77.6827H115.11Z" fill="#020A18" style="fill:#020A18;fill:color(display-p3 0.0078 0.0392 0.0941);fill-opacity:1;"/>
<path d="M86.9056 61.3007C85.1584 61.3007 83.5977 62.0962 82.5645 63.3448L70.6758 77.6826H77.4217L86.4405 66.8131C87.1175 66.007 88.1293 65.4933 89.2695 65.4933H91.6487L81.583 77.6826H88.8181C90.5056 77.6826 91.8602 76.3155 91.8602 74.6299V61.3007H86.9056Z" fill="#020A18" style="fill:#020A18;fill:color(display-p3 0.0078 0.0392 0.0941);fill-opacity:1;"/>
<path d="M71.6317 63.3449L59.7456 77.6827H66.4867L75.5049 66.8129C76.1825 66.0071 77.1981 65.4934 78.3313 65.4934H80.7856V61.3008H75.97C74.2247 61.3008 72.6608 62.0963 71.6317 63.3449Z" fill="#020A18" style="fill:#020A18;fill:color(display-p3 0.0078 0.0392 0.0941);fill-opacity:1;"/>
<path fill-rule="evenodd" clip-rule="evenodd" d="M112.37 61.3008C111.25 57.7082 109.598 49.6607 116.705 44.6722C121.782 41.1099 137.193 36.9001 145.45 33.8746L151.385 25.8286C145.723 28.7344 138.377 31.7107 131.678 33.7637C116.744 38.3397 107.812 41.0544 96.3061 41.2799C88.024 41.4429 87.9103 37.5346 95.969 30.5257C86.9209 34.0375 74.268 38.1988 59.7451 41.4492C72.7006 41.8135 82.5369 44.4473 88.4477 47.8805C96.8664 52.7702 98.907 57.9053 99.8575 61.3008H112.37ZM96.7751 46.4287C100.814 46.5728 103.913 46.2556 109.548 45.0243C106.89 47.006 104.545 50.615 104.28 53.374C102.88 51.2788 99.6383 48.0239 96.7751 46.4287Z" fill="#020A18" style="fill:#020A18;fill:color(display-p3 0.0078 0.0392 0.0941);fill-opacity:1;"/>
</g>
</g>
<defs>
<clipPath id="clip0_15799_1081">
<rect width="95.1435" height="52.4886" fill="white" style="fill:white;fill-opacity:1;" transform="translate(59.4282 25.5115)"/>
</clipPath>
</defs>
</svg>
