<svg width="214" height="103" viewBox="0 0 214 103" fill="none" xmlns="http://www.w3.org/2000/svg">
<g clip-path="url(#clip0_15799_1026)">
<path d="M32.712 40.1707C28.4666 40.1707 25.0261 43.5836 25.0261 47.7948C25.0261 52.0061 28.4666 55.419 32.712 55.419C36.9573 55.419 40.3978 52.0061 40.3978 47.7948C40.3978 43.5836 36.9573 40.1707 32.712 40.1707ZM32.712 53.6516C29.4496 53.6516 26.8078 51.031 26.8078 47.7948C26.8078 44.5587 29.4496 41.938 32.712 41.938C35.9743 41.938 38.6161 44.5587 38.6161 47.7948C38.6161 51.031 35.9743 53.6516 32.712 53.6516Z" fill="#020A18" style="fill:#020A18;fill:color(display-p3 0.0078 0.0392 0.0941);fill-opacity:1;"/>
<path d="M32.7119 59.4109C31.8272 54.9376 25.0629 57.1803 24.1782 54.9802C24.1782 62.2204 30.7275 58.3627 32.3187 61.7024C32.3249 61.7512 32.3249 61.8121 32.3249 61.8731C32.3249 62.1168 32.1221 63.2321 32.1406 63.3479V63.354L32.1344 63.3967C32.1344 63.7319 32.3924 64 32.7119 64C33.0314 64 33.2894 63.7319 33.2894 63.3967L33.2833 63.3662L33.2894 63.354C33.3079 63.2382 33.1051 62.1351 33.1051 61.8853C33.1051 61.8182 33.1113 61.7512 33.1113 61.6963C34.7086 58.3809 41.2456 62.6592 41.2456 54.9802C40.3609 57.1803 33.5905 54.9376 32.7119 59.4109Z" fill="#020A18" style="fill:#020A18;fill:color(display-p3 0.0078 0.0392 0.0941);fill-opacity:1;"/>
<path d="M190.305 45.0218C190.305 44.7415 190.078 44.6683 189.839 44.6683H189.402V45.9055H189.624V45.3814H189.783L190.072 45.9055H190.342L190.011 45.357C190.201 45.3265 190.305 45.1986 190.305 45.0218ZM189.63 45.1925V44.8573H189.82C189.937 44.8573 190.072 44.8755 190.072 45.0218C190.072 45.1803 189.925 45.1925 189.802 45.1925H189.63Z" fill="#020A18" style="fill:#020A18;fill:color(display-p3 0.0078 0.0392 0.0941);fill-opacity:1;"/>
<path d="M189.82 44.0406C189.169 44.0406 188.641 44.5648 188.641 45.2108C188.641 45.8568 189.169 46.3809 189.82 46.3809C190.471 46.3809 191 45.8568 191 45.2108C191 44.5648 190.471 44.0406 189.82 44.0406ZM190.533 45.9177C190.349 46.1006 190.103 46.2103 189.82 46.2103C189.544 46.2103 189.292 46.1006 189.114 45.9177C188.929 45.7349 188.819 45.4911 188.819 45.2169C188.819 44.9426 188.929 44.6928 189.114 44.5099C189.298 44.3271 189.544 44.2174 189.82 44.2174C190.097 44.2174 190.349 44.3271 190.533 44.5099C190.717 44.6928 190.828 44.9365 190.828 45.2169C190.828 45.485 190.711 45.7349 190.533 45.9177Z" fill="#020A18" style="fill:#020A18;fill:color(display-p3 0.0078 0.0392 0.0941);fill-opacity:1;"/>
<path d="M48.5627 44.3636H50.3567L59.4618 57.357H59.5048V44.3636H60.8994V59.2037H59.1055L50.0004 46.2103H49.9574V59.2037H48.5627V44.3636Z" fill="#020A18" style="fill:#020A18;fill:color(display-p3 0.0078 0.0392 0.0941);fill-opacity:1;"/>
<path d="M69.5867 44.3636H71.0243L77.3217 59.2037H75.755L74.1269 55.2605H66.2076L64.5181 59.2037H63.062L69.5867 44.3636ZM70.2441 45.8751L66.7606 54.0051H73.6293L70.2441 45.8751Z" fill="#020A18" style="fill:#020A18;fill:color(display-p3 0.0078 0.0392 0.0941);fill-opacity:1;"/>
<path d="M81.3582 45.6191H76.2466V44.3636H87.8706V45.6191H82.759V59.2037H81.3643L81.3582 45.6191Z" fill="#020A18" style="fill:#020A18;fill:color(display-p3 0.0078 0.0392 0.0941);fill-opacity:1;"/>
<path d="M100.791 53.5236C100.791 54.322 100.699 55.0838 100.515 55.8091C100.33 56.5343 100.023 57.1803 99.5929 57.7349C99.1629 58.2895 98.5976 58.7405 97.9034 59.0757C97.2092 59.4109 96.349 59.5754 95.3353 59.5754C94.3216 59.5754 93.4676 59.4048 92.7672 59.0757C92.073 58.7405 91.5077 58.2956 91.0777 57.7349C90.6476 57.1742 90.3404 56.5343 90.1561 55.8091C89.9718 55.0838 89.8796 54.322 89.8796 53.5236V44.3636H91.2743V53.1641C91.2743 53.6943 91.3234 54.2611 91.4217 54.8644C91.52 55.4678 91.7166 56.0224 92.0054 56.5404C92.2941 57.0584 92.6996 57.485 93.228 57.8202C93.7564 58.1554 94.4567 58.32 95.3292 58.32C96.2016 58.32 96.902 58.1493 97.4303 57.8202C97.9587 57.4911 98.3642 57.0584 98.6529 56.5404C98.9417 56.0224 99.1322 55.4617 99.2366 54.8644C99.3349 54.2611 99.3841 53.7004 99.3841 53.1641V44.3636H100.779L100.791 53.5236Z" fill="#020A18" style="fill:#020A18;fill:color(display-p3 0.0078 0.0392 0.0941);fill-opacity:1;"/>
<path d="M104.618 44.3636H108.55C108.747 44.3636 109.017 44.3697 109.355 44.388C109.693 44.4002 110.062 44.4429 110.455 44.516C110.848 44.583 111.248 44.6988 111.659 44.8512C112.071 45.0036 112.433 45.2291 112.759 45.5216C113.085 45.8141 113.349 46.1859 113.564 46.6308C113.779 47.0757 113.883 47.6242 113.883 48.2641C113.883 48.9772 113.76 49.5622 113.515 50.0254C113.269 50.4886 112.956 50.8603 112.587 51.1468C112.212 51.4332 111.8 51.6465 111.352 51.7867C110.903 51.9269 110.473 52.0244 110.062 52.0792L114.412 59.2037H112.826L108.624 52.1585H106.025V59.2037H104.631L104.618 44.3636ZM106.013 50.903H108.974C109.705 50.903 110.301 50.8116 110.762 50.6288C111.217 50.4459 111.573 50.2265 111.831 49.9584C112.089 49.6902 112.255 49.4099 112.347 49.099C112.439 48.7943 112.482 48.514 112.482 48.258C112.482 48.002 112.433 47.7278 112.347 47.417C112.255 47.1123 112.083 46.8258 111.831 46.5577C111.579 46.2895 111.223 46.0701 110.762 45.8873C110.301 45.7044 109.712 45.613 108.974 45.613H106.013V50.903Z" fill="#020A18" style="fill:#020A18;fill:color(display-p3 0.0078 0.0392 0.0941);fill-opacity:1;"/>
<path d="M117.146 44.3636H126.294V45.6191H118.54V50.903H125.808V52.1585H118.54V57.9421H126.632V59.1976H117.146V44.3636Z" fill="#020A18" style="fill:#020A18;fill:color(display-p3 0.0078 0.0392 0.0941);fill-opacity:1;"/>
<path d="M129.673 44.3636H133.986C134.508 44.3636 135.055 44.4246 135.626 44.5404C136.198 44.6562 136.72 44.8634 137.187 45.1559C137.66 45.4485 138.047 45.8507 138.348 46.3626C138.649 46.8746 138.802 47.5145 138.802 48.2824C138.802 48.9528 138.68 49.5318 138.434 50.0193C138.188 50.5069 137.856 50.9091 137.439 51.226C137.021 51.5429 136.542 51.7745 136.001 51.9269C135.46 52.0792 134.889 52.1585 134.299 52.1585H131.067V59.2037H129.673V44.3636ZM131.067 50.903H134.238C134.631 50.903 135.018 50.8603 135.399 50.7689C135.78 50.6775 136.118 50.5312 136.413 50.3301C136.707 50.129 136.947 49.8609 137.131 49.5257C137.316 49.1905 137.408 48.776 137.408 48.2885C137.408 47.8131 137.31 47.4109 137.125 47.0757C136.935 46.7405 136.689 46.4662 136.388 46.2468C136.087 46.0274 135.737 45.8751 135.344 45.7776C134.95 45.6801 134.557 45.6313 134.158 45.6313H131.074L131.067 50.903Z" fill="#020A18" style="fill:#020A18;fill:color(display-p3 0.0078 0.0392 0.0941);fill-opacity:1;"/>
<path d="M141.801 44.3636H150.949V45.6191H143.195V50.903H150.463V52.1585H143.195V57.9421H151.287V59.1976H141.801V44.3636Z" fill="#020A18" style="fill:#020A18;fill:color(display-p3 0.0078 0.0392 0.0941);fill-opacity:1;"/>
<path d="M154.144 44.3636H158.77C160.066 44.3636 161.166 44.5221 162.063 44.8329C162.966 45.1498 163.716 45.5521 164.311 46.0396C164.907 46.5272 165.381 47.0696 165.725 47.6608C166.069 48.258 166.321 48.8248 166.486 49.3672C166.646 49.9096 166.751 50.4033 166.794 50.8421C166.837 51.2809 166.855 51.5917 166.855 51.7745C166.855 51.9573 166.837 52.2682 166.794 52.707C166.751 53.1458 166.646 53.6394 166.486 54.1818C166.327 54.7242 166.069 55.2971 165.725 55.8883C165.381 56.4855 164.907 57.0218 164.311 57.5094C163.709 57.997 162.966 58.3992 162.063 58.7161C161.16 59.033 160.06 59.1854 158.77 59.1854H154.144V44.3636ZM155.538 57.9421H158.413C159.396 57.9421 160.324 57.8202 161.184 57.5764C162.044 57.3327 162.788 56.9609 163.427 56.4551C164.066 55.9492 164.557 55.3154 164.926 54.5353C165.294 53.7613 165.473 52.841 165.473 51.7806C165.473 50.7202 165.288 49.7999 164.926 49.0259C164.557 48.2519 164.06 47.612 163.427 47.1062C162.794 46.6064 162.044 46.2286 161.184 45.9848C160.324 45.741 159.403 45.6191 158.413 45.6191H155.538V57.9421Z" fill="#020A18" style="fill:#020A18;fill:color(display-p3 0.0078 0.0392 0.0941);fill-opacity:1;"/>
<path d="M169.988 44.3636H171.383V59.2037H169.988V44.3636Z" fill="#020A18" style="fill:#020A18;fill:color(display-p3 0.0078 0.0392 0.0941);fill-opacity:1;"/>
<path d="M187.799 56.8756C187.08 57.8386 186.251 58.5333 185.305 58.9477C184.359 59.3683 183.339 59.5755 182.239 59.5755C181.096 59.5755 180.052 59.3866 179.099 58.9965C178.147 58.6126 177.336 58.0762 176.66 57.3815C175.985 56.6867 175.456 55.864 175.075 54.9071C174.694 53.9503 174.504 52.9081 174.504 51.7746C174.504 50.641 174.694 49.6049 175.075 48.6542C175.456 47.7035 175.985 46.8807 176.66 46.192C177.336 45.4973 178.147 44.961 179.099 44.5709C180.052 44.1809 181.096 43.9858 182.239 43.9858C183.253 43.9858 184.199 44.1626 185.083 44.5222C185.962 44.8817 186.736 45.4729 187.4 46.3139L186.257 47.2586C185.79 46.5577 185.194 46.0519 184.469 45.7289C183.744 45.4058 183.001 45.2474 182.239 45.2474C181.268 45.2474 180.39 45.418 179.609 45.7471C178.829 46.0823 178.159 46.5455 177.613 47.1306C177.066 47.7157 176.642 48.4104 176.347 49.2027C176.052 50.0011 175.905 50.8604 175.905 51.7807C175.905 52.7009 176.052 53.5602 176.347 54.3586C176.642 55.157 177.066 55.8457 177.613 56.4368C178.159 57.0219 178.829 57.4851 179.609 57.8203C180.39 58.1555 181.268 58.32 182.239 58.32C182.62 58.32 183.013 58.2774 183.425 58.1859C183.83 58.0945 184.23 57.9544 184.617 57.7654C185.004 57.5765 185.372 57.3388 185.729 57.0524C186.085 56.7659 186.392 56.4185 186.656 56.0163L187.799 56.8756Z" fill="#020A18" style="fill:#020A18;fill:color(display-p3 0.0078 0.0392 0.0941);fill-opacity:1;"/>
</g>
<defs>
<clipPath id="clip0_15799_1026">
<rect width="167" height="24" fill="white" style="fill:white;fill-opacity:1;" transform="translate(24 40)"/>
</clipPath>
</defs>
</svg>
