<svg width="214" height="104" viewBox="0 0 214 104" fill="none" xmlns="http://www.w3.org/2000/svg">
<mask id="mask0_10436_28009" style="mask-type:luminance" maskUnits="userSpaceOnUse" x="43" y="42" width="127" height="20">
<path d="M170.001 42.9612H43.2891V61.7689H170.001V42.9612Z" fill="white" style="fill:white;fill-opacity:1;"/>
</mask>
<g mask="url(#mask0_10436_28009)">
<path d="M62.6963 61.4572H76.3084V58.6008H65.8913V53.7167H76.3084V50.8602H65.8913V46.1301H76.3084V43.2725H62.6963V61.4572ZM170.002 46.1289V43.2725H156.39V61.4572H170.002V58.6008H159.585V53.7167H170.002V50.8602H159.585V46.1301L170.002 46.1289ZM58.1472 49.0653V49.0147C58.184 47.5593 57.6421 46.1486 56.6403 45.0922C55.1981 43.8207 53.3138 43.1671 51.3941 43.2725H43.2891V61.4572H46.4841V46.1818H51.1343C53.497 46.1818 54.9017 47.2468 54.9017 49.1946V49.2463C54.9017 51.0918 53.4476 52.2861 51.1613 52.2861L48.5083 52.3061L54.9534 61.456H58.7209L53.8097 54.5748C55.0646 54.3127 56.1872 53.6172 56.9805 52.6102C57.7739 51.6032 58.1873 50.349 58.1484 49.0676L58.1472 49.0653ZM108.63 42.961C107.381 42.9319 106.139 43.1544 104.978 43.615C103.817 44.0757 102.76 44.7652 101.871 45.6425C100.981 46.5198 100.277 47.5671 99.8013 48.7219C99.3248 49.8768 99.0855 51.1156 99.0975 52.3649V52.4166C99.1313 54.9204 100.151 57.3098 101.936 59.066C103.721 60.8222 106.127 61.8035 108.631 61.7966C111.135 61.7898 113.535 60.7955 115.31 59.0296C117.086 57.2637 118.093 54.8688 118.113 52.3649V52.312C118.13 51.0682 117.895 49.8338 117.423 48.683C116.95 47.5323 116.25 46.4888 115.365 45.6154C114.479 44.742 113.426 44.0567 112.269 43.6005C111.111 43.1444 109.874 42.9268 108.63 42.961ZM114.762 52.4166C114.798 53.245 114.667 54.0723 114.376 54.8487C114.084 55.625 113.639 56.3344 113.066 56.9339C112.493 57.5335 111.805 58.0109 111.042 58.3374C110.28 58.6638 109.46 58.8326 108.63 58.8335C107.796 58.8278 106.971 58.6545 106.204 58.3238C105.438 57.9931 104.746 57.5117 104.169 56.9084C103.592 56.305 103.143 55.5919 102.847 54.8114C102.551 54.0309 102.415 53.1989 102.447 52.3649V52.312C102.411 51.4836 102.542 50.6564 102.834 49.8802C103.125 49.104 103.571 48.3948 104.144 47.7954C104.716 47.1959 105.405 46.7187 106.167 46.3923C106.929 46.0659 107.749 45.8971 108.579 45.8962C109.413 45.9019 110.238 46.0752 111.005 46.4059C111.771 46.7366 112.463 47.218 113.04 47.8213C113.616 48.4247 114.066 49.1378 114.362 49.9183C114.658 50.6988 114.794 51.5308 114.762 52.3649V52.4166ZM125.637 43.2713H122.44V61.456H135.194V58.5479H125.634L125.637 43.2713ZM143.676 57.2596L138.195 43.2725H134.661L142.22 61.5865H145.024L152.585 43.2725H149.129L143.676 57.2596ZM88.6251 57.2596L83.1438 43.2725H79.6115L87.1699 61.5865H89.9757L97.5341 43.2725H94.0782L88.6251 57.2596Z" fill="#020A18" style="fill:#020A18;fill:color(display-p3 0.0078 0.0392 0.0941);fill-opacity:1;"/>
</g>
</svg>
